<svg xmlns="http://www.w3.org/2000/svg" width="484" height="446" viewBox="0 0 484 446">
<rect x="0" y="26" width="484" height="420" rx="18" fill="#1e40af"/>
<rect x="0" y="26" width="484" height="414" rx="18" fill="#2563eb"/>
<path d="M 233 6 L 251 6 L 242 20 Z" fill="#57606a"/>
<circle cx="50" cy="73" r="24" fill="#ffffff"/>
<circle cx="114" cy="73" r="24" fill="#ffffff"/>
<circle cx="178" cy="73" r="24" fill="#ffffff"/>
<circle cx="242" cy="73" r="24" fill="#ffffff"/>
<circle cx="306" cy="73" r="24" fill="#ffffff"/>
<circle cx="370" cy="73" r="24" fill="#ffffff"/>
<circle cx="434" cy="73" r="24" fill="#ffffff"/>
<circle cx="50" cy="137" r="24" fill="#ffffff"/>
<circle cx="114" cy="137" r="24" fill="#ffffff"/>
<circle cx="178" cy="137" r="24" fill="#ffffff"/>
<circle cx="242" cy="137" r="24" fill="#ffffff"/>
<circle cx="306" cy="137" r="24" fill="#ffffff"/>
<circle cx="370" cy="137" r="24" fill="#ffffff"/>
<circle cx="434" cy="137" r="24" fill="#ffffff"/>
<circle cx="50" cy="201" r="24" fill="#ffffff"/>
<circle cx="114" cy="201" r="24" fill="#ffffff"/>
<circle cx="178" cy="201" r="24" fill="#ffffff"/>
<circle cx="242" cy="201" r="24" fill="#ffffff"/>
<circle cx="306" cy="201" r="24" fill="#ffffff"/>
<circle cx="370" cy="201" r="24" fill="#ffffff"/>
<circle cx="434" cy="201" r="24" fill="#ffffff"/>
<circle cx="50" cy="265" r="24" fill="#ffffff"/>
<circle cx="114" cy="265" r="24" fill="#ffffff"/>
<circle cx="178" cy="265" r="24" fill="#ffffff"/>
<circle cx="242" cy="265" r="24" fill="#eab308"/>
<circle cx="234" cy="256" r="7" fill="#fde047" opacity="0.7"/>
<circle cx="306" cy="265" r="24" fill="#ffffff"/>
<circle cx="370" cy="265" r="24" fill="#ffffff"/>
<circle cx="434" cy="265" r="24" fill="#ffffff"/>
<circle cx="50" cy="329" r="24" fill="#ffffff"/>
<circle cx="114" cy="329" r="24" fill="#ffffff"/>
<circle cx="178" cy="329" r="24" fill="#ef4444"/>
<circle cx="170" cy="320" r="7" fill="#fca5a5" opacity="0.7"/>
<circle cx="242" cy="329" r="24" fill="#eab308"/>
<circle cx="234" cy="320" r="7" fill="#fde047" opacity="0.7"/>
<circle cx="306" cy="329" r="24" fill="#ffffff"/>
<circle cx="370" cy="329" r="24" fill="#ffffff"/>
<circle cx="434" cy="329" r="24" fill="#ffffff"/>
<circle cx="50" cy="393" r="24" fill="#ffffff"/>
<circle cx="114" cy="393" r="24" fill="#ffffff"/>
<circle cx="178" cy="393" r="24" fill="#eab308"/>
<circle cx="170" cy="384" r="7" fill="#fde047" opacity="0.7"/>
<circle cx="242" cy="393" r="24" fill="#ef4444"/>
<circle cx="234" cy="384" r="7" fill="#fca5a5" opacity="0.7"/>
<circle cx="306" cy="393" r="24" fill="#ef4444"/>
<circle cx="298" cy="384" r="7" fill="#fca5a5" opacity="0.7"/>
<circle cx="370" cy="393" r="24" fill="#ffffff"/>
<circle cx="434" cy="393" r="24" fill="#ffffff"/>
</svg>
