<svg xmlns="http://www.w3.org/2000/svg" width="484" height="480" viewBox="0 0 484 480">
<rect x="0" y="26" width="484" height="420" rx="18" fill="#1e40af"/>
<rect x="0" y="26" width="484" height="414" rx="18" fill="#2563eb"/>
<circle cx="50" cy="73" r="24" fill="#ffffff"/>
<circle cx="114" cy="73" r="24" fill="#ffffff"/>
<circle cx="178" cy="73" r="24" fill="#ffffff"/>
<circle cx="242" cy="73" r="24" fill="#ffffff"/>
<circle cx="306" cy="73" r="24" fill="#ffffff"/>
<circle cx="370" cy="73" r="24" fill="#ffffff"/>
<circle cx="434" cy="73" r="24" fill="#ffffff"/>
<circle cx="50" cy="137" r="24" fill="#ffffff"/>
<circle cx="114" cy="137" r="24" fill="#ffffff"/>
<circle cx="178" cy="137" r="24" fill="#ffffff"/>
<circle cx="242" cy="137" r="24" fill="#ffffff"/>
<circle cx="306" cy="137" r="24" fill="#ffffff"/>
<circle cx="370" cy="137" r="24" fill="#ffffff"/>
<circle cx="434" cy="137" r="24" fill="#ffffff"/>
<circle cx="50" cy="201" r="24" fill="#ffffff"/>
<circle cx="114" cy="201" r="24" fill="#ffffff"/>
<circle cx="178" cy="201" r="24" fill="#ffffff"/>
<circle cx="242" cy="201" r="24" fill="#ffffff"/>
<circle cx="306" cy="201" r="24" fill="#ffffff"/>
<circle cx="370" cy="201" r="24" fill="#ffffff"/>
<circle cx="434" cy="201" r="24" fill="#ffffff"/>
<circle cx="50" cy="265" r="24" fill="#ffffff"/>
<circle cx="114" cy="265" r="24" fill="#ffffff"/>
<circle cx="178" cy="265" r="24" fill="#ffffff"/>
<circle cx="242" cy="265" r="24" fill="#ffffff"/>
<circle cx="306" cy="265" r="24" fill="#ffffff"/>
<circle cx="370" cy="265" r="24" fill="#ffffff"/>
<circle cx="434" cy="265" r="24" fill="#ffffff"/>
<circle cx="50" cy="329" r="24" fill="#ffffff"/>
<circle cx="114" cy="329" r="24" fill="#ffffff"/>
<circle cx="178" cy="329" r="24" fill="#ffffff"/>
<circle cx="242" cy="329" r="24" fill="#ffffff"/>
<circle cx="306" cy="329" r="24" fill="#ffffff"/>
<circle cx="370" cy="329" r="24" fill="#ffffff"/>
<circle cx="434" cy="329" r="24" fill="#ffffff"/>
<circle cx="50" cy="393" r="24" fill="#ffffff"/>
<circle cx="114" cy="393" r="24" fill="#ffffff"/>
<circle cx="178" cy="393" r="24" fill="#ffffff"/>
<circle cx="242" cy="393" r="24" fill="#ffffff"/>
<circle cx="306" cy="393" r="24" fill="#ffffff"/>
<circle cx="370" cy="393" r="24" fill="#ffffff"/>
<circle cx="434" cy="393" r="24" fill="#ffffff"/>
<text x="50" y="470" text-anchor="middle" font-family="ui-monospace, SFMono-Regular, Menlo, monospace" font-size="17" fill="#57606a">1</text>
<text x="114" y="470" text-anchor="middle" font-family="ui-monospace, SFMono-Regular, Menlo, monospace" font-size="17" fill="#57606a">2</text>
<text x="178" y="470" text-anchor="middle" font-family="ui-monospace, SFMono-Regular, Menlo, monospace" font-size="17" fill="#57606a">3</text>
<text x="242" y="470" text-anchor="middle" font-family="ui-monospace, SFMono-Regular, Menlo, monospace" font-size="17" fill="#57606a">4</text>
<text x="306" y="470" text-anchor="middle" font-family="ui-monospace, SFMono-Regular, Menlo, monospace" font-size="17" fill="#57606a">5</text>
<text x="370" y="470" text-anchor="middle" font-family="ui-monospace, SFMono-Regular, Menlo, monospace" font-size="17" fill="#57606a">6</text>
<text x="434" y="470" text-anchor="middle" font-family="ui-monospace, SFMono-Regular, Menlo, monospace" font-size="17" fill="#57606a">7</text>
</svg>
