<svg xmlns="http://www.w3.org/2000/svg" width="457" height="141" viewBox="0 0 457 141">
<style>
.c {
  opacity: 0;
  transform-box: fill-box;
  transform-origin: center;
  animation: rise .6s cubic-bezier(.22,.61,.36,1) both;
}
.t {
  opacity: 0;
  animation: fade .6s ease-out both;
  animation-delay: 2022ms;
  font-family: ui-monospace, SFMono-Regular, Menlo, monospace;
  font-size: 10px;
  fill: #57606a;
}
.lbl {
  font-family: ui-monospace, SFMono-Regular, Menlo, monospace;
  font-size: 9px;
  fill: #57606a;
}
@keyframes rise {
  from { opacity: 0; transform: translateY(8px) scale(.5); }
  to   { opacity: 1; transform: none; }
}
@keyframes fade {
  from { opacity: 0; }
  to   { opacity: 1; }
}
@media (prefers-reduced-motion: reduce) {
  .c, .t { animation: none; opacity: 1; }
}
</style>
<text class="lbl" x="30" y="12">jan</text>
<text class="lbl" x="100" y="12">feb</text>
<text class="lbl" x="156" y="12">mar</text>
<text class="lbl" x="226" y="12">apr</text>
<text class="lbl" x="282" y="12">may</text>
<text class="lbl" x="352" y="12">jun</text>
<text class="lbl" x="408" y="12">jul</text>
<text class="lbl" x="0" y="43">mon</text>
<text class="lbl" x="0" y="71">wed</text>
<text class="lbl" x="0" y="99">fri</text>
<rect class="c" x="30" y="76" width="11" height="11" rx="2.5" fill="#ebedf0" style="animation-delay:48ms"/>
<rect class="c" x="30" y="90" width="11" height="11" rx="2.5" fill="#ebedf0" style="animation-delay:60ms"/>
<rect class="c" x="30" y="104" width="11" height="11" rx="2.5" fill="#ebedf0" style="animation-delay:72ms"/>
<rect class="c" x="44" y="20" width="11" height="11" rx="2.5" fill="#ebedf0" style="animation-delay:45ms"/>
<rect class="c" x="44" y="34" width="11" height="11" rx="2.5" fill="#ebedf0" style="animation-delay:57ms"/>
<rect class="c" x="44" y="48" width="11" height="11" rx="2.5" fill="#ebedf0" style="animation-delay:69ms"/>
<rect class="c" x="44" y="62" width="11" height="11" rx="2.5" fill="#ebedf0" style="animation-delay:81ms"/>
<rect class="c" x="44" y="76" width="11" height="11" rx="2.5" fill="#ebedf0" style="animation-delay:93ms"/>
<rect class="c" x="44" y="90" width="11" height="11" rx="2.5" fill="#ebedf0" style="animation-delay:105ms"/>
<rect class="c" x="44" y="104" width="11" height="11" rx="2.5" fill="#ebedf0" style="animation-delay:117ms"/>
<rect class="c" x="58" y="20" width="11" height="11" rx="2.5" fill="#ebedf0" style="animation-delay:90ms"/>
<rect class="c" x="58" y="34" width="11" height="11" rx="2.5" fill="#ebedf0" style="animation-delay:102ms"/>
<rect class="c" x="58" y="48" width="11" height="11" rx="2.5" fill="#ebedf0" style="animation-delay:114ms"/>
<rect class="c" x="58" y="62" width="11" height="11" rx="2.5" fill="#ebedf0" style="animation-delay:126ms"/>
<rect class="c" x="58" y="76" width="11" height="11" rx="2.5" fill="#ebedf0" style="animation-delay:138ms"/>
<rect class="c" x="58" y="90" width="11" height="11" rx="2.5" fill="#ebedf0" style="animation-delay:150ms"/>
<rect class="c" x="58" y="104" width="11" height="11" rx="2.5" fill="#ebedf0" style="animation-delay:162ms"/>
<rect class="c" x="72" y="20" width="11" height="11" rx="2.5" fill="#ebedf0" style="animation-delay:135ms"/>
<rect class="c" x="72" y="34" width="11" height="11" rx="2.5" fill="#ebedf0" style="animation-delay:147ms"/>
<rect class="c" x="72" y="48" width="11" height="11" rx="2.5" fill="#ebedf0" style="animation-delay:159ms"/>
<rect class="c" x="72" y="62" width="11" height="11" rx="2.5" fill="#ebedf0" style="animation-delay:171ms"/>
<rect class="c" x="72" y="76" width="11" height="11" rx="2.5" fill="#ebedf0" style="animation-delay:183ms"/>
<rect class="c" x="72" y="90" width="11" height="11" rx="2.5" fill="#ebedf0" style="animation-delay:195ms"/>
<rect class="c" x="72" y="104" width="11" height="11" rx="2.5" fill="#ebedf0" style="animation-delay:207ms"/>
<rect class="c" x="86" y="20" width="11" height="11" rx="2.5" fill="#ebedf0" style="animation-delay:180ms"/>
<rect class="c" x="86" y="34" width="11" height="11" rx="2.5" fill="#ebedf0" style="animation-delay:192ms"/>
<rect class="c" x="86" y="48" width="11" height="11" rx="2.5" fill="#ebedf0" style="animation-delay:204ms"/>
<rect class="c" x="86" y="62" width="11" height="11" rx="2.5" fill="#ebedf0" style="animation-delay:216ms"/>
<rect class="c" x="86" y="76" width="11" height="11" rx="2.5" fill="#ebedf0" style="animation-delay:228ms"/>
<rect class="c" x="86" y="90" width="11" height="11" rx="2.5" fill="#ebedf0" style="animation-delay:240ms"/>
<rect class="c" x="86" y="104" width="11" height="11" rx="2.5" fill="#ebedf0" style="animation-delay:252ms"/>
<rect class="c" x="100" y="20" width="11" height="11" rx="2.5" fill="#ebedf0" style="animation-delay:225ms"/>
<rect class="c" x="100" y="34" width="11" height="11" rx="2.5" fill="#ebedf0" style="animation-delay:237ms"/>
<rect class="c" x="100" y="48" width="11" height="11" rx="2.5" fill="#ebedf0" style="animation-delay:249ms"/>
<rect class="c" x="100" y="62" width="11" height="11" rx="2.5" fill="#ebedf0" style="animation-delay:261ms"/>
<rect class="c" x="100" y="76" width="11" height="11" rx="2.5" fill="#ebedf0" style="animation-delay:273ms"/>
<rect class="c" x="100" y="90" width="11" height="11" rx="2.5" fill="#ebedf0" style="animation-delay:285ms"/>
<rect class="c" x="100" y="104" width="11" height="11" rx="2.5" fill="#ebedf0" style="animation-delay:297ms"/>
<rect class="c" x="114" y="20" width="11" height="11" rx="2.5" fill="#ebedf0" style="animation-delay:270ms"/>
<rect class="c" x="114" y="34" width="11" height="11" rx="2.5" fill="#ebedf0" style="animation-delay:282ms"/>
<rect class="c" x="114" y="48" width="11" height="11" rx="2.5" fill="#ebedf0" style="animation-delay:294ms"/>
<rect class="c" x="114" y="62" width="11" height="11" rx="2.5" fill="#ebedf0" style="animation-delay:306ms"/>
<rect class="c" x="114" y="76" width="11" height="11" rx="2.5" fill="#ebedf0" style="animation-delay:318ms"/>
<rect class="c" x="114" y="90" width="11" height="11" rx="2.5" fill="#ebedf0" style="animation-delay:330ms"/>
<rect class="c" x="114" y="104" width="11" height="11" rx="2.5" fill="#ebedf0" style="animation-delay:342ms"/>
<rect class="c" x="128" y="20" width="11" height="11" rx="2.5" fill="#ebedf0" style="animation-delay:315ms"/>
<rect class="c" x="128" y="34" width="11" height="11" rx="2.5" fill="#ebedf0" style="animation-delay:327ms"/>
<rect class="c" x="128" y="48" width="11" height="11" rx="2.5" fill="#ebedf0" style="animation-delay:339ms"/>
<rect class="c" x="128" y="62" width="11" height="11" rx="2.5" fill="#ebedf0" style="animation-delay:351ms"/>
<rect class="c" x="128" y="76" width="11" height="11" rx="2.5" fill="#ebedf0" style="animation-delay:363ms"/>
<rect class="c" x="128" y="90" width="11" height="11" rx="2.5" fill="#ebedf0" style="animation-delay:375ms"/>
<rect class="c" x="128" y="104" width="11" height="11" rx="2.5" fill="#ebedf0" style="animation-delay:387ms"/>
<rect class="c" x="142" y="20" width="11" height="11" rx="2.5" fill="#ebedf0" style="animation-delay:360ms"/>
<rect class="c" x="142" y="34" width="11" height="11" rx="2.5" fill="#ebedf0" style="animation-delay:372ms"/>
<rect class="c" x="142" y="48" width="11" height="11" rx="2.5" fill="#ebedf0" style="animation-delay:384ms"/>
<rect class="c" x="142" y="62" width="11" height="11" rx="2.5" fill="#ebedf0" style="animation-delay:396ms"/>
<rect class="c" x="142" y="76" width="11" height="11" rx="2.5" fill="#ebedf0" style="animation-delay:408ms"/>
<rect class="c" x="142" y="90" width="11" height="11" rx="2.5" fill="#ebedf0" style="animation-delay:420ms"/>
<rect class="c" x="142" y="104" width="11" height="11" rx="2.5" fill="#ebedf0" style="animation-delay:432ms"/>
<rect class="c" x="156" y="20" width="11" height="11" rx="2.5" fill="#ebedf0" style="animation-delay:405ms"/>
<rect class="c" x="156" y="34" width="11" height="11" rx="2.5" fill="#ebedf0" style="animation-delay:417ms"/>
<rect class="c" x="156" y="48" width="11" height="11" rx="2.5" fill="#ebedf0" style="animation-delay:429ms"/>
<rect class="c" x="156" y="62" width="11" height="11" rx="2.5" fill="#ebedf0" style="animation-delay:441ms"/>
<rect class="c" x="156" y="76" width="11" height="11" rx="2.5" fill="#ebedf0" style="animation-delay:453ms"/>
<rect class="c" x="156" y="90" width="11" height="11" rx="2.5" fill="#ebedf0" style="animation-delay:465ms"/>
<rect class="c" x="156" y="104" width="11" height="11" rx="2.5" fill="#ebedf0" style="animation-delay:477ms"/>
<rect class="c" x="170" y="20" width="11" height="11" rx="2.5" fill="#ebedf0" style="animation-delay:450ms"/>
<rect class="c" x="170" y="34" width="11" height="11" rx="2.5" fill="#ebedf0" style="animation-delay:462ms"/>
<rect class="c" x="170" y="48" width="11" height="11" rx="2.5" fill="#ebedf0" style="animation-delay:474ms"/>
<rect class="c" x="170" y="62" width="11" height="11" rx="2.5" fill="#ebedf0" style="animation-delay:486ms"/>
<rect class="c" x="170" y="76" width="11" height="11" rx="2.5" fill="#ebedf0" style="animation-delay:498ms"/>
<rect class="c" x="170" y="90" width="11" height="11" rx="2.5" fill="#ebedf0" style="animation-delay:510ms"/>
<rect class="c" x="170" y="104" width="11" height="11" rx="2.5" fill="#ebedf0" style="animation-delay:522ms"/>
<rect class="c" x="184" y="20" width="11" height="11" rx="2.5" fill="#ebedf0" style="animation-delay:495ms"/>
<rect class="c" x="184" y="34" width="11" height="11" rx="2.5" fill="#40c463" style="animation-delay:507ms"/>
<rect class="c" x="184" y="48" width="11" height="11" rx="2.5" fill="#ebedf0" style="animation-delay:519ms"/>
<rect class="c" x="184" y="62" width="11" height="11" rx="2.5" fill="#ebedf0" style="animation-delay:531ms"/>
<rect class="c" x="184" y="76" width="11" height="11" rx="2.5" fill="#ebedf0" style="animation-delay:543ms"/>
<rect class="c" x="184" y="90" width="11" height="11" rx="2.5" fill="#ebedf0" style="animation-delay:555ms"/>
<rect class="c" x="184" y="104" width="11" height="11" rx="2.5" fill="#ebedf0" style="animation-delay:567ms"/>
<rect class="c" x="198" y="20" width="11" height="11" rx="2.5" fill="#ebedf0" style="animation-delay:540ms"/>
<rect class="c" x="198" y="34" width="11" height="11" rx="2.5" fill="#40c463" style="animation-delay:552ms"/>
<rect class="c" x="198" y="48" width="11" height="11" rx="2.5" fill="#9be9a8" style="animation-delay:564ms"/>
<rect class="c" x="198" y="62" width="11" height="11" rx="2.5" fill="#ebedf0" style="animation-delay:576ms"/>
<rect class="c" x="198" y="76" width="11" height="11" rx="2.5" fill="#ebedf0" style="animation-delay:588ms"/>
<rect class="c" x="198" y="90" width="11" height="11" rx="2.5" fill="#ebedf0" style="animation-delay:600ms"/>
<rect class="c" x="198" y="104" width="11" height="11" rx="2.5" fill="#ebedf0" style="animation-delay:612ms"/>
<rect class="c" x="212" y="20" width="11" height="11" rx="2.5" fill="#ebedf0" style="animation-delay:585ms"/>
<rect class="c" x="212" y="34" width="11" height="11" rx="2.5" fill="#9be9a8" style="animation-delay:597ms"/>
<rect class="c" x="212" y="48" width="11" height="11" rx="2.5" fill="#ebedf0" style="animation-delay:609ms"/>
<rect class="c" x="212" y="62" width="11" height="11" rx="2.5" fill="#ebedf0" style="animation-delay:621ms"/>
<rect class="c" x="212" y="76" width="11" height="11" rx="2.5" fill="#ebedf0" style="animation-delay:633ms"/>
<rect class="c" x="212" y="90" width="11" height="11" rx="2.5" fill="#ebedf0" style="animation-delay:645ms"/>
<rect class="c" x="212" y="104" width="11" height="11" rx="2.5" fill="#ebedf0" style="animation-delay:657ms"/>
<rect class="c" x="226" y="20" width="11" height="11" rx="2.5" fill="#ebedf0" style="animation-delay:630ms"/>
<rect class="c" x="226" y="34" width="11" height="11" rx="2.5" fill="#ebedf0" style="animation-delay:642ms"/>
<rect class="c" x="226" y="48" width="11" height="11" rx="2.5" fill="#ebedf0" style="animation-delay:654ms"/>
<rect class="c" x="226" y="62" width="11" height="11" rx="2.5" fill="#ebedf0" style="animation-delay:666ms"/>
<rect class="c" x="226" y="76" width="11" height="11" rx="2.5" fill="#ebedf0" style="animation-delay:678ms"/>
<rect class="c" x="226" y="90" width="11" height="11" rx="2.5" fill="#ebedf0" style="animation-delay:690ms"/>
<rect class="c" x="226" y="104" width="11" height="11" rx="2.5" fill="#ebedf0" style="animation-delay:702ms"/>
<rect class="c" x="240" y="20" width="11" height="11" rx="2.5" fill="#ebedf0" style="animation-delay:675ms"/>
<rect class="c" x="240" y="34" width="11" height="11" rx="2.5" fill="#ebedf0" style="animation-delay:687ms"/>
<rect class="c" x="240" y="48" width="11" height="11" rx="2.5" fill="#ebedf0" style="animation-delay:699ms"/>
<rect class="c" x="240" y="62" width="11" height="11" rx="2.5" fill="#ebedf0" style="animation-delay:711ms"/>
<rect class="c" x="240" y="76" width="11" height="11" rx="2.5" fill="#ebedf0" style="animation-delay:723ms"/>
<rect class="c" x="240" y="90" width="11" height="11" rx="2.5" fill="#ebedf0" style="animation-delay:735ms"/>
<rect class="c" x="240" y="104" width="11" height="11" rx="2.5" fill="#9be9a8" style="animation-delay:747ms"/>
<rect class="c" x="254" y="20" width="11" height="11" rx="2.5" fill="#ebedf0" style="animation-delay:720ms"/>
<rect class="c" x="254" y="34" width="11" height="11" rx="2.5" fill="#ebedf0" style="animation-delay:732ms"/>
<rect class="c" x="254" y="48" width="11" height="11" rx="2.5" fill="#9be9a8" style="animation-delay:744ms"/>
<rect class="c" x="254" y="62" width="11" height="11" rx="2.5" fill="#ebedf0" style="animation-delay:756ms"/>
<rect class="c" x="254" y="76" width="11" height="11" rx="2.5" fill="#ebedf0" style="animation-delay:768ms"/>
<rect class="c" x="254" y="90" width="11" height="11" rx="2.5" fill="#ebedf0" style="animation-delay:780ms"/>
<rect class="c" x="254" y="104" width="11" height="11" rx="2.5" fill="#9be9a8" style="animation-delay:792ms"/>
<rect class="c" x="268" y="20" width="11" height="11" rx="2.5" fill="#ebedf0" style="animation-delay:765ms"/>
<rect class="c" x="268" y="34" width="11" height="11" rx="2.5" fill="#9be9a8" style="animation-delay:777ms"/>
<rect class="c" x="268" y="48" width="11" height="11" rx="2.5" fill="#40c463" style="animation-delay:789ms"/>
<rect class="c" x="268" y="62" width="11" height="11" rx="2.5" fill="#9be9a8" style="animation-delay:801ms"/>
<rect class="c" x="268" y="76" width="11" height="11" rx="2.5" fill="#9be9a8" style="animation-delay:813ms"/>
<rect class="c" x="268" y="90" width="11" height="11" rx="2.5" fill="#9be9a8" style="animation-delay:825ms"/>
<rect class="c" x="268" y="104" width="11" height="11" rx="2.5" fill="#9be9a8" style="animation-delay:837ms"/>
<rect class="c" x="282" y="20" width="11" height="11" rx="2.5" fill="#ebedf0" style="animation-delay:810ms"/>
<rect class="c" x="282" y="34" width="11" height="11" rx="2.5" fill="#ebedf0" style="animation-delay:822ms"/>
<rect class="c" x="282" y="48" width="11" height="11" rx="2.5" fill="#ebedf0" style="animation-delay:834ms"/>
<rect class="c" x="282" y="62" width="11" height="11" rx="2.5" fill="#9be9a8" style="animation-delay:846ms"/>
<rect class="c" x="282" y="76" width="11" height="11" rx="2.5" fill="#9be9a8" style="animation-delay:858ms"/>
<rect class="c" x="282" y="90" width="11" height="11" rx="2.5" fill="#9be9a8" style="animation-delay:870ms"/>
<rect class="c" x="282" y="104" width="11" height="11" rx="2.5" fill="#ebedf0" style="animation-delay:882ms"/>
<rect class="c" x="296" y="20" width="11" height="11" rx="2.5" fill="#ebedf0" style="animation-delay:855ms"/>
<rect class="c" x="296" y="34" width="11" height="11" rx="2.5" fill="#9be9a8" style="animation-delay:867ms"/>
<rect class="c" x="296" y="48" width="11" height="11" rx="2.5" fill="#ebedf0" style="animation-delay:879ms"/>
<rect class="c" x="296" y="62" width="11" height="11" rx="2.5" fill="#9be9a8" style="animation-delay:891ms"/>
<rect class="c" x="296" y="76" width="11" height="11" rx="2.5" fill="#9be9a8" style="animation-delay:903ms"/>
<rect class="c" x="296" y="90" width="11" height="11" rx="2.5" fill="#40c463" style="animation-delay:915ms"/>
<rect class="c" x="296" y="104" width="11" height="11" rx="2.5" fill="#ebedf0" style="animation-delay:927ms"/>
<rect class="c" x="310" y="20" width="11" height="11" rx="2.5" fill="#ebedf0" style="animation-delay:900ms"/>
<rect class="c" x="310" y="34" width="11" height="11" rx="2.5" fill="#ebedf0" style="animation-delay:912ms"/>
<rect class="c" x="310" y="48" width="11" height="11" rx="2.5" fill="#9be9a8" style="animation-delay:924ms"/>
<rect class="c" x="310" y="62" width="11" height="11" rx="2.5" fill="#40c463" style="animation-delay:936ms"/>
<rect class="c" x="310" y="76" width="11" height="11" rx="2.5" fill="#9be9a8" style="animation-delay:948ms"/>
<rect class="c" x="310" y="90" width="11" height="11" rx="2.5" fill="#216e39" style="animation-delay:960ms"/>
<rect class="c" x="310" y="104" width="11" height="11" rx="2.5" fill="#ebedf0" style="animation-delay:972ms"/>
<rect class="c" x="324" y="20" width="11" height="11" rx="2.5" fill="#ebedf0" style="animation-delay:945ms"/>
<rect class="c" x="324" y="34" width="11" height="11" rx="2.5" fill="#30a14e" style="animation-delay:957ms"/>
<rect class="c" x="324" y="48" width="11" height="11" rx="2.5" fill="#216e39" style="animation-delay:969ms"/>
<rect class="c" x="324" y="62" width="11" height="11" rx="2.5" fill="#30a14e" style="animation-delay:981ms"/>
<rect class="c" x="324" y="76" width="11" height="11" rx="2.5" fill="#9be9a8" style="animation-delay:993ms"/>
<rect class="c" x="324" y="90" width="11" height="11" rx="2.5" fill="#216e39" style="animation-delay:1005ms"/>
<rect class="c" x="324" y="104" width="11" height="11" rx="2.5" fill="#9be9a8" style="animation-delay:1017ms"/>
<rect class="c" x="338" y="20" width="11" height="11" rx="2.5" fill="#9be9a8" style="animation-delay:990ms"/>
<rect class="c" x="338" y="34" width="11" height="11" rx="2.5" fill="#9be9a8" style="animation-delay:1002ms"/>
<rect class="c" x="338" y="48" width="11" height="11" rx="2.5" fill="#216e39" style="animation-delay:1014ms"/>
<rect class="c" x="338" y="62" width="11" height="11" rx="2.5" fill="#30a14e" style="animation-delay:1026ms"/>
<rect class="c" x="338" y="76" width="11" height="11" rx="2.5" fill="#40c463" style="animation-delay:1038ms"/>
<rect class="c" x="338" y="90" width="11" height="11" rx="2.5" fill="#216e39" style="animation-delay:1050ms"/>
<rect class="c" x="338" y="104" width="11" height="11" rx="2.5" fill="#9be9a8" style="animation-delay:1062ms"/>
<rect class="c" x="352" y="20" width="11" height="11" rx="2.5" fill="#ebedf0" style="animation-delay:1035ms"/>
<rect class="c" x="352" y="34" width="11" height="11" rx="2.5" fill="#9be9a8" style="animation-delay:1047ms"/>
<rect class="c" x="352" y="48" width="11" height="11" rx="2.5" fill="#216e39" style="animation-delay:1059ms"/>
<rect class="c" x="352" y="62" width="11" height="11" rx="2.5" fill="#216e39" style="animation-delay:1071ms"/>
<rect class="c" x="352" y="76" width="11" height="11" rx="2.5" fill="#40c463" style="animation-delay:1083ms"/>
<rect class="c" x="352" y="90" width="11" height="11" rx="2.5" fill="#216e39" style="animation-delay:1095ms"/>
<rect class="c" x="352" y="104" width="11" height="11" rx="2.5" fill="#9be9a8" style="animation-delay:1107ms"/>
<rect class="c" x="366" y="20" width="11" height="11" rx="2.5" fill="#30a14e" style="animation-delay:1080ms"/>
<rect class="c" x="366" y="34" width="11" height="11" rx="2.5" fill="#9be9a8" style="animation-delay:1092ms"/>
<rect class="c" x="366" y="48" width="11" height="11" rx="2.5" fill="#9be9a8" style="animation-delay:1104ms"/>
<rect class="c" x="366" y="62" width="11" height="11" rx="2.5" fill="#9be9a8" style="animation-delay:1116ms"/>
<rect class="c" x="366" y="76" width="11" height="11" rx="2.5" fill="#9be9a8" style="animation-delay:1128ms"/>
<rect class="c" x="366" y="90" width="11" height="11" rx="2.5" fill="#30a14e" style="animation-delay:1140ms"/>
<rect class="c" x="366" y="104" width="11" height="11" rx="2.5" fill="#ebedf0" style="animation-delay:1152ms"/>
<rect class="c" x="380" y="20" width="11" height="11" rx="2.5" fill="#ebedf0" style="animation-delay:1125ms"/>
<rect class="c" x="380" y="34" width="11" height="11" rx="2.5" fill="#9be9a8" style="animation-delay:1137ms"/>
<rect class="c" x="380" y="48" width="11" height="11" rx="2.5" fill="#9be9a8" style="animation-delay:1149ms"/>
<rect class="c" x="380" y="62" width="11" height="11" rx="2.5" fill="#9be9a8" style="animation-delay:1161ms"/>
<rect class="c" x="380" y="76" width="11" height="11" rx="2.5" fill="#9be9a8" style="animation-delay:1173ms"/>
<rect class="c" x="380" y="90" width="11" height="11" rx="2.5" fill="#40c463" style="animation-delay:1185ms"/>
<rect class="c" x="380" y="104" width="11" height="11" rx="2.5" fill="#ebedf0" style="animation-delay:1197ms"/>
<rect class="c" x="394" y="20" width="11" height="11" rx="2.5" fill="#ebedf0" style="animation-delay:1170ms"/>
<rect class="c" x="394" y="34" width="11" height="11" rx="2.5" fill="#9be9a8" style="animation-delay:1182ms"/>
<rect class="c" x="394" y="48" width="11" height="11" rx="2.5" fill="#9be9a8" style="animation-delay:1194ms"/>
<rect class="c" x="394" y="62" width="11" height="11" rx="2.5" fill="#9be9a8" style="animation-delay:1206ms"/>
<rect class="c" x="394" y="76" width="11" height="11" rx="2.5" fill="#9be9a8" style="animation-delay:1218ms"/>
<rect class="c" x="394" y="90" width="11" height="11" rx="2.5" fill="#40c463" style="animation-delay:1230ms"/>
<rect class="c" x="394" y="104" width="11" height="11" rx="2.5" fill="#ebedf0" style="animation-delay:1242ms"/>
<rect class="c" x="408" y="20" width="11" height="11" rx="2.5" fill="#ebedf0" style="animation-delay:1215ms"/>
<rect class="c" x="408" y="34" width="11" height="11" rx="2.5" fill="#9be9a8" style="animation-delay:1227ms"/>
<rect class="c" x="408" y="48" width="11" height="11" rx="2.5" fill="#9be9a8" style="animation-delay:1239ms"/>
<rect class="c" x="408" y="62" width="11" height="11" rx="2.5" fill="#9be9a8" style="animation-delay:1251ms"/>
<rect class="c" x="408" y="76" width="11" height="11" rx="2.5" fill="#40c463" style="animation-delay:1263ms"/>
<rect class="c" x="408" y="90" width="11" height="11" rx="2.5" fill="#9be9a8" style="animation-delay:1275ms"/>
<rect class="c" x="408" y="104" width="11" height="11" rx="2.5" fill="#ebedf0" style="animation-delay:1287ms"/>
<rect class="c" x="422" y="20" width="11" height="11" rx="2.5" fill="#ebedf0" style="animation-delay:1260ms"/>
<rect class="c" x="422" y="34" width="11" height="11" rx="2.5" fill="#9be9a8" style="animation-delay:1272ms"/>
<rect class="c" x="422" y="48" width="11" height="11" rx="2.5" fill="#9be9a8" style="animation-delay:1284ms"/>
<rect class="c" x="422" y="62" width="11" height="11" rx="2.5" fill="#30a14e" style="animation-delay:1296ms"/>
<rect class="c" x="422" y="76" width="11" height="11" rx="2.5" fill="#40c463" style="animation-delay:1308ms"/>
<rect class="c" x="422" y="90" width="11" height="11" rx="2.5" fill="#40c463" style="animation-delay:1320ms"/>
<rect class="c" x="422" y="104" width="11" height="11" rx="2.5" fill="#9be9a8" style="animation-delay:1332ms"/>
<rect class="c" x="436" y="20" width="11" height="11" rx="2.5" fill="#9be9a8" style="animation-delay:1305ms"/>
<rect class="c" x="436" y="34" width="11" height="11" rx="2.5" fill="#9be9a8" style="animation-delay:1317ms"/>
<rect class="c" x="436" y="48" width="11" height="11" rx="2.5" fill="#40c463" style="animation-delay:1329ms"/>
<rect class="c" x="436" y="62" width="11" height="11" rx="2.5" fill="#216e39" style="animation-delay:1341ms"/>
<text class="t" x="30" y="132">677 contributions in 2026</text>
<text class="t" x="317" y="132">less</text>
<rect class="c" x="347" y="123" width="11" height="11" rx="2.5" fill="#ebedf0" style="animation-delay:2022ms"/>
<rect class="c" x="361" y="123" width="11" height="11" rx="2.5" fill="#9be9a8" style="animation-delay:2022ms"/>
<rect class="c" x="375" y="123" width="11" height="11" rx="2.5" fill="#40c463" style="animation-delay:2022ms"/>
<rect class="c" x="389" y="123" width="11" height="11" rx="2.5" fill="#30a14e" style="animation-delay:2022ms"/>
<rect class="c" x="403" y="123" width="11" height="11" rx="2.5" fill="#216e39" style="animation-delay:2022ms"/>
<text class="t" x="421" y="132">more</text>
</svg>
