<svg xmlns="http://www.w3.org/2000/svg" width="457" height="141" viewBox="0 0 457 141">
<style>
.c {
  opacity: 0;
  transform-box: fill-box;
  transform-origin: center;
  animation: rise .8s cubic-bezier(.22,.61,.36,1) both;
}
.t {
  opacity: 0;
  animation: fade .6s ease-out both;
  animation-delay: 3290ms;
  font-family: ui-monospace, SFMono-Regular, Menlo, monospace;
  font-size: 10px;
  fill: #8b949e;
}
.lbl {
  font-family: ui-monospace, SFMono-Regular, Menlo, monospace;
  font-size: 9px;
  fill: #8b949e;
}
@keyframes rise {
  from { opacity: 0; transform: translateY(8px) scale(.5); }
  to   { opacity: 1; transform: none; }
}
@keyframes fade {
  from { opacity: 0; }
  to   { opacity: 1; }
}
@media (prefers-reduced-motion: reduce) {
  .c, .t { animation: none; opacity: 1; }
}
</style>
<text class="lbl" x="30" y="12">jan</text>
<text class="lbl" x="100" y="12">feb</text>
<text class="lbl" x="156" y="12">mar</text>
<text class="lbl" x="226" y="12">apr</text>
<text class="lbl" x="282" y="12">may</text>
<text class="lbl" x="352" y="12">jun</text>
<text class="lbl" x="408" y="12">jul</text>
<text class="lbl" x="0" y="43">mon</text>
<text class="lbl" x="0" y="71">wed</text>
<text class="lbl" x="0" y="99">fri</text>
<rect class="c" x="30" y="76" width="11" height="11" rx="2.5" fill="#161b22" style="animation-delay:60ms"/>
<rect class="c" x="30" y="90" width="11" height="11" rx="2.5" fill="#161b22" style="animation-delay:75ms"/>
<rect class="c" x="30" y="104" width="11" height="11" rx="2.5" fill="#161b22" style="animation-delay:90ms"/>
<rect class="c" x="44" y="20" width="11" height="11" rx="2.5" fill="#161b22" style="animation-delay:80ms"/>
<rect class="c" x="44" y="34" width="11" height="11" rx="2.5" fill="#161b22" style="animation-delay:95ms"/>
<rect class="c" x="44" y="48" width="11" height="11" rx="2.5" fill="#161b22" style="animation-delay:110ms"/>
<rect class="c" x="44" y="62" width="11" height="11" rx="2.5" fill="#161b22" style="animation-delay:125ms"/>
<rect class="c" x="44" y="76" width="11" height="11" rx="2.5" fill="#161b22" style="animation-delay:140ms"/>
<rect class="c" x="44" y="90" width="11" height="11" rx="2.5" fill="#161b22" style="animation-delay:155ms"/>
<rect class="c" x="44" y="104" width="11" height="11" rx="2.5" fill="#161b22" style="animation-delay:170ms"/>
<rect class="c" x="58" y="20" width="11" height="11" rx="2.5" fill="#161b22" style="animation-delay:160ms"/>
<rect class="c" x="58" y="34" width="11" height="11" rx="2.5" fill="#161b22" style="animation-delay:175ms"/>
<rect class="c" x="58" y="48" width="11" height="11" rx="2.5" fill="#161b22" style="animation-delay:190ms"/>
<rect class="c" x="58" y="62" width="11" height="11" rx="2.5" fill="#161b22" style="animation-delay:205ms"/>
<rect class="c" x="58" y="76" width="11" height="11" rx="2.5" fill="#161b22" style="animation-delay:220ms"/>
<rect class="c" x="58" y="90" width="11" height="11" rx="2.5" fill="#161b22" style="animation-delay:235ms"/>
<rect class="c" x="58" y="104" width="11" height="11" rx="2.5" fill="#161b22" style="animation-delay:250ms"/>
<rect class="c" x="72" y="20" width="11" height="11" rx="2.5" fill="#161b22" style="animation-delay:240ms"/>
<rect class="c" x="72" y="34" width="11" height="11" rx="2.5" fill="#161b22" style="animation-delay:255ms"/>
<rect class="c" x="72" y="48" width="11" height="11" rx="2.5" fill="#161b22" style="animation-delay:270ms"/>
<rect class="c" x="72" y="62" width="11" height="11" rx="2.5" fill="#161b22" style="animation-delay:285ms"/>
<rect class="c" x="72" y="76" width="11" height="11" rx="2.5" fill="#161b22" style="animation-delay:300ms"/>
<rect class="c" x="72" y="90" width="11" height="11" rx="2.5" fill="#161b22" style="animation-delay:315ms"/>
<rect class="c" x="72" y="104" width="11" height="11" rx="2.5" fill="#161b22" style="animation-delay:330ms"/>
<rect class="c" x="86" y="20" width="11" height="11" rx="2.5" fill="#161b22" style="animation-delay:320ms"/>
<rect class="c" x="86" y="34" width="11" height="11" rx="2.5" fill="#161b22" style="animation-delay:335ms"/>
<rect class="c" x="86" y="48" width="11" height="11" rx="2.5" fill="#161b22" style="animation-delay:350ms"/>
<rect class="c" x="86" y="62" width="11" height="11" rx="2.5" fill="#161b22" style="animation-delay:365ms"/>
<rect class="c" x="86" y="76" width="11" height="11" rx="2.5" fill="#161b22" style="animation-delay:380ms"/>
<rect class="c" x="86" y="90" width="11" height="11" rx="2.5" fill="#161b22" style="animation-delay:395ms"/>
<rect class="c" x="86" y="104" width="11" height="11" rx="2.5" fill="#161b22" style="animation-delay:410ms"/>
<rect class="c" x="100" y="20" width="11" height="11" rx="2.5" fill="#161b22" style="animation-delay:400ms"/>
<rect class="c" x="100" y="34" width="11" height="11" rx="2.5" fill="#161b22" style="animation-delay:415ms"/>
<rect class="c" x="100" y="48" width="11" height="11" rx="2.5" fill="#161b22" style="animation-delay:430ms"/>
<rect class="c" x="100" y="62" width="11" height="11" rx="2.5" fill="#161b22" style="animation-delay:445ms"/>
<rect class="c" x="100" y="76" width="11" height="11" rx="2.5" fill="#161b22" style="animation-delay:460ms"/>
<rect class="c" x="100" y="90" width="11" height="11" rx="2.5" fill="#161b22" style="animation-delay:475ms"/>
<rect class="c" x="100" y="104" width="11" height="11" rx="2.5" fill="#161b22" style="animation-delay:490ms"/>
<rect class="c" x="114" y="20" width="11" height="11" rx="2.5" fill="#161b22" style="animation-delay:480ms"/>
<rect class="c" x="114" y="34" width="11" height="11" rx="2.5" fill="#161b22" style="animation-delay:495ms"/>
<rect class="c" x="114" y="48" width="11" height="11" rx="2.5" fill="#161b22" style="animation-delay:510ms"/>
<rect class="c" x="114" y="62" width="11" height="11" rx="2.5" fill="#161b22" style="animation-delay:525ms"/>
<rect class="c" x="114" y="76" width="11" height="11" rx="2.5" fill="#161b22" style="animation-delay:540ms"/>
<rect class="c" x="114" y="90" width="11" height="11" rx="2.5" fill="#161b22" style="animation-delay:555ms"/>
<rect class="c" x="114" y="104" width="11" height="11" rx="2.5" fill="#161b22" style="animation-delay:570ms"/>
<rect class="c" x="128" y="20" width="11" height="11" rx="2.5" fill="#161b22" style="animation-delay:560ms"/>
<rect class="c" x="128" y="34" width="11" height="11" rx="2.5" fill="#161b22" style="animation-delay:575ms"/>
<rect class="c" x="128" y="48" width="11" height="11" rx="2.5" fill="#161b22" style="animation-delay:590ms"/>
<rect class="c" x="128" y="62" width="11" height="11" rx="2.5" fill="#161b22" style="animation-delay:605ms"/>
<rect class="c" x="128" y="76" width="11" height="11" rx="2.5" fill="#161b22" style="animation-delay:620ms"/>
<rect class="c" x="128" y="90" width="11" height="11" rx="2.5" fill="#161b22" style="animation-delay:635ms"/>
<rect class="c" x="128" y="104" width="11" height="11" rx="2.5" fill="#161b22" style="animation-delay:650ms"/>
<rect class="c" x="142" y="20" width="11" height="11" rx="2.5" fill="#161b22" style="animation-delay:640ms"/>
<rect class="c" x="142" y="34" width="11" height="11" rx="2.5" fill="#161b22" style="animation-delay:655ms"/>
<rect class="c" x="142" y="48" width="11" height="11" rx="2.5" fill="#161b22" style="animation-delay:670ms"/>
<rect class="c" x="142" y="62" width="11" height="11" rx="2.5" fill="#161b22" style="animation-delay:685ms"/>
<rect class="c" x="142" y="76" width="11" height="11" rx="2.5" fill="#161b22" style="animation-delay:700ms"/>
<rect class="c" x="142" y="90" width="11" height="11" rx="2.5" fill="#161b22" style="animation-delay:715ms"/>
<rect class="c" x="142" y="104" width="11" height="11" rx="2.5" fill="#161b22" style="animation-delay:730ms"/>
<rect class="c" x="156" y="20" width="11" height="11" rx="2.5" fill="#161b22" style="animation-delay:720ms"/>
<rect class="c" x="156" y="34" width="11" height="11" rx="2.5" fill="#161b22" style="animation-delay:735ms"/>
<rect class="c" x="156" y="48" width="11" height="11" rx="2.5" fill="#161b22" style="animation-delay:750ms"/>
<rect class="c" x="156" y="62" width="11" height="11" rx="2.5" fill="#161b22" style="animation-delay:765ms"/>
<rect class="c" x="156" y="76" width="11" height="11" rx="2.5" fill="#161b22" style="animation-delay:780ms"/>
<rect class="c" x="156" y="90" width="11" height="11" rx="2.5" fill="#161b22" style="animation-delay:795ms"/>
<rect class="c" x="156" y="104" width="11" height="11" rx="2.5" fill="#161b22" style="animation-delay:810ms"/>
<rect class="c" x="170" y="20" width="11" height="11" rx="2.5" fill="#161b22" style="animation-delay:800ms"/>
<rect class="c" x="170" y="34" width="11" height="11" rx="2.5" fill="#161b22" style="animation-delay:815ms"/>
<rect class="c" x="170" y="48" width="11" height="11" rx="2.5" fill="#161b22" style="animation-delay:830ms"/>
<rect class="c" x="170" y="62" width="11" height="11" rx="2.5" fill="#161b22" style="animation-delay:845ms"/>
<rect class="c" x="170" y="76" width="11" height="11" rx="2.5" fill="#161b22" style="animation-delay:860ms"/>
<rect class="c" x="170" y="90" width="11" height="11" rx="2.5" fill="#161b22" style="animation-delay:875ms"/>
<rect class="c" x="170" y="104" width="11" height="11" rx="2.5" fill="#161b22" style="animation-delay:890ms"/>
<rect class="c" x="184" y="20" width="11" height="11" rx="2.5" fill="#161b22" style="animation-delay:880ms"/>
<rect class="c" x="184" y="34" width="11" height="11" rx="2.5" fill="#006d32" style="animation-delay:895ms"/>
<rect class="c" x="184" y="48" width="11" height="11" rx="2.5" fill="#161b22" style="animation-delay:910ms"/>
<rect class="c" x="184" y="62" width="11" height="11" rx="2.5" fill="#161b22" style="animation-delay:925ms"/>
<rect class="c" x="184" y="76" width="11" height="11" rx="2.5" fill="#161b22" style="animation-delay:940ms"/>
<rect class="c" x="184" y="90" width="11" height="11" rx="2.5" fill="#161b22" style="animation-delay:955ms"/>
<rect class="c" x="184" y="104" width="11" height="11" rx="2.5" fill="#161b22" style="animation-delay:970ms"/>
<rect class="c" x="198" y="20" width="11" height="11" rx="2.5" fill="#161b22" style="animation-delay:960ms"/>
<rect class="c" x="198" y="34" width="11" height="11" rx="2.5" fill="#006d32" style="animation-delay:975ms"/>
<rect class="c" x="198" y="48" width="11" height="11" rx="2.5" fill="#0e4429" style="animation-delay:990ms"/>
<rect class="c" x="198" y="62" width="11" height="11" rx="2.5" fill="#161b22" style="animation-delay:1005ms"/>
<rect class="c" x="198" y="76" width="11" height="11" rx="2.5" fill="#161b22" style="animation-delay:1020ms"/>
<rect class="c" x="198" y="90" width="11" height="11" rx="2.5" fill="#161b22" style="animation-delay:1035ms"/>
<rect class="c" x="198" y="104" width="11" height="11" rx="2.5" fill="#161b22" style="animation-delay:1050ms"/>
<rect class="c" x="212" y="20" width="11" height="11" rx="2.5" fill="#161b22" style="animation-delay:1040ms"/>
<rect class="c" x="212" y="34" width="11" height="11" rx="2.5" fill="#0e4429" style="animation-delay:1055ms"/>
<rect class="c" x="212" y="48" width="11" height="11" rx="2.5" fill="#161b22" style="animation-delay:1070ms"/>
<rect class="c" x="212" y="62" width="11" height="11" rx="2.5" fill="#161b22" style="animation-delay:1085ms"/>
<rect class="c" x="212" y="76" width="11" height="11" rx="2.5" fill="#161b22" style="animation-delay:1100ms"/>
<rect class="c" x="212" y="90" width="11" height="11" rx="2.5" fill="#161b22" style="animation-delay:1115ms"/>
<rect class="c" x="212" y="104" width="11" height="11" rx="2.5" fill="#161b22" style="animation-delay:1130ms"/>
<rect class="c" x="226" y="20" width="11" height="11" rx="2.5" fill="#161b22" style="animation-delay:1120ms"/>
<rect class="c" x="226" y="34" width="11" height="11" rx="2.5" fill="#161b22" style="animation-delay:1135ms"/>
<rect class="c" x="226" y="48" width="11" height="11" rx="2.5" fill="#161b22" style="animation-delay:1150ms"/>
<rect class="c" x="226" y="62" width="11" height="11" rx="2.5" fill="#161b22" style="animation-delay:1165ms"/>
<rect class="c" x="226" y="76" width="11" height="11" rx="2.5" fill="#161b22" style="animation-delay:1180ms"/>
<rect class="c" x="226" y="90" width="11" height="11" rx="2.5" fill="#161b22" style="animation-delay:1195ms"/>
<rect class="c" x="226" y="104" width="11" height="11" rx="2.5" fill="#161b22" style="animation-delay:1210ms"/>
<rect class="c" x="240" y="20" width="11" height="11" rx="2.5" fill="#161b22" style="animation-delay:1200ms"/>
<rect class="c" x="240" y="34" width="11" height="11" rx="2.5" fill="#161b22" style="animation-delay:1215ms"/>
<rect class="c" x="240" y="48" width="11" height="11" rx="2.5" fill="#161b22" style="animation-delay:1230ms"/>
<rect class="c" x="240" y="62" width="11" height="11" rx="2.5" fill="#161b22" style="animation-delay:1245ms"/>
<rect class="c" x="240" y="76" width="11" height="11" rx="2.5" fill="#161b22" style="animation-delay:1260ms"/>
<rect class="c" x="240" y="90" width="11" height="11" rx="2.5" fill="#161b22" style="animation-delay:1275ms"/>
<rect class="c" x="240" y="104" width="11" height="11" rx="2.5" fill="#0e4429" style="animation-delay:1290ms"/>
<rect class="c" x="254" y="20" width="11" height="11" rx="2.5" fill="#161b22" style="animation-delay:1280ms"/>
<rect class="c" x="254" y="34" width="11" height="11" rx="2.5" fill="#161b22" style="animation-delay:1295ms"/>
<rect class="c" x="254" y="48" width="11" height="11" rx="2.5" fill="#0e4429" style="animation-delay:1310ms"/>
<rect class="c" x="254" y="62" width="11" height="11" rx="2.5" fill="#161b22" style="animation-delay:1325ms"/>
<rect class="c" x="254" y="76" width="11" height="11" rx="2.5" fill="#161b22" style="animation-delay:1340ms"/>
<rect class="c" x="254" y="90" width="11" height="11" rx="2.5" fill="#161b22" style="animation-delay:1355ms"/>
<rect class="c" x="254" y="104" width="11" height="11" rx="2.5" fill="#0e4429" style="animation-delay:1370ms"/>
<rect class="c" x="268" y="20" width="11" height="11" rx="2.5" fill="#161b22" style="animation-delay:1360ms"/>
<rect class="c" x="268" y="34" width="11" height="11" rx="2.5" fill="#0e4429" style="animation-delay:1375ms"/>
<rect class="c" x="268" y="48" width="11" height="11" rx="2.5" fill="#006d32" style="animation-delay:1390ms"/>
<rect class="c" x="268" y="62" width="11" height="11" rx="2.5" fill="#0e4429" style="animation-delay:1405ms"/>
<rect class="c" x="268" y="76" width="11" height="11" rx="2.5" fill="#0e4429" style="animation-delay:1420ms"/>
<rect class="c" x="268" y="90" width="11" height="11" rx="2.5" fill="#0e4429" style="animation-delay:1435ms"/>
<rect class="c" x="268" y="104" width="11" height="11" rx="2.5" fill="#0e4429" style="animation-delay:1450ms"/>
<rect class="c" x="282" y="20" width="11" height="11" rx="2.5" fill="#161b22" style="animation-delay:1440ms"/>
<rect class="c" x="282" y="34" width="11" height="11" rx="2.5" fill="#161b22" style="animation-delay:1455ms"/>
<rect class="c" x="282" y="48" width="11" height="11" rx="2.5" fill="#161b22" style="animation-delay:1470ms"/>
<rect class="c" x="282" y="62" width="11" height="11" rx="2.5" fill="#0e4429" style="animation-delay:1485ms"/>
<rect class="c" x="282" y="76" width="11" height="11" rx="2.5" fill="#0e4429" style="animation-delay:1500ms"/>
<rect class="c" x="282" y="90" width="11" height="11" rx="2.5" fill="#0e4429" style="animation-delay:1515ms"/>
<rect class="c" x="282" y="104" width="11" height="11" rx="2.5" fill="#161b22" style="animation-delay:1530ms"/>
<rect class="c" x="296" y="20" width="11" height="11" rx="2.5" fill="#161b22" style="animation-delay:1520ms"/>
<rect class="c" x="296" y="34" width="11" height="11" rx="2.5" fill="#0e4429" style="animation-delay:1535ms"/>
<rect class="c" x="296" y="48" width="11" height="11" rx="2.5" fill="#161b22" style="animation-delay:1550ms"/>
<rect class="c" x="296" y="62" width="11" height="11" rx="2.5" fill="#0e4429" style="animation-delay:1565ms"/>
<rect class="c" x="296" y="76" width="11" height="11" rx="2.5" fill="#0e4429" style="animation-delay:1580ms"/>
<rect class="c" x="296" y="90" width="11" height="11" rx="2.5" fill="#006d32" style="animation-delay:1595ms"/>
<rect class="c" x="296" y="104" width="11" height="11" rx="2.5" fill="#161b22" style="animation-delay:1610ms"/>
<rect class="c" x="310" y="20" width="11" height="11" rx="2.5" fill="#161b22" style="animation-delay:1600ms"/>
<rect class="c" x="310" y="34" width="11" height="11" rx="2.5" fill="#161b22" style="animation-delay:1615ms"/>
<rect class="c" x="310" y="48" width="11" height="11" rx="2.5" fill="#0e4429" style="animation-delay:1630ms"/>
<rect class="c" x="310" y="62" width="11" height="11" rx="2.5" fill="#006d32" style="animation-delay:1645ms"/>
<rect class="c" x="310" y="76" width="11" height="11" rx="2.5" fill="#0e4429" style="animation-delay:1660ms"/>
<rect class="c" x="310" y="90" width="11" height="11" rx="2.5" fill="#39d353" style="animation-delay:1675ms"/>
<rect class="c" x="310" y="104" width="11" height="11" rx="2.5" fill="#161b22" style="animation-delay:1690ms"/>
<rect class="c" x="324" y="20" width="11" height="11" rx="2.5" fill="#161b22" style="animation-delay:1680ms"/>
<rect class="c" x="324" y="34" width="11" height="11" rx="2.5" fill="#26a641" style="animation-delay:1695ms"/>
<rect class="c" x="324" y="48" width="11" height="11" rx="2.5" fill="#39d353" style="animation-delay:1710ms"/>
<rect class="c" x="324" y="62" width="11" height="11" rx="2.5" fill="#26a641" style="animation-delay:1725ms"/>
<rect class="c" x="324" y="76" width="11" height="11" rx="2.5" fill="#0e4429" style="animation-delay:1740ms"/>
<rect class="c" x="324" y="90" width="11" height="11" rx="2.5" fill="#39d353" style="animation-delay:1755ms"/>
<rect class="c" x="324" y="104" width="11" height="11" rx="2.5" fill="#0e4429" style="animation-delay:1770ms"/>
<rect class="c" x="338" y="20" width="11" height="11" rx="2.5" fill="#0e4429" style="animation-delay:1760ms"/>
<rect class="c" x="338" y="34" width="11" height="11" rx="2.5" fill="#0e4429" style="animation-delay:1775ms"/>
<rect class="c" x="338" y="48" width="11" height="11" rx="2.5" fill="#39d353" style="animation-delay:1790ms"/>
<rect class="c" x="338" y="62" width="11" height="11" rx="2.5" fill="#26a641" style="animation-delay:1805ms"/>
<rect class="c" x="338" y="76" width="11" height="11" rx="2.5" fill="#006d32" style="animation-delay:1820ms"/>
<rect class="c" x="338" y="90" width="11" height="11" rx="2.5" fill="#39d353" style="animation-delay:1835ms"/>
<rect class="c" x="338" y="104" width="11" height="11" rx="2.5" fill="#0e4429" style="animation-delay:1850ms"/>
<rect class="c" x="352" y="20" width="11" height="11" rx="2.5" fill="#161b22" style="animation-delay:1840ms"/>
<rect class="c" x="352" y="34" width="11" height="11" rx="2.5" fill="#0e4429" style="animation-delay:1855ms"/>
<rect class="c" x="352" y="48" width="11" height="11" rx="2.5" fill="#39d353" style="animation-delay:1870ms"/>
<rect class="c" x="352" y="62" width="11" height="11" rx="2.5" fill="#39d353" style="animation-delay:1885ms"/>
<rect class="c" x="352" y="76" width="11" height="11" rx="2.5" fill="#006d32" style="animation-delay:1900ms"/>
<rect class="c" x="352" y="90" width="11" height="11" rx="2.5" fill="#39d353" style="animation-delay:1915ms"/>
<rect class="c" x="352" y="104" width="11" height="11" rx="2.5" fill="#0e4429" style="animation-delay:1930ms"/>
<rect class="c" x="366" y="20" width="11" height="11" rx="2.5" fill="#26a641" style="animation-delay:1920ms"/>
<rect class="c" x="366" y="34" width="11" height="11" rx="2.5" fill="#0e4429" style="animation-delay:1935ms"/>
<rect class="c" x="366" y="48" width="11" height="11" rx="2.5" fill="#0e4429" style="animation-delay:1950ms"/>
<rect class="c" x="366" y="62" width="11" height="11" rx="2.5" fill="#0e4429" style="animation-delay:1965ms"/>
<rect class="c" x="366" y="76" width="11" height="11" rx="2.5" fill="#0e4429" style="animation-delay:1980ms"/>
<rect class="c" x="366" y="90" width="11" height="11" rx="2.5" fill="#26a641" style="animation-delay:1995ms"/>
<rect class="c" x="366" y="104" width="11" height="11" rx="2.5" fill="#161b22" style="animation-delay:2010ms"/>
<rect class="c" x="380" y="20" width="11" height="11" rx="2.5" fill="#161b22" style="animation-delay:2000ms"/>
<rect class="c" x="380" y="34" width="11" height="11" rx="2.5" fill="#0e4429" style="animation-delay:2015ms"/>
<rect class="c" x="380" y="48" width="11" height="11" rx="2.5" fill="#0e4429" style="animation-delay:2030ms"/>
<rect class="c" x="380" y="62" width="11" height="11" rx="2.5" fill="#0e4429" style="animation-delay:2045ms"/>
<rect class="c" x="380" y="76" width="11" height="11" rx="2.5" fill="#0e4429" style="animation-delay:2060ms"/>
<rect class="c" x="380" y="90" width="11" height="11" rx="2.5" fill="#006d32" style="animation-delay:2075ms"/>
<rect class="c" x="380" y="104" width="11" height="11" rx="2.5" fill="#161b22" style="animation-delay:2090ms"/>
<rect class="c" x="394" y="20" width="11" height="11" rx="2.5" fill="#161b22" style="animation-delay:2080ms"/>
<rect class="c" x="394" y="34" width="11" height="11" rx="2.5" fill="#0e4429" style="animation-delay:2095ms"/>
<rect class="c" x="394" y="48" width="11" height="11" rx="2.5" fill="#0e4429" style="animation-delay:2110ms"/>
<rect class="c" x="394" y="62" width="11" height="11" rx="2.5" fill="#0e4429" style="animation-delay:2125ms"/>
<rect class="c" x="394" y="76" width="11" height="11" rx="2.5" fill="#0e4429" style="animation-delay:2140ms"/>
<rect class="c" x="394" y="90" width="11" height="11" rx="2.5" fill="#006d32" style="animation-delay:2155ms"/>
<rect class="c" x="394" y="104" width="11" height="11" rx="2.5" fill="#161b22" style="animation-delay:2170ms"/>
<rect class="c" x="408" y="20" width="11" height="11" rx="2.5" fill="#161b22" style="animation-delay:2160ms"/>
<rect class="c" x="408" y="34" width="11" height="11" rx="2.5" fill="#0e4429" style="animation-delay:2175ms"/>
<rect class="c" x="408" y="48" width="11" height="11" rx="2.5" fill="#0e4429" style="animation-delay:2190ms"/>
<rect class="c" x="408" y="62" width="11" height="11" rx="2.5" fill="#0e4429" style="animation-delay:2205ms"/>
<rect class="c" x="408" y="76" width="11" height="11" rx="2.5" fill="#006d32" style="animation-delay:2220ms"/>
<rect class="c" x="408" y="90" width="11" height="11" rx="2.5" fill="#0e4429" style="animation-delay:2235ms"/>
<rect class="c" x="408" y="104" width="11" height="11" rx="2.5" fill="#161b22" style="animation-delay:2250ms"/>
<rect class="c" x="422" y="20" width="11" height="11" rx="2.5" fill="#161b22" style="animation-delay:2240ms"/>
<rect class="c" x="422" y="34" width="11" height="11" rx="2.5" fill="#0e4429" style="animation-delay:2255ms"/>
<rect class="c" x="422" y="48" width="11" height="11" rx="2.5" fill="#0e4429" style="animation-delay:2270ms"/>
<rect class="c" x="422" y="62" width="11" height="11" rx="2.5" fill="#26a641" style="animation-delay:2285ms"/>
<rect class="c" x="422" y="76" width="11" height="11" rx="2.5" fill="#006d32" style="animation-delay:2300ms"/>
<rect class="c" x="422" y="90" width="11" height="11" rx="2.5" fill="#006d32" style="animation-delay:2315ms"/>
<rect class="c" x="422" y="104" width="11" height="11" rx="2.5" fill="#0e4429" style="animation-delay:2330ms"/>
<rect class="c" x="436" y="20" width="11" height="11" rx="2.5" fill="#0e4429" style="animation-delay:2320ms"/>
<rect class="c" x="436" y="34" width="11" height="11" rx="2.5" fill="#0e4429" style="animation-delay:2335ms"/>
<rect class="c" x="436" y="48" width="11" height="11" rx="2.5" fill="#006d32" style="animation-delay:2350ms"/>
<rect class="c" x="436" y="62" width="11" height="11" rx="2.5" fill="#39d353" style="animation-delay:2365ms"/>
<text class="t" x="30" y="132">674 contributions in 2026</text>
<text class="t" x="317" y="132">less</text>
<rect class="c" x="347" y="123" width="11" height="11" rx="2.5" fill="#161b22" style="animation-delay:3290ms"/>
<rect class="c" x="361" y="123" width="11" height="11" rx="2.5" fill="#0e4429" style="animation-delay:3290ms"/>
<rect class="c" x="375" y="123" width="11" height="11" rx="2.5" fill="#006d32" style="animation-delay:3290ms"/>
<rect class="c" x="389" y="123" width="11" height="11" rx="2.5" fill="#26a641" style="animation-delay:3290ms"/>
<rect class="c" x="403" y="123" width="11" height="11" rx="2.5" fill="#39d353" style="animation-delay:3290ms"/>
<text class="t" x="421" y="132">more</text>
</svg>
