<svg xmlns="http://www.w3.org/2000/svg" width="457" height="141" viewBox="0 0 457 141">
<style>
.c {
  opacity: 0;
  transform-box: fill-box;
  transform-origin: center;
  animation: rise 1s cubic-bezier(.22,.61,.36,1) both;
}
.t {
  opacity: 0;
  animation: fade .6s ease-out both;
  animation-delay: 8320ms;
  font-family: ui-monospace, SFMono-Regular, Menlo, monospace;
  font-size: 10px;
  fill: #57606a;
}
.lbl {
  font-family: ui-monospace, SFMono-Regular, Menlo, monospace;
  font-size: 9px;
  fill: #57606a;
}
@keyframes rise {
  from { opacity: 0; transform: translateY(8px) scale(.5); }
  to   { opacity: 1; transform: none; }
}
@keyframes fade {
  from { opacity: 0; }
  to   { opacity: 1; }
}
@media (prefers-reduced-motion: reduce) {
  .c, .t { animation: none; opacity: 1; }
}
</style>
<text class="lbl" x="30" y="12">jan</text>
<text class="lbl" x="100" y="12">feb</text>
<text class="lbl" x="156" y="12">mar</text>
<text class="lbl" x="226" y="12">apr</text>
<text class="lbl" x="282" y="12">may</text>
<text class="lbl" x="352" y="12">jun</text>
<text class="lbl" x="408" y="12">jul</text>
<text class="lbl" x="0" y="43">mon</text>
<text class="lbl" x="0" y="71">wed</text>
<text class="lbl" x="0" y="99">fri</text>
<rect class="c" x="30" y="76" width="11" height="11" rx="2.5" fill="#ebedf0" style="animation-delay:80ms"/>
<rect class="c" x="30" y="90" width="11" height="11" rx="2.5" fill="#ebedf0" style="animation-delay:100ms"/>
<rect class="c" x="30" y="104" width="11" height="11" rx="2.5" fill="#ebedf0" style="animation-delay:120ms"/>
<rect class="c" x="44" y="20" width="11" height="11" rx="2.5" fill="#ebedf0" style="animation-delay:240ms"/>
<rect class="c" x="44" y="34" width="11" height="11" rx="2.5" fill="#ebedf0" style="animation-delay:260ms"/>
<rect class="c" x="44" y="48" width="11" height="11" rx="2.5" fill="#ebedf0" style="animation-delay:280ms"/>
<rect class="c" x="44" y="62" width="11" height="11" rx="2.5" fill="#ebedf0" style="animation-delay:300ms"/>
<rect class="c" x="44" y="76" width="11" height="11" rx="2.5" fill="#ebedf0" style="animation-delay:320ms"/>
<rect class="c" x="44" y="90" width="11" height="11" rx="2.5" fill="#ebedf0" style="animation-delay:340ms"/>
<rect class="c" x="44" y="104" width="11" height="11" rx="2.5" fill="#ebedf0" style="animation-delay:360ms"/>
<rect class="c" x="58" y="20" width="11" height="11" rx="2.5" fill="#ebedf0" style="animation-delay:480ms"/>
<rect class="c" x="58" y="34" width="11" height="11" rx="2.5" fill="#ebedf0" style="animation-delay:500ms"/>
<rect class="c" x="58" y="48" width="11" height="11" rx="2.5" fill="#ebedf0" style="animation-delay:520ms"/>
<rect class="c" x="58" y="62" width="11" height="11" rx="2.5" fill="#ebedf0" style="animation-delay:540ms"/>
<rect class="c" x="58" y="76" width="11" height="11" rx="2.5" fill="#ebedf0" style="animation-delay:560ms"/>
<rect class="c" x="58" y="90" width="11" height="11" rx="2.5" fill="#ebedf0" style="animation-delay:580ms"/>
<rect class="c" x="58" y="104" width="11" height="11" rx="2.5" fill="#ebedf0" style="animation-delay:600ms"/>
<rect class="c" x="72" y="20" width="11" height="11" rx="2.5" fill="#ebedf0" style="animation-delay:720ms"/>
<rect class="c" x="72" y="34" width="11" height="11" rx="2.5" fill="#ebedf0" style="animation-delay:740ms"/>
<rect class="c" x="72" y="48" width="11" height="11" rx="2.5" fill="#ebedf0" style="animation-delay:760ms"/>
<rect class="c" x="72" y="62" width="11" height="11" rx="2.5" fill="#ebedf0" style="animation-delay:780ms"/>
<rect class="c" x="72" y="76" width="11" height="11" rx="2.5" fill="#ebedf0" style="animation-delay:800ms"/>
<rect class="c" x="72" y="90" width="11" height="11" rx="2.5" fill="#ebedf0" style="animation-delay:820ms"/>
<rect class="c" x="72" y="104" width="11" height="11" rx="2.5" fill="#ebedf0" style="animation-delay:840ms"/>
<rect class="c" x="86" y="20" width="11" height="11" rx="2.5" fill="#ebedf0" style="animation-delay:960ms"/>
<rect class="c" x="86" y="34" width="11" height="11" rx="2.5" fill="#ebedf0" style="animation-delay:980ms"/>
<rect class="c" x="86" y="48" width="11" height="11" rx="2.5" fill="#ebedf0" style="animation-delay:1000ms"/>
<rect class="c" x="86" y="62" width="11" height="11" rx="2.5" fill="#ebedf0" style="animation-delay:1020ms"/>
<rect class="c" x="86" y="76" width="11" height="11" rx="2.5" fill="#ebedf0" style="animation-delay:1040ms"/>
<rect class="c" x="86" y="90" width="11" height="11" rx="2.5" fill="#ebedf0" style="animation-delay:1060ms"/>
<rect class="c" x="86" y="104" width="11" height="11" rx="2.5" fill="#ebedf0" style="animation-delay:1080ms"/>
<rect class="c" x="100" y="20" width="11" height="11" rx="2.5" fill="#ebedf0" style="animation-delay:1200ms"/>
<rect class="c" x="100" y="34" width="11" height="11" rx="2.5" fill="#ebedf0" style="animation-delay:1220ms"/>
<rect class="c" x="100" y="48" width="11" height="11" rx="2.5" fill="#ebedf0" style="animation-delay:1240ms"/>
<rect class="c" x="100" y="62" width="11" height="11" rx="2.5" fill="#ebedf0" style="animation-delay:1260ms"/>
<rect class="c" x="100" y="76" width="11" height="11" rx="2.5" fill="#ebedf0" style="animation-delay:1280ms"/>
<rect class="c" x="100" y="90" width="11" height="11" rx="2.5" fill="#ebedf0" style="animation-delay:1300ms"/>
<rect class="c" x="100" y="104" width="11" height="11" rx="2.5" fill="#ebedf0" style="animation-delay:1320ms"/>
<rect class="c" x="114" y="20" width="11" height="11" rx="2.5" fill="#ebedf0" style="animation-delay:1440ms"/>
<rect class="c" x="114" y="34" width="11" height="11" rx="2.5" fill="#ebedf0" style="animation-delay:1460ms"/>
<rect class="c" x="114" y="48" width="11" height="11" rx="2.5" fill="#ebedf0" style="animation-delay:1480ms"/>
<rect class="c" x="114" y="62" width="11" height="11" rx="2.5" fill="#ebedf0" style="animation-delay:1500ms"/>
<rect class="c" x="114" y="76" width="11" height="11" rx="2.5" fill="#ebedf0" style="animation-delay:1520ms"/>
<rect class="c" x="114" y="90" width="11" height="11" rx="2.5" fill="#ebedf0" style="animation-delay:1540ms"/>
<rect class="c" x="114" y="104" width="11" height="11" rx="2.5" fill="#ebedf0" style="animation-delay:1560ms"/>
<rect class="c" x="128" y="20" width="11" height="11" rx="2.5" fill="#ebedf0" style="animation-delay:1680ms"/>
<rect class="c" x="128" y="34" width="11" height="11" rx="2.5" fill="#ebedf0" style="animation-delay:1700ms"/>
<rect class="c" x="128" y="48" width="11" height="11" rx="2.5" fill="#ebedf0" style="animation-delay:1720ms"/>
<rect class="c" x="128" y="62" width="11" height="11" rx="2.5" fill="#ebedf0" style="animation-delay:1740ms"/>
<rect class="c" x="128" y="76" width="11" height="11" rx="2.5" fill="#ebedf0" style="animation-delay:1760ms"/>
<rect class="c" x="128" y="90" width="11" height="11" rx="2.5" fill="#ebedf0" style="animation-delay:1780ms"/>
<rect class="c" x="128" y="104" width="11" height="11" rx="2.5" fill="#ebedf0" style="animation-delay:1800ms"/>
<rect class="c" x="142" y="20" width="11" height="11" rx="2.5" fill="#ebedf0" style="animation-delay:1920ms"/>
<rect class="c" x="142" y="34" width="11" height="11" rx="2.5" fill="#ebedf0" style="animation-delay:1940ms"/>
<rect class="c" x="142" y="48" width="11" height="11" rx="2.5" fill="#ebedf0" style="animation-delay:1960ms"/>
<rect class="c" x="142" y="62" width="11" height="11" rx="2.5" fill="#ebedf0" style="animation-delay:1980ms"/>
<rect class="c" x="142" y="76" width="11" height="11" rx="2.5" fill="#ebedf0" style="animation-delay:2000ms"/>
<rect class="c" x="142" y="90" width="11" height="11" rx="2.5" fill="#ebedf0" style="animation-delay:2020ms"/>
<rect class="c" x="142" y="104" width="11" height="11" rx="2.5" fill="#ebedf0" style="animation-delay:2040ms"/>
<rect class="c" x="156" y="20" width="11" height="11" rx="2.5" fill="#ebedf0" style="animation-delay:2160ms"/>
<rect class="c" x="156" y="34" width="11" height="11" rx="2.5" fill="#ebedf0" style="animation-delay:2180ms"/>
<rect class="c" x="156" y="48" width="11" height="11" rx="2.5" fill="#ebedf0" style="animation-delay:2200ms"/>
<rect class="c" x="156" y="62" width="11" height="11" rx="2.5" fill="#ebedf0" style="animation-delay:2220ms"/>
<rect class="c" x="156" y="76" width="11" height="11" rx="2.5" fill="#ebedf0" style="animation-delay:2240ms"/>
<rect class="c" x="156" y="90" width="11" height="11" rx="2.5" fill="#ebedf0" style="animation-delay:2260ms"/>
<rect class="c" x="156" y="104" width="11" height="11" rx="2.5" fill="#ebedf0" style="animation-delay:2280ms"/>
<rect class="c" x="170" y="20" width="11" height="11" rx="2.5" fill="#ebedf0" style="animation-delay:2400ms"/>
<rect class="c" x="170" y="34" width="11" height="11" rx="2.5" fill="#ebedf0" style="animation-delay:2420ms"/>
<rect class="c" x="170" y="48" width="11" height="11" rx="2.5" fill="#ebedf0" style="animation-delay:2440ms"/>
<rect class="c" x="170" y="62" width="11" height="11" rx="2.5" fill="#ebedf0" style="animation-delay:2460ms"/>
<rect class="c" x="170" y="76" width="11" height="11" rx="2.5" fill="#ebedf0" style="animation-delay:2480ms"/>
<rect class="c" x="170" y="90" width="11" height="11" rx="2.5" fill="#ebedf0" style="animation-delay:2500ms"/>
<rect class="c" x="170" y="104" width="11" height="11" rx="2.5" fill="#ebedf0" style="animation-delay:2520ms"/>
<rect class="c" x="184" y="20" width="11" height="11" rx="2.5" fill="#ebedf0" style="animation-delay:2640ms"/>
<rect class="c" x="184" y="34" width="11" height="11" rx="2.5" fill="#40c463" style="animation-delay:2660ms"/>
<rect class="c" x="184" y="48" width="11" height="11" rx="2.5" fill="#ebedf0" style="animation-delay:2680ms"/>
<rect class="c" x="184" y="62" width="11" height="11" rx="2.5" fill="#ebedf0" style="animation-delay:2700ms"/>
<rect class="c" x="184" y="76" width="11" height="11" rx="2.5" fill="#ebedf0" style="animation-delay:2720ms"/>
<rect class="c" x="184" y="90" width="11" height="11" rx="2.5" fill="#ebedf0" style="animation-delay:2740ms"/>
<rect class="c" x="184" y="104" width="11" height="11" rx="2.5" fill="#ebedf0" style="animation-delay:2760ms"/>
<rect class="c" x="198" y="20" width="11" height="11" rx="2.5" fill="#ebedf0" style="animation-delay:2880ms"/>
<rect class="c" x="198" y="34" width="11" height="11" rx="2.5" fill="#40c463" style="animation-delay:2900ms"/>
<rect class="c" x="198" y="48" width="11" height="11" rx="2.5" fill="#9be9a8" style="animation-delay:2920ms"/>
<rect class="c" x="198" y="62" width="11" height="11" rx="2.5" fill="#ebedf0" style="animation-delay:2940ms"/>
<rect class="c" x="198" y="76" width="11" height="11" rx="2.5" fill="#ebedf0" style="animation-delay:2960ms"/>
<rect class="c" x="198" y="90" width="11" height="11" rx="2.5" fill="#ebedf0" style="animation-delay:2980ms"/>
<rect class="c" x="198" y="104" width="11" height="11" rx="2.5" fill="#ebedf0" style="animation-delay:3000ms"/>
<rect class="c" x="212" y="20" width="11" height="11" rx="2.5" fill="#ebedf0" style="animation-delay:3120ms"/>
<rect class="c" x="212" y="34" width="11" height="11" rx="2.5" fill="#9be9a8" style="animation-delay:3140ms"/>
<rect class="c" x="212" y="48" width="11" height="11" rx="2.5" fill="#ebedf0" style="animation-delay:3160ms"/>
<rect class="c" x="212" y="62" width="11" height="11" rx="2.5" fill="#ebedf0" style="animation-delay:3180ms"/>
<rect class="c" x="212" y="76" width="11" height="11" rx="2.5" fill="#ebedf0" style="animation-delay:3200ms"/>
<rect class="c" x="212" y="90" width="11" height="11" rx="2.5" fill="#ebedf0" style="animation-delay:3220ms"/>
<rect class="c" x="212" y="104" width="11" height="11" rx="2.5" fill="#ebedf0" style="animation-delay:3240ms"/>
<rect class="c" x="226" y="20" width="11" height="11" rx="2.5" fill="#ebedf0" style="animation-delay:3360ms"/>
<rect class="c" x="226" y="34" width="11" height="11" rx="2.5" fill="#ebedf0" style="animation-delay:3380ms"/>
<rect class="c" x="226" y="48" width="11" height="11" rx="2.5" fill="#ebedf0" style="animation-delay:3400ms"/>
<rect class="c" x="226" y="62" width="11" height="11" rx="2.5" fill="#ebedf0" style="animation-delay:3420ms"/>
<rect class="c" x="226" y="76" width="11" height="11" rx="2.5" fill="#ebedf0" style="animation-delay:3440ms"/>
<rect class="c" x="226" y="90" width="11" height="11" rx="2.5" fill="#ebedf0" style="animation-delay:3460ms"/>
<rect class="c" x="226" y="104" width="11" height="11" rx="2.5" fill="#ebedf0" style="animation-delay:3480ms"/>
<rect class="c" x="240" y="20" width="11" height="11" rx="2.5" fill="#ebedf0" style="animation-delay:3600ms"/>
<rect class="c" x="240" y="34" width="11" height="11" rx="2.5" fill="#ebedf0" style="animation-delay:3620ms"/>
<rect class="c" x="240" y="48" width="11" height="11" rx="2.5" fill="#ebedf0" style="animation-delay:3640ms"/>
<rect class="c" x="240" y="62" width="11" height="11" rx="2.5" fill="#ebedf0" style="animation-delay:3660ms"/>
<rect class="c" x="240" y="76" width="11" height="11" rx="2.5" fill="#ebedf0" style="animation-delay:3680ms"/>
<rect class="c" x="240" y="90" width="11" height="11" rx="2.5" fill="#ebedf0" style="animation-delay:3700ms"/>
<rect class="c" x="240" y="104" width="11" height="11" rx="2.5" fill="#9be9a8" style="animation-delay:3720ms"/>
<rect class="c" x="254" y="20" width="11" height="11" rx="2.5" fill="#ebedf0" style="animation-delay:3840ms"/>
<rect class="c" x="254" y="34" width="11" height="11" rx="2.5" fill="#ebedf0" style="animation-delay:3860ms"/>
<rect class="c" x="254" y="48" width="11" height="11" rx="2.5" fill="#9be9a8" style="animation-delay:3880ms"/>
<rect class="c" x="254" y="62" width="11" height="11" rx="2.5" fill="#ebedf0" style="animation-delay:3900ms"/>
<rect class="c" x="254" y="76" width="11" height="11" rx="2.5" fill="#ebedf0" style="animation-delay:3920ms"/>
<rect class="c" x="254" y="90" width="11" height="11" rx="2.5" fill="#ebedf0" style="animation-delay:3940ms"/>
<rect class="c" x="254" y="104" width="11" height="11" rx="2.5" fill="#9be9a8" style="animation-delay:3960ms"/>
<rect class="c" x="268" y="20" width="11" height="11" rx="2.5" fill="#ebedf0" style="animation-delay:4080ms"/>
<rect class="c" x="268" y="34" width="11" height="11" rx="2.5" fill="#9be9a8" style="animation-delay:4100ms"/>
<rect class="c" x="268" y="48" width="11" height="11" rx="2.5" fill="#40c463" style="animation-delay:4120ms"/>
<rect class="c" x="268" y="62" width="11" height="11" rx="2.5" fill="#9be9a8" style="animation-delay:4140ms"/>
<rect class="c" x="268" y="76" width="11" height="11" rx="2.5" fill="#9be9a8" style="animation-delay:4160ms"/>
<rect class="c" x="268" y="90" width="11" height="11" rx="2.5" fill="#9be9a8" style="animation-delay:4180ms"/>
<rect class="c" x="268" y="104" width="11" height="11" rx="2.5" fill="#9be9a8" style="animation-delay:4200ms"/>
<rect class="c" x="282" y="20" width="11" height="11" rx="2.5" fill="#ebedf0" style="animation-delay:4320ms"/>
<rect class="c" x="282" y="34" width="11" height="11" rx="2.5" fill="#ebedf0" style="animation-delay:4340ms"/>
<rect class="c" x="282" y="48" width="11" height="11" rx="2.5" fill="#ebedf0" style="animation-delay:4360ms"/>
<rect class="c" x="282" y="62" width="11" height="11" rx="2.5" fill="#9be9a8" style="animation-delay:4380ms"/>
<rect class="c" x="282" y="76" width="11" height="11" rx="2.5" fill="#9be9a8" style="animation-delay:4400ms"/>
<rect class="c" x="282" y="90" width="11" height="11" rx="2.5" fill="#9be9a8" style="animation-delay:4420ms"/>
<rect class="c" x="282" y="104" width="11" height="11" rx="2.5" fill="#ebedf0" style="animation-delay:4440ms"/>
<rect class="c" x="296" y="20" width="11" height="11" rx="2.5" fill="#ebedf0" style="animation-delay:4560ms"/>
<rect class="c" x="296" y="34" width="11" height="11" rx="2.5" fill="#9be9a8" style="animation-delay:4580ms"/>
<rect class="c" x="296" y="48" width="11" height="11" rx="2.5" fill="#ebedf0" style="animation-delay:4600ms"/>
<rect class="c" x="296" y="62" width="11" height="11" rx="2.5" fill="#9be9a8" style="animation-delay:4620ms"/>
<rect class="c" x="296" y="76" width="11" height="11" rx="2.5" fill="#9be9a8" style="animation-delay:4640ms"/>
<rect class="c" x="296" y="90" width="11" height="11" rx="2.5" fill="#40c463" style="animation-delay:4660ms"/>
<rect class="c" x="296" y="104" width="11" height="11" rx="2.5" fill="#ebedf0" style="animation-delay:4680ms"/>
<rect class="c" x="310" y="20" width="11" height="11" rx="2.5" fill="#ebedf0" style="animation-delay:4800ms"/>
<rect class="c" x="310" y="34" width="11" height="11" rx="2.5" fill="#ebedf0" style="animation-delay:4820ms"/>
<rect class="c" x="310" y="48" width="11" height="11" rx="2.5" fill="#9be9a8" style="animation-delay:4840ms"/>
<rect class="c" x="310" y="62" width="11" height="11" rx="2.5" fill="#40c463" style="animation-delay:4860ms"/>
<rect class="c" x="310" y="76" width="11" height="11" rx="2.5" fill="#9be9a8" style="animation-delay:4880ms"/>
<rect class="c" x="310" y="90" width="11" height="11" rx="2.5" fill="#216e39" style="animation-delay:4900ms"/>
<rect class="c" x="310" y="104" width="11" height="11" rx="2.5" fill="#ebedf0" style="animation-delay:4920ms"/>
<rect class="c" x="324" y="20" width="11" height="11" rx="2.5" fill="#ebedf0" style="animation-delay:5040ms"/>
<rect class="c" x="324" y="34" width="11" height="11" rx="2.5" fill="#30a14e" style="animation-delay:5060ms"/>
<rect class="c" x="324" y="48" width="11" height="11" rx="2.5" fill="#216e39" style="animation-delay:5080ms"/>
<rect class="c" x="324" y="62" width="11" height="11" rx="2.5" fill="#30a14e" style="animation-delay:5100ms"/>
<rect class="c" x="324" y="76" width="11" height="11" rx="2.5" fill="#9be9a8" style="animation-delay:5120ms"/>
<rect class="c" x="324" y="90" width="11" height="11" rx="2.5" fill="#216e39" style="animation-delay:5140ms"/>
<rect class="c" x="324" y="104" width="11" height="11" rx="2.5" fill="#9be9a8" style="animation-delay:5160ms"/>
<rect class="c" x="338" y="20" width="11" height="11" rx="2.5" fill="#9be9a8" style="animation-delay:5280ms"/>
<rect class="c" x="338" y="34" width="11" height="11" rx="2.5" fill="#9be9a8" style="animation-delay:5300ms"/>
<rect class="c" x="338" y="48" width="11" height="11" rx="2.5" fill="#216e39" style="animation-delay:5320ms"/>
<rect class="c" x="338" y="62" width="11" height="11" rx="2.5" fill="#30a14e" style="animation-delay:5340ms"/>
<rect class="c" x="338" y="76" width="11" height="11" rx="2.5" fill="#40c463" style="animation-delay:5360ms"/>
<rect class="c" x="338" y="90" width="11" height="11" rx="2.5" fill="#216e39" style="animation-delay:5380ms"/>
<rect class="c" x="338" y="104" width="11" height="11" rx="2.5" fill="#9be9a8" style="animation-delay:5400ms"/>
<rect class="c" x="352" y="20" width="11" height="11" rx="2.5" fill="#ebedf0" style="animation-delay:5520ms"/>
<rect class="c" x="352" y="34" width="11" height="11" rx="2.5" fill="#9be9a8" style="animation-delay:5540ms"/>
<rect class="c" x="352" y="48" width="11" height="11" rx="2.5" fill="#216e39" style="animation-delay:5560ms"/>
<rect class="c" x="352" y="62" width="11" height="11" rx="2.5" fill="#216e39" style="animation-delay:5580ms"/>
<rect class="c" x="352" y="76" width="11" height="11" rx="2.5" fill="#40c463" style="animation-delay:5600ms"/>
<rect class="c" x="352" y="90" width="11" height="11" rx="2.5" fill="#216e39" style="animation-delay:5620ms"/>
<rect class="c" x="352" y="104" width="11" height="11" rx="2.5" fill="#9be9a8" style="animation-delay:5640ms"/>
<rect class="c" x="366" y="20" width="11" height="11" rx="2.5" fill="#30a14e" style="animation-delay:5760ms"/>
<rect class="c" x="366" y="34" width="11" height="11" rx="2.5" fill="#9be9a8" style="animation-delay:5780ms"/>
<rect class="c" x="366" y="48" width="11" height="11" rx="2.5" fill="#9be9a8" style="animation-delay:5800ms"/>
<rect class="c" x="366" y="62" width="11" height="11" rx="2.5" fill="#9be9a8" style="animation-delay:5820ms"/>
<rect class="c" x="366" y="76" width="11" height="11" rx="2.5" fill="#9be9a8" style="animation-delay:5840ms"/>
<rect class="c" x="366" y="90" width="11" height="11" rx="2.5" fill="#30a14e" style="animation-delay:5860ms"/>
<rect class="c" x="366" y="104" width="11" height="11" rx="2.5" fill="#ebedf0" style="animation-delay:5880ms"/>
<rect class="c" x="380" y="20" width="11" height="11" rx="2.5" fill="#ebedf0" style="animation-delay:6000ms"/>
<rect class="c" x="380" y="34" width="11" height="11" rx="2.5" fill="#9be9a8" style="animation-delay:6020ms"/>
<rect class="c" x="380" y="48" width="11" height="11" rx="2.5" fill="#9be9a8" style="animation-delay:6040ms"/>
<rect class="c" x="380" y="62" width="11" height="11" rx="2.5" fill="#9be9a8" style="animation-delay:6060ms"/>
<rect class="c" x="380" y="76" width="11" height="11" rx="2.5" fill="#9be9a8" style="animation-delay:6080ms"/>
<rect class="c" x="380" y="90" width="11" height="11" rx="2.5" fill="#40c463" style="animation-delay:6100ms"/>
<rect class="c" x="380" y="104" width="11" height="11" rx="2.5" fill="#ebedf0" style="animation-delay:6120ms"/>
<rect class="c" x="394" y="20" width="11" height="11" rx="2.5" fill="#ebedf0" style="animation-delay:6240ms"/>
<rect class="c" x="394" y="34" width="11" height="11" rx="2.5" fill="#9be9a8" style="animation-delay:6260ms"/>
<rect class="c" x="394" y="48" width="11" height="11" rx="2.5" fill="#9be9a8" style="animation-delay:6280ms"/>
<rect class="c" x="394" y="62" width="11" height="11" rx="2.5" fill="#9be9a8" style="animation-delay:6300ms"/>
<rect class="c" x="394" y="76" width="11" height="11" rx="2.5" fill="#9be9a8" style="animation-delay:6320ms"/>
<rect class="c" x="394" y="90" width="11" height="11" rx="2.5" fill="#40c463" style="animation-delay:6340ms"/>
<rect class="c" x="394" y="104" width="11" height="11" rx="2.5" fill="#ebedf0" style="animation-delay:6360ms"/>
<rect class="c" x="408" y="20" width="11" height="11" rx="2.5" fill="#ebedf0" style="animation-delay:6480ms"/>
<rect class="c" x="408" y="34" width="11" height="11" rx="2.5" fill="#9be9a8" style="animation-delay:6500ms"/>
<rect class="c" x="408" y="48" width="11" height="11" rx="2.5" fill="#9be9a8" style="animation-delay:6520ms"/>
<rect class="c" x="408" y="62" width="11" height="11" rx="2.5" fill="#9be9a8" style="animation-delay:6540ms"/>
<rect class="c" x="408" y="76" width="11" height="11" rx="2.5" fill="#40c463" style="animation-delay:6560ms"/>
<rect class="c" x="408" y="90" width="11" height="11" rx="2.5" fill="#9be9a8" style="animation-delay:6580ms"/>
<rect class="c" x="408" y="104" width="11" height="11" rx="2.5" fill="#ebedf0" style="animation-delay:6600ms"/>
<rect class="c" x="422" y="20" width="11" height="11" rx="2.5" fill="#ebedf0" style="animation-delay:6720ms"/>
<rect class="c" x="422" y="34" width="11" height="11" rx="2.5" fill="#9be9a8" style="animation-delay:6740ms"/>
<rect class="c" x="422" y="48" width="11" height="11" rx="2.5" fill="#9be9a8" style="animation-delay:6760ms"/>
<rect class="c" x="422" y="62" width="11" height="11" rx="2.5" fill="#30a14e" style="animation-delay:6780ms"/>
<rect class="c" x="422" y="76" width="11" height="11" rx="2.5" fill="#40c463" style="animation-delay:6800ms"/>
<rect class="c" x="422" y="90" width="11" height="11" rx="2.5" fill="#40c463" style="animation-delay:6820ms"/>
<rect class="c" x="422" y="104" width="11" height="11" rx="2.5" fill="#9be9a8" style="animation-delay:6840ms"/>
<rect class="c" x="436" y="20" width="11" height="11" rx="2.5" fill="#9be9a8" style="animation-delay:6960ms"/>
<rect class="c" x="436" y="34" width="11" height="11" rx="2.5" fill="#9be9a8" style="animation-delay:6980ms"/>
<rect class="c" x="436" y="48" width="11" height="11" rx="2.5" fill="#40c463" style="animation-delay:7000ms"/>
<rect class="c" x="436" y="62" width="11" height="11" rx="2.5" fill="#216e39" style="animation-delay:7020ms"/>
<text class="t" x="30" y="132">677 contributions in 2026</text>
<text class="t" x="317" y="132">less</text>
<rect class="c" x="347" y="123" width="11" height="11" rx="2.5" fill="#ebedf0" style="animation-delay:8320ms"/>
<rect class="c" x="361" y="123" width="11" height="11" rx="2.5" fill="#9be9a8" style="animation-delay:8320ms"/>
<rect class="c" x="375" y="123" width="11" height="11" rx="2.5" fill="#40c463" style="animation-delay:8320ms"/>
<rect class="c" x="389" y="123" width="11" height="11" rx="2.5" fill="#30a14e" style="animation-delay:8320ms"/>
<rect class="c" x="403" y="123" width="11" height="11" rx="2.5" fill="#216e39" style="animation-delay:8320ms"/>
<text class="t" x="421" y="132">more</text>
</svg>
