<svg xmlns="http://www.w3.org/2000/svg" width="457" height="141" viewBox="0 0 457 141">
<style>
.c {
  opacity: 0;
  transform-box: fill-box;
  transform-origin: center;
  animation: rise .7s cubic-bezier(.22,.61,.36,1) both;
}
.t {
  opacity: 0;
  animation: fade .6s ease-out both;
  animation-delay: 3022ms;
  font-family: ui-monospace, SFMono-Regular, Menlo, monospace;
  font-size: 10px;
  fill: #57606a;
}
.lbl {
  font-family: ui-monospace, SFMono-Regular, Menlo, monospace;
  font-size: 9px;
  fill: #57606a;
}
@keyframes rise {
  from { opacity: 0; transform: translateY(8px) scale(.5); }
  to   { opacity: 1; transform: none; }
}
@keyframes fade {
  from { opacity: 0; }
  to   { opacity: 1; }
}
@media (prefers-reduced-motion: reduce) {
  .c, .t { animation: none; opacity: 1; }
}
</style>
<text class="lbl" x="30" y="12">jan</text>
<text class="lbl" x="100" y="12">feb</text>
<text class="lbl" x="156" y="12">mar</text>
<text class="lbl" x="226" y="12">apr</text>
<text class="lbl" x="282" y="12">may</text>
<text class="lbl" x="352" y="12">jun</text>
<text class="lbl" x="408" y="12">jul</text>
<text class="lbl" x="0" y="43">mon</text>
<text class="lbl" x="0" y="71">wed</text>
<text class="lbl" x="0" y="99">fri</text>
<rect class="c" x="30" y="76" width="11" height="11" rx="2.5" fill="#ebedf0" style="animation-delay:48ms"/>
<rect class="c" x="30" y="90" width="11" height="11" rx="2.5" fill="#ebedf0" style="animation-delay:60ms"/>
<rect class="c" x="30" y="104" width="11" height="11" rx="2.5" fill="#ebedf0" style="animation-delay:72ms"/>
<rect class="c" x="44" y="20" width="11" height="11" rx="2.5" fill="#ebedf0" style="animation-delay:75ms"/>
<rect class="c" x="44" y="34" width="11" height="11" rx="2.5" fill="#ebedf0" style="animation-delay:87ms"/>
<rect class="c" x="44" y="48" width="11" height="11" rx="2.5" fill="#ebedf0" style="animation-delay:99ms"/>
<rect class="c" x="44" y="62" width="11" height="11" rx="2.5" fill="#ebedf0" style="animation-delay:111ms"/>
<rect class="c" x="44" y="76" width="11" height="11" rx="2.5" fill="#ebedf0" style="animation-delay:123ms"/>
<rect class="c" x="44" y="90" width="11" height="11" rx="2.5" fill="#ebedf0" style="animation-delay:135ms"/>
<rect class="c" x="44" y="104" width="11" height="11" rx="2.5" fill="#ebedf0" style="animation-delay:147ms"/>
<rect class="c" x="58" y="20" width="11" height="11" rx="2.5" fill="#ebedf0" style="animation-delay:150ms"/>
<rect class="c" x="58" y="34" width="11" height="11" rx="2.5" fill="#ebedf0" style="animation-delay:162ms"/>
<rect class="c" x="58" y="48" width="11" height="11" rx="2.5" fill="#ebedf0" style="animation-delay:174ms"/>
<rect class="c" x="58" y="62" width="11" height="11" rx="2.5" fill="#ebedf0" style="animation-delay:186ms"/>
<rect class="c" x="58" y="76" width="11" height="11" rx="2.5" fill="#ebedf0" style="animation-delay:198ms"/>
<rect class="c" x="58" y="90" width="11" height="11" rx="2.5" fill="#ebedf0" style="animation-delay:210ms"/>
<rect class="c" x="58" y="104" width="11" height="11" rx="2.5" fill="#ebedf0" style="animation-delay:222ms"/>
<rect class="c" x="72" y="20" width="11" height="11" rx="2.5" fill="#ebedf0" style="animation-delay:225ms"/>
<rect class="c" x="72" y="34" width="11" height="11" rx="2.5" fill="#ebedf0" style="animation-delay:237ms"/>
<rect class="c" x="72" y="48" width="11" height="11" rx="2.5" fill="#ebedf0" style="animation-delay:249ms"/>
<rect class="c" x="72" y="62" width="11" height="11" rx="2.5" fill="#ebedf0" style="animation-delay:261ms"/>
<rect class="c" x="72" y="76" width="11" height="11" rx="2.5" fill="#ebedf0" style="animation-delay:273ms"/>
<rect class="c" x="72" y="90" width="11" height="11" rx="2.5" fill="#ebedf0" style="animation-delay:285ms"/>
<rect class="c" x="72" y="104" width="11" height="11" rx="2.5" fill="#ebedf0" style="animation-delay:297ms"/>
<rect class="c" x="86" y="20" width="11" height="11" rx="2.5" fill="#ebedf0" style="animation-delay:300ms"/>
<rect class="c" x="86" y="34" width="11" height="11" rx="2.5" fill="#ebedf0" style="animation-delay:312ms"/>
<rect class="c" x="86" y="48" width="11" height="11" rx="2.5" fill="#ebedf0" style="animation-delay:324ms"/>
<rect class="c" x="86" y="62" width="11" height="11" rx="2.5" fill="#ebedf0" style="animation-delay:336ms"/>
<rect class="c" x="86" y="76" width="11" height="11" rx="2.5" fill="#ebedf0" style="animation-delay:348ms"/>
<rect class="c" x="86" y="90" width="11" height="11" rx="2.5" fill="#ebedf0" style="animation-delay:360ms"/>
<rect class="c" x="86" y="104" width="11" height="11" rx="2.5" fill="#ebedf0" style="animation-delay:372ms"/>
<rect class="c" x="100" y="20" width="11" height="11" rx="2.5" fill="#ebedf0" style="animation-delay:375ms"/>
<rect class="c" x="100" y="34" width="11" height="11" rx="2.5" fill="#ebedf0" style="animation-delay:387ms"/>
<rect class="c" x="100" y="48" width="11" height="11" rx="2.5" fill="#ebedf0" style="animation-delay:399ms"/>
<rect class="c" x="100" y="62" width="11" height="11" rx="2.5" fill="#ebedf0" style="animation-delay:411ms"/>
<rect class="c" x="100" y="76" width="11" height="11" rx="2.5" fill="#ebedf0" style="animation-delay:423ms"/>
<rect class="c" x="100" y="90" width="11" height="11" rx="2.5" fill="#ebedf0" style="animation-delay:435ms"/>
<rect class="c" x="100" y="104" width="11" height="11" rx="2.5" fill="#ebedf0" style="animation-delay:447ms"/>
<rect class="c" x="114" y="20" width="11" height="11" rx="2.5" fill="#ebedf0" style="animation-delay:450ms"/>
<rect class="c" x="114" y="34" width="11" height="11" rx="2.5" fill="#ebedf0" style="animation-delay:462ms"/>
<rect class="c" x="114" y="48" width="11" height="11" rx="2.5" fill="#ebedf0" style="animation-delay:474ms"/>
<rect class="c" x="114" y="62" width="11" height="11" rx="2.5" fill="#ebedf0" style="animation-delay:486ms"/>
<rect class="c" x="114" y="76" width="11" height="11" rx="2.5" fill="#ebedf0" style="animation-delay:498ms"/>
<rect class="c" x="114" y="90" width="11" height="11" rx="2.5" fill="#ebedf0" style="animation-delay:510ms"/>
<rect class="c" x="114" y="104" width="11" height="11" rx="2.5" fill="#ebedf0" style="animation-delay:522ms"/>
<rect class="c" x="128" y="20" width="11" height="11" rx="2.5" fill="#ebedf0" style="animation-delay:525ms"/>
<rect class="c" x="128" y="34" width="11" height="11" rx="2.5" fill="#ebedf0" style="animation-delay:537ms"/>
<rect class="c" x="128" y="48" width="11" height="11" rx="2.5" fill="#ebedf0" style="animation-delay:549ms"/>
<rect class="c" x="128" y="62" width="11" height="11" rx="2.5" fill="#ebedf0" style="animation-delay:561ms"/>
<rect class="c" x="128" y="76" width="11" height="11" rx="2.5" fill="#ebedf0" style="animation-delay:573ms"/>
<rect class="c" x="128" y="90" width="11" height="11" rx="2.5" fill="#ebedf0" style="animation-delay:585ms"/>
<rect class="c" x="128" y="104" width="11" height="11" rx="2.5" fill="#ebedf0" style="animation-delay:597ms"/>
<rect class="c" x="142" y="20" width="11" height="11" rx="2.5" fill="#ebedf0" style="animation-delay:600ms"/>
<rect class="c" x="142" y="34" width="11" height="11" rx="2.5" fill="#ebedf0" style="animation-delay:612ms"/>
<rect class="c" x="142" y="48" width="11" height="11" rx="2.5" fill="#ebedf0" style="animation-delay:624ms"/>
<rect class="c" x="142" y="62" width="11" height="11" rx="2.5" fill="#ebedf0" style="animation-delay:636ms"/>
<rect class="c" x="142" y="76" width="11" height="11" rx="2.5" fill="#ebedf0" style="animation-delay:648ms"/>
<rect class="c" x="142" y="90" width="11" height="11" rx="2.5" fill="#ebedf0" style="animation-delay:660ms"/>
<rect class="c" x="142" y="104" width="11" height="11" rx="2.5" fill="#ebedf0" style="animation-delay:672ms"/>
<rect class="c" x="156" y="20" width="11" height="11" rx="2.5" fill="#ebedf0" style="animation-delay:675ms"/>
<rect class="c" x="156" y="34" width="11" height="11" rx="2.5" fill="#ebedf0" style="animation-delay:687ms"/>
<rect class="c" x="156" y="48" width="11" height="11" rx="2.5" fill="#ebedf0" style="animation-delay:699ms"/>
<rect class="c" x="156" y="62" width="11" height="11" rx="2.5" fill="#ebedf0" style="animation-delay:711ms"/>
<rect class="c" x="156" y="76" width="11" height="11" rx="2.5" fill="#ebedf0" style="animation-delay:723ms"/>
<rect class="c" x="156" y="90" width="11" height="11" rx="2.5" fill="#ebedf0" style="animation-delay:735ms"/>
<rect class="c" x="156" y="104" width="11" height="11" rx="2.5" fill="#ebedf0" style="animation-delay:747ms"/>
<rect class="c" x="170" y="20" width="11" height="11" rx="2.5" fill="#ebedf0" style="animation-delay:750ms"/>
<rect class="c" x="170" y="34" width="11" height="11" rx="2.5" fill="#ebedf0" style="animation-delay:762ms"/>
<rect class="c" x="170" y="48" width="11" height="11" rx="2.5" fill="#ebedf0" style="animation-delay:774ms"/>
<rect class="c" x="170" y="62" width="11" height="11" rx="2.5" fill="#ebedf0" style="animation-delay:786ms"/>
<rect class="c" x="170" y="76" width="11" height="11" rx="2.5" fill="#ebedf0" style="animation-delay:798ms"/>
<rect class="c" x="170" y="90" width="11" height="11" rx="2.5" fill="#ebedf0" style="animation-delay:810ms"/>
<rect class="c" x="170" y="104" width="11" height="11" rx="2.5" fill="#ebedf0" style="animation-delay:822ms"/>
<rect class="c" x="184" y="20" width="11" height="11" rx="2.5" fill="#ebedf0" style="animation-delay:825ms"/>
<rect class="c" x="184" y="34" width="11" height="11" rx="2.5" fill="#9be9a8" style="animation-delay:837ms"/>
<rect class="c" x="184" y="48" width="11" height="11" rx="2.5" fill="#9be9a8" style="animation-delay:849ms"/>
<rect class="c" x="184" y="62" width="11" height="11" rx="2.5" fill="#ebedf0" style="animation-delay:861ms"/>
<rect class="c" x="184" y="76" width="11" height="11" rx="2.5" fill="#ebedf0" style="animation-delay:873ms"/>
<rect class="c" x="184" y="90" width="11" height="11" rx="2.5" fill="#ebedf0" style="animation-delay:885ms"/>
<rect class="c" x="184" y="104" width="11" height="11" rx="2.5" fill="#ebedf0" style="animation-delay:897ms"/>
<rect class="c" x="198" y="20" width="11" height="11" rx="2.5" fill="#ebedf0" style="animation-delay:900ms"/>
<rect class="c" x="198" y="34" width="11" height="11" rx="2.5" fill="#40c463" style="animation-delay:912ms"/>
<rect class="c" x="198" y="48" width="11" height="11" rx="2.5" fill="#9be9a8" style="animation-delay:924ms"/>
<rect class="c" x="198" y="62" width="11" height="11" rx="2.5" fill="#ebedf0" style="animation-delay:936ms"/>
<rect class="c" x="198" y="76" width="11" height="11" rx="2.5" fill="#ebedf0" style="animation-delay:948ms"/>
<rect class="c" x="198" y="90" width="11" height="11" rx="2.5" fill="#ebedf0" style="animation-delay:960ms"/>
<rect class="c" x="198" y="104" width="11" height="11" rx="2.5" fill="#ebedf0" style="animation-delay:972ms"/>
<rect class="c" x="212" y="20" width="11" height="11" rx="2.5" fill="#ebedf0" style="animation-delay:975ms"/>
<rect class="c" x="212" y="34" width="11" height="11" rx="2.5" fill="#9be9a8" style="animation-delay:987ms"/>
<rect class="c" x="212" y="48" width="11" height="11" rx="2.5" fill="#ebedf0" style="animation-delay:999ms"/>
<rect class="c" x="212" y="62" width="11" height="11" rx="2.5" fill="#ebedf0" style="animation-delay:1011ms"/>
<rect class="c" x="212" y="76" width="11" height="11" rx="2.5" fill="#ebedf0" style="animation-delay:1023ms"/>
<rect class="c" x="212" y="90" width="11" height="11" rx="2.5" fill="#ebedf0" style="animation-delay:1035ms"/>
<rect class="c" x="212" y="104" width="11" height="11" rx="2.5" fill="#ebedf0" style="animation-delay:1047ms"/>
<rect class="c" x="226" y="20" width="11" height="11" rx="2.5" fill="#ebedf0" style="animation-delay:1050ms"/>
<rect class="c" x="226" y="34" width="11" height="11" rx="2.5" fill="#ebedf0" style="animation-delay:1062ms"/>
<rect class="c" x="226" y="48" width="11" height="11" rx="2.5" fill="#ebedf0" style="animation-delay:1074ms"/>
<rect class="c" x="226" y="62" width="11" height="11" rx="2.5" fill="#ebedf0" style="animation-delay:1086ms"/>
<rect class="c" x="226" y="76" width="11" height="11" rx="2.5" fill="#ebedf0" style="animation-delay:1098ms"/>
<rect class="c" x="226" y="90" width="11" height="11" rx="2.5" fill="#ebedf0" style="animation-delay:1110ms"/>
<rect class="c" x="226" y="104" width="11" height="11" rx="2.5" fill="#ebedf0" style="animation-delay:1122ms"/>
<rect class="c" x="240" y="20" width="11" height="11" rx="2.5" fill="#ebedf0" style="animation-delay:1125ms"/>
<rect class="c" x="240" y="34" width="11" height="11" rx="2.5" fill="#ebedf0" style="animation-delay:1137ms"/>
<rect class="c" x="240" y="48" width="11" height="11" rx="2.5" fill="#ebedf0" style="animation-delay:1149ms"/>
<rect class="c" x="240" y="62" width="11" height="11" rx="2.5" fill="#ebedf0" style="animation-delay:1161ms"/>
<rect class="c" x="240" y="76" width="11" height="11" rx="2.5" fill="#ebedf0" style="animation-delay:1173ms"/>
<rect class="c" x="240" y="90" width="11" height="11" rx="2.5" fill="#ebedf0" style="animation-delay:1185ms"/>
<rect class="c" x="240" y="104" width="11" height="11" rx="2.5" fill="#9be9a8" style="animation-delay:1197ms"/>
<rect class="c" x="254" y="20" width="11" height="11" rx="2.5" fill="#ebedf0" style="animation-delay:1200ms"/>
<rect class="c" x="254" y="34" width="11" height="11" rx="2.5" fill="#ebedf0" style="animation-delay:1212ms"/>
<rect class="c" x="254" y="48" width="11" height="11" rx="2.5" fill="#9be9a8" style="animation-delay:1224ms"/>
<rect class="c" x="254" y="62" width="11" height="11" rx="2.5" fill="#ebedf0" style="animation-delay:1236ms"/>
<rect class="c" x="254" y="76" width="11" height="11" rx="2.5" fill="#ebedf0" style="animation-delay:1248ms"/>
<rect class="c" x="254" y="90" width="11" height="11" rx="2.5" fill="#ebedf0" style="animation-delay:1260ms"/>
<rect class="c" x="254" y="104" width="11" height="11" rx="2.5" fill="#9be9a8" style="animation-delay:1272ms"/>
<rect class="c" x="268" y="20" width="11" height="11" rx="2.5" fill="#ebedf0" style="animation-delay:1275ms"/>
<rect class="c" x="268" y="34" width="11" height="11" rx="2.5" fill="#9be9a8" style="animation-delay:1287ms"/>
<rect class="c" x="268" y="48" width="11" height="11" rx="2.5" fill="#40c463" style="animation-delay:1299ms"/>
<rect class="c" x="268" y="62" width="11" height="11" rx="2.5" fill="#9be9a8" style="animation-delay:1311ms"/>
<rect class="c" x="268" y="76" width="11" height="11" rx="2.5" fill="#9be9a8" style="animation-delay:1323ms"/>
<rect class="c" x="268" y="90" width="11" height="11" rx="2.5" fill="#9be9a8" style="animation-delay:1335ms"/>
<rect class="c" x="268" y="104" width="11" height="11" rx="2.5" fill="#9be9a8" style="animation-delay:1347ms"/>
<rect class="c" x="282" y="20" width="11" height="11" rx="2.5" fill="#ebedf0" style="animation-delay:1350ms"/>
<rect class="c" x="282" y="34" width="11" height="11" rx="2.5" fill="#ebedf0" style="animation-delay:1362ms"/>
<rect class="c" x="282" y="48" width="11" height="11" rx="2.5" fill="#ebedf0" style="animation-delay:1374ms"/>
<rect class="c" x="282" y="62" width="11" height="11" rx="2.5" fill="#9be9a8" style="animation-delay:1386ms"/>
<rect class="c" x="282" y="76" width="11" height="11" rx="2.5" fill="#9be9a8" style="animation-delay:1398ms"/>
<rect class="c" x="282" y="90" width="11" height="11" rx="2.5" fill="#9be9a8" style="animation-delay:1410ms"/>
<rect class="c" x="282" y="104" width="11" height="11" rx="2.5" fill="#ebedf0" style="animation-delay:1422ms"/>
<rect class="c" x="296" y="20" width="11" height="11" rx="2.5" fill="#ebedf0" style="animation-delay:1425ms"/>
<rect class="c" x="296" y="34" width="11" height="11" rx="2.5" fill="#9be9a8" style="animation-delay:1437ms"/>
<rect class="c" x="296" y="48" width="11" height="11" rx="2.5" fill="#ebedf0" style="animation-delay:1449ms"/>
<rect class="c" x="296" y="62" width="11" height="11" rx="2.5" fill="#9be9a8" style="animation-delay:1461ms"/>
<rect class="c" x="296" y="76" width="11" height="11" rx="2.5" fill="#9be9a8" style="animation-delay:1473ms"/>
<rect class="c" x="296" y="90" width="11" height="11" rx="2.5" fill="#40c463" style="animation-delay:1485ms"/>
<rect class="c" x="296" y="104" width="11" height="11" rx="2.5" fill="#ebedf0" style="animation-delay:1497ms"/>
<rect class="c" x="310" y="20" width="11" height="11" rx="2.5" fill="#ebedf0" style="animation-delay:1500ms"/>
<rect class="c" x="310" y="34" width="11" height="11" rx="2.5" fill="#ebedf0" style="animation-delay:1512ms"/>
<rect class="c" x="310" y="48" width="11" height="11" rx="2.5" fill="#9be9a8" style="animation-delay:1524ms"/>
<rect class="c" x="310" y="62" width="11" height="11" rx="2.5" fill="#40c463" style="animation-delay:1536ms"/>
<rect class="c" x="310" y="76" width="11" height="11" rx="2.5" fill="#9be9a8" style="animation-delay:1548ms"/>
<rect class="c" x="310" y="90" width="11" height="11" rx="2.5" fill="#216e39" style="animation-delay:1560ms"/>
<rect class="c" x="310" y="104" width="11" height="11" rx="2.5" fill="#ebedf0" style="animation-delay:1572ms"/>
<rect class="c" x="324" y="20" width="11" height="11" rx="2.5" fill="#ebedf0" style="animation-delay:1575ms"/>
<rect class="c" x="324" y="34" width="11" height="11" rx="2.5" fill="#30a14e" style="animation-delay:1587ms"/>
<rect class="c" x="324" y="48" width="11" height="11" rx="2.5" fill="#216e39" style="animation-delay:1599ms"/>
<rect class="c" x="324" y="62" width="11" height="11" rx="2.5" fill="#30a14e" style="animation-delay:1611ms"/>
<rect class="c" x="324" y="76" width="11" height="11" rx="2.5" fill="#9be9a8" style="animation-delay:1623ms"/>
<rect class="c" x="324" y="90" width="11" height="11" rx="2.5" fill="#216e39" style="animation-delay:1635ms"/>
<rect class="c" x="324" y="104" width="11" height="11" rx="2.5" fill="#9be9a8" style="animation-delay:1647ms"/>
<rect class="c" x="338" y="20" width="11" height="11" rx="2.5" fill="#9be9a8" style="animation-delay:1650ms"/>
<rect class="c" x="338" y="34" width="11" height="11" rx="2.5" fill="#9be9a8" style="animation-delay:1662ms"/>
<rect class="c" x="338" y="48" width="11" height="11" rx="2.5" fill="#216e39" style="animation-delay:1674ms"/>
<rect class="c" x="338" y="62" width="11" height="11" rx="2.5" fill="#30a14e" style="animation-delay:1686ms"/>
<rect class="c" x="338" y="76" width="11" height="11" rx="2.5" fill="#40c463" style="animation-delay:1698ms"/>
<rect class="c" x="338" y="90" width="11" height="11" rx="2.5" fill="#216e39" style="animation-delay:1710ms"/>
<rect class="c" x="338" y="104" width="11" height="11" rx="2.5" fill="#9be9a8" style="animation-delay:1722ms"/>
<rect class="c" x="352" y="20" width="11" height="11" rx="2.5" fill="#ebedf0" style="animation-delay:1725ms"/>
<rect class="c" x="352" y="34" width="11" height="11" rx="2.5" fill="#9be9a8" style="animation-delay:1737ms"/>
<rect class="c" x="352" y="48" width="11" height="11" rx="2.5" fill="#216e39" style="animation-delay:1749ms"/>
<rect class="c" x="352" y="62" width="11" height="11" rx="2.5" fill="#216e39" style="animation-delay:1761ms"/>
<rect class="c" x="352" y="76" width="11" height="11" rx="2.5" fill="#40c463" style="animation-delay:1773ms"/>
<rect class="c" x="352" y="90" width="11" height="11" rx="2.5" fill="#30a14e" style="animation-delay:1785ms"/>
<rect class="c" x="352" y="104" width="11" height="11" rx="2.5" fill="#9be9a8" style="animation-delay:1797ms"/>
<rect class="c" x="366" y="20" width="11" height="11" rx="2.5" fill="#30a14e" style="animation-delay:1800ms"/>
<rect class="c" x="366" y="34" width="11" height="11" rx="2.5" fill="#9be9a8" style="animation-delay:1812ms"/>
<rect class="c" x="366" y="48" width="11" height="11" rx="2.5" fill="#9be9a8" style="animation-delay:1824ms"/>
<rect class="c" x="366" y="62" width="11" height="11" rx="2.5" fill="#9be9a8" style="animation-delay:1836ms"/>
<rect class="c" x="366" y="76" width="11" height="11" rx="2.5" fill="#9be9a8" style="animation-delay:1848ms"/>
<rect class="c" x="366" y="90" width="11" height="11" rx="2.5" fill="#30a14e" style="animation-delay:1860ms"/>
<rect class="c" x="366" y="104" width="11" height="11" rx="2.5" fill="#ebedf0" style="animation-delay:1872ms"/>
<rect class="c" x="380" y="20" width="11" height="11" rx="2.5" fill="#ebedf0" style="animation-delay:1875ms"/>
<rect class="c" x="380" y="34" width="11" height="11" rx="2.5" fill="#9be9a8" style="animation-delay:1887ms"/>
<rect class="c" x="380" y="48" width="11" height="11" rx="2.5" fill="#9be9a8" style="animation-delay:1899ms"/>
<rect class="c" x="380" y="62" width="11" height="11" rx="2.5" fill="#9be9a8" style="animation-delay:1911ms"/>
<rect class="c" x="380" y="76" width="11" height="11" rx="2.5" fill="#9be9a8" style="animation-delay:1923ms"/>
<rect class="c" x="380" y="90" width="11" height="11" rx="2.5" fill="#40c463" style="animation-delay:1935ms"/>
<rect class="c" x="380" y="104" width="11" height="11" rx="2.5" fill="#ebedf0" style="animation-delay:1947ms"/>
<rect class="c" x="394" y="20" width="11" height="11" rx="2.5" fill="#ebedf0" style="animation-delay:1950ms"/>
<rect class="c" x="394" y="34" width="11" height="11" rx="2.5" fill="#9be9a8" style="animation-delay:1962ms"/>
<rect class="c" x="394" y="48" width="11" height="11" rx="2.5" fill="#9be9a8" style="animation-delay:1974ms"/>
<rect class="c" x="394" y="62" width="11" height="11" rx="2.5" fill="#9be9a8" style="animation-delay:1986ms"/>
<rect class="c" x="394" y="76" width="11" height="11" rx="2.5" fill="#9be9a8" style="animation-delay:1998ms"/>
<rect class="c" x="394" y="90" width="11" height="11" rx="2.5" fill="#40c463" style="animation-delay:2010ms"/>
<rect class="c" x="394" y="104" width="11" height="11" rx="2.5" fill="#ebedf0" style="animation-delay:2022ms"/>
<rect class="c" x="408" y="20" width="11" height="11" rx="2.5" fill="#ebedf0" style="animation-delay:2025ms"/>
<rect class="c" x="408" y="34" width="11" height="11" rx="2.5" fill="#9be9a8" style="animation-delay:2037ms"/>
<rect class="c" x="408" y="48" width="11" height="11" rx="2.5" fill="#9be9a8" style="animation-delay:2049ms"/>
<rect class="c" x="408" y="62" width="11" height="11" rx="2.5" fill="#9be9a8" style="animation-delay:2061ms"/>
<rect class="c" x="408" y="76" width="11" height="11" rx="2.5" fill="#40c463" style="animation-delay:2073ms"/>
<rect class="c" x="408" y="90" width="11" height="11" rx="2.5" fill="#9be9a8" style="animation-delay:2085ms"/>
<rect class="c" x="408" y="104" width="11" height="11" rx="2.5" fill="#ebedf0" style="animation-delay:2097ms"/>
<rect class="c" x="422" y="20" width="11" height="11" rx="2.5" fill="#ebedf0" style="animation-delay:2100ms"/>
<rect class="c" x="422" y="34" width="11" height="11" rx="2.5" fill="#9be9a8" style="animation-delay:2112ms"/>
<rect class="c" x="422" y="48" width="11" height="11" rx="2.5" fill="#9be9a8" style="animation-delay:2124ms"/>
<rect class="c" x="422" y="62" width="11" height="11" rx="2.5" fill="#30a14e" style="animation-delay:2136ms"/>
<rect class="c" x="422" y="76" width="11" height="11" rx="2.5" fill="#40c463" style="animation-delay:2148ms"/>
<rect class="c" x="422" y="90" width="11" height="11" rx="2.5" fill="#40c463" style="animation-delay:2160ms"/>
<rect class="c" x="422" y="104" width="11" height="11" rx="2.5" fill="#9be9a8" style="animation-delay:2172ms"/>
<rect class="c" x="436" y="20" width="11" height="11" rx="2.5" fill="#9be9a8" style="animation-delay:2175ms"/>
<rect class="c" x="436" y="34" width="11" height="11" rx="2.5" fill="#9be9a8" style="animation-delay:2187ms"/>
<rect class="c" x="436" y="48" width="11" height="11" rx="2.5" fill="#40c463" style="animation-delay:2199ms"/>
<rect class="c" x="436" y="62" width="11" height="11" rx="2.5" fill="#216e39" style="animation-delay:2211ms"/>
<rect class="c" x="436" y="76" width="11" height="11" rx="2.5" fill="#9be9a8" style="animation-delay:2223ms"/>
<text class="t" x="30" y="132">703 contributions in 2026</text>
<text class="t" x="317" y="132">less</text>
<rect class="c" x="347" y="123" width="11" height="11" rx="2.5" fill="#ebedf0" style="animation-delay:3022ms"/>
<rect class="c" x="361" y="123" width="11" height="11" rx="2.5" fill="#9be9a8" style="animation-delay:3022ms"/>
<rect class="c" x="375" y="123" width="11" height="11" rx="2.5" fill="#40c463" style="animation-delay:3022ms"/>
<rect class="c" x="389" y="123" width="11" height="11" rx="2.5" fill="#30a14e" style="animation-delay:3022ms"/>
<rect class="c" x="403" y="123" width="11" height="11" rx="2.5" fill="#216e39" style="animation-delay:3022ms"/>
<text class="t" x="421" y="132">more</text>
</svg>
