<svg xmlns="http://www.w3.org/2000/svg" width="457" height="141" viewBox="0 0 457 141">
<style>
.c {
  opacity: 0;
  transform-box: fill-box;
  transform-origin: center;
  animation: rise .8s cubic-bezier(.22,.61,.36,1) both;
}
.t {
  opacity: 0;
  animation: fade .6s ease-out both;
  animation-delay: 3890ms;
  font-family: ui-monospace, SFMono-Regular, Menlo, monospace;
  font-size: 10px;
  fill: #8b949e;
}
.lbl {
  font-family: ui-monospace, SFMono-Regular, Menlo, monospace;
  font-size: 9px;
  fill: #8b949e;
}
@keyframes rise {
  from { opacity: 0; transform: translateY(8px) scale(.5); }
  to   { opacity: 1; transform: none; }
}
@keyframes fade {
  from { opacity: 0; }
  to   { opacity: 1; }
}
@media (prefers-reduced-motion: reduce) {
  .c, .t { animation: none; opacity: 1; }
}
</style>
<text class="lbl" x="30" y="12">jan</text>
<text class="lbl" x="100" y="12">feb</text>
<text class="lbl" x="156" y="12">mar</text>
<text class="lbl" x="226" y="12">apr</text>
<text class="lbl" x="282" y="12">may</text>
<text class="lbl" x="352" y="12">jun</text>
<text class="lbl" x="408" y="12">jul</text>
<text class="lbl" x="0" y="43">mon</text>
<text class="lbl" x="0" y="71">wed</text>
<text class="lbl" x="0" y="99">fri</text>
<rect class="c" x="30" y="76" width="11" height="11" rx="2.5" fill="#161b22" style="animation-delay:60ms"/>
<rect class="c" x="30" y="90" width="11" height="11" rx="2.5" fill="#161b22" style="animation-delay:75ms"/>
<rect class="c" x="30" y="104" width="11" height="11" rx="2.5" fill="#161b22" style="animation-delay:90ms"/>
<rect class="c" x="44" y="20" width="11" height="11" rx="2.5" fill="#161b22" style="animation-delay:100ms"/>
<rect class="c" x="44" y="34" width="11" height="11" rx="2.5" fill="#161b22" style="animation-delay:115ms"/>
<rect class="c" x="44" y="48" width="11" height="11" rx="2.5" fill="#161b22" style="animation-delay:130ms"/>
<rect class="c" x="44" y="62" width="11" height="11" rx="2.5" fill="#161b22" style="animation-delay:145ms"/>
<rect class="c" x="44" y="76" width="11" height="11" rx="2.5" fill="#161b22" style="animation-delay:160ms"/>
<rect class="c" x="44" y="90" width="11" height="11" rx="2.5" fill="#161b22" style="animation-delay:175ms"/>
<rect class="c" x="44" y="104" width="11" height="11" rx="2.5" fill="#161b22" style="animation-delay:190ms"/>
<rect class="c" x="58" y="20" width="11" height="11" rx="2.5" fill="#161b22" style="animation-delay:200ms"/>
<rect class="c" x="58" y="34" width="11" height="11" rx="2.5" fill="#161b22" style="animation-delay:215ms"/>
<rect class="c" x="58" y="48" width="11" height="11" rx="2.5" fill="#161b22" style="animation-delay:230ms"/>
<rect class="c" x="58" y="62" width="11" height="11" rx="2.5" fill="#161b22" style="animation-delay:245ms"/>
<rect class="c" x="58" y="76" width="11" height="11" rx="2.5" fill="#161b22" style="animation-delay:260ms"/>
<rect class="c" x="58" y="90" width="11" height="11" rx="2.5" fill="#161b22" style="animation-delay:275ms"/>
<rect class="c" x="58" y="104" width="11" height="11" rx="2.5" fill="#161b22" style="animation-delay:290ms"/>
<rect class="c" x="72" y="20" width="11" height="11" rx="2.5" fill="#161b22" style="animation-delay:300ms"/>
<rect class="c" x="72" y="34" width="11" height="11" rx="2.5" fill="#161b22" style="animation-delay:315ms"/>
<rect class="c" x="72" y="48" width="11" height="11" rx="2.5" fill="#161b22" style="animation-delay:330ms"/>
<rect class="c" x="72" y="62" width="11" height="11" rx="2.5" fill="#161b22" style="animation-delay:345ms"/>
<rect class="c" x="72" y="76" width="11" height="11" rx="2.5" fill="#161b22" style="animation-delay:360ms"/>
<rect class="c" x="72" y="90" width="11" height="11" rx="2.5" fill="#161b22" style="animation-delay:375ms"/>
<rect class="c" x="72" y="104" width="11" height="11" rx="2.5" fill="#161b22" style="animation-delay:390ms"/>
<rect class="c" x="86" y="20" width="11" height="11" rx="2.5" fill="#161b22" style="animation-delay:400ms"/>
<rect class="c" x="86" y="34" width="11" height="11" rx="2.5" fill="#161b22" style="animation-delay:415ms"/>
<rect class="c" x="86" y="48" width="11" height="11" rx="2.5" fill="#161b22" style="animation-delay:430ms"/>
<rect class="c" x="86" y="62" width="11" height="11" rx="2.5" fill="#161b22" style="animation-delay:445ms"/>
<rect class="c" x="86" y="76" width="11" height="11" rx="2.5" fill="#161b22" style="animation-delay:460ms"/>
<rect class="c" x="86" y="90" width="11" height="11" rx="2.5" fill="#161b22" style="animation-delay:475ms"/>
<rect class="c" x="86" y="104" width="11" height="11" rx="2.5" fill="#161b22" style="animation-delay:490ms"/>
<rect class="c" x="100" y="20" width="11" height="11" rx="2.5" fill="#161b22" style="animation-delay:500ms"/>
<rect class="c" x="100" y="34" width="11" height="11" rx="2.5" fill="#161b22" style="animation-delay:515ms"/>
<rect class="c" x="100" y="48" width="11" height="11" rx="2.5" fill="#161b22" style="animation-delay:530ms"/>
<rect class="c" x="100" y="62" width="11" height="11" rx="2.5" fill="#161b22" style="animation-delay:545ms"/>
<rect class="c" x="100" y="76" width="11" height="11" rx="2.5" fill="#161b22" style="animation-delay:560ms"/>
<rect class="c" x="100" y="90" width="11" height="11" rx="2.5" fill="#161b22" style="animation-delay:575ms"/>
<rect class="c" x="100" y="104" width="11" height="11" rx="2.5" fill="#161b22" style="animation-delay:590ms"/>
<rect class="c" x="114" y="20" width="11" height="11" rx="2.5" fill="#161b22" style="animation-delay:600ms"/>
<rect class="c" x="114" y="34" width="11" height="11" rx="2.5" fill="#161b22" style="animation-delay:615ms"/>
<rect class="c" x="114" y="48" width="11" height="11" rx="2.5" fill="#161b22" style="animation-delay:630ms"/>
<rect class="c" x="114" y="62" width="11" height="11" rx="2.5" fill="#161b22" style="animation-delay:645ms"/>
<rect class="c" x="114" y="76" width="11" height="11" rx="2.5" fill="#161b22" style="animation-delay:660ms"/>
<rect class="c" x="114" y="90" width="11" height="11" rx="2.5" fill="#161b22" style="animation-delay:675ms"/>
<rect class="c" x="114" y="104" width="11" height="11" rx="2.5" fill="#161b22" style="animation-delay:690ms"/>
<rect class="c" x="128" y="20" width="11" height="11" rx="2.5" fill="#161b22" style="animation-delay:700ms"/>
<rect class="c" x="128" y="34" width="11" height="11" rx="2.5" fill="#161b22" style="animation-delay:715ms"/>
<rect class="c" x="128" y="48" width="11" height="11" rx="2.5" fill="#161b22" style="animation-delay:730ms"/>
<rect class="c" x="128" y="62" width="11" height="11" rx="2.5" fill="#161b22" style="animation-delay:745ms"/>
<rect class="c" x="128" y="76" width="11" height="11" rx="2.5" fill="#161b22" style="animation-delay:760ms"/>
<rect class="c" x="128" y="90" width="11" height="11" rx="2.5" fill="#161b22" style="animation-delay:775ms"/>
<rect class="c" x="128" y="104" width="11" height="11" rx="2.5" fill="#161b22" style="animation-delay:790ms"/>
<rect class="c" x="142" y="20" width="11" height="11" rx="2.5" fill="#161b22" style="animation-delay:800ms"/>
<rect class="c" x="142" y="34" width="11" height="11" rx="2.5" fill="#161b22" style="animation-delay:815ms"/>
<rect class="c" x="142" y="48" width="11" height="11" rx="2.5" fill="#161b22" style="animation-delay:830ms"/>
<rect class="c" x="142" y="62" width="11" height="11" rx="2.5" fill="#161b22" style="animation-delay:845ms"/>
<rect class="c" x="142" y="76" width="11" height="11" rx="2.5" fill="#161b22" style="animation-delay:860ms"/>
<rect class="c" x="142" y="90" width="11" height="11" rx="2.5" fill="#161b22" style="animation-delay:875ms"/>
<rect class="c" x="142" y="104" width="11" height="11" rx="2.5" fill="#161b22" style="animation-delay:890ms"/>
<rect class="c" x="156" y="20" width="11" height="11" rx="2.5" fill="#161b22" style="animation-delay:900ms"/>
<rect class="c" x="156" y="34" width="11" height="11" rx="2.5" fill="#161b22" style="animation-delay:915ms"/>
<rect class="c" x="156" y="48" width="11" height="11" rx="2.5" fill="#161b22" style="animation-delay:930ms"/>
<rect class="c" x="156" y="62" width="11" height="11" rx="2.5" fill="#161b22" style="animation-delay:945ms"/>
<rect class="c" x="156" y="76" width="11" height="11" rx="2.5" fill="#161b22" style="animation-delay:960ms"/>
<rect class="c" x="156" y="90" width="11" height="11" rx="2.5" fill="#161b22" style="animation-delay:975ms"/>
<rect class="c" x="156" y="104" width="11" height="11" rx="2.5" fill="#161b22" style="animation-delay:990ms"/>
<rect class="c" x="170" y="20" width="11" height="11" rx="2.5" fill="#161b22" style="animation-delay:1000ms"/>
<rect class="c" x="170" y="34" width="11" height="11" rx="2.5" fill="#161b22" style="animation-delay:1015ms"/>
<rect class="c" x="170" y="48" width="11" height="11" rx="2.5" fill="#161b22" style="animation-delay:1030ms"/>
<rect class="c" x="170" y="62" width="11" height="11" rx="2.5" fill="#161b22" style="animation-delay:1045ms"/>
<rect class="c" x="170" y="76" width="11" height="11" rx="2.5" fill="#161b22" style="animation-delay:1060ms"/>
<rect class="c" x="170" y="90" width="11" height="11" rx="2.5" fill="#161b22" style="animation-delay:1075ms"/>
<rect class="c" x="170" y="104" width="11" height="11" rx="2.5" fill="#161b22" style="animation-delay:1090ms"/>
<rect class="c" x="184" y="20" width="11" height="11" rx="2.5" fill="#161b22" style="animation-delay:1100ms"/>
<rect class="c" x="184" y="34" width="11" height="11" rx="2.5" fill="#006d32" style="animation-delay:1115ms"/>
<rect class="c" x="184" y="48" width="11" height="11" rx="2.5" fill="#161b22" style="animation-delay:1130ms"/>
<rect class="c" x="184" y="62" width="11" height="11" rx="2.5" fill="#161b22" style="animation-delay:1145ms"/>
<rect class="c" x="184" y="76" width="11" height="11" rx="2.5" fill="#161b22" style="animation-delay:1160ms"/>
<rect class="c" x="184" y="90" width="11" height="11" rx="2.5" fill="#161b22" style="animation-delay:1175ms"/>
<rect class="c" x="184" y="104" width="11" height="11" rx="2.5" fill="#161b22" style="animation-delay:1190ms"/>
<rect class="c" x="198" y="20" width="11" height="11" rx="2.5" fill="#161b22" style="animation-delay:1200ms"/>
<rect class="c" x="198" y="34" width="11" height="11" rx="2.5" fill="#006d32" style="animation-delay:1215ms"/>
<rect class="c" x="198" y="48" width="11" height="11" rx="2.5" fill="#0e4429" style="animation-delay:1230ms"/>
<rect class="c" x="198" y="62" width="11" height="11" rx="2.5" fill="#161b22" style="animation-delay:1245ms"/>
<rect class="c" x="198" y="76" width="11" height="11" rx="2.5" fill="#161b22" style="animation-delay:1260ms"/>
<rect class="c" x="198" y="90" width="11" height="11" rx="2.5" fill="#161b22" style="animation-delay:1275ms"/>
<rect class="c" x="198" y="104" width="11" height="11" rx="2.5" fill="#161b22" style="animation-delay:1290ms"/>
<rect class="c" x="212" y="20" width="11" height="11" rx="2.5" fill="#161b22" style="animation-delay:1300ms"/>
<rect class="c" x="212" y="34" width="11" height="11" rx="2.5" fill="#0e4429" style="animation-delay:1315ms"/>
<rect class="c" x="212" y="48" width="11" height="11" rx="2.5" fill="#161b22" style="animation-delay:1330ms"/>
<rect class="c" x="212" y="62" width="11" height="11" rx="2.5" fill="#161b22" style="animation-delay:1345ms"/>
<rect class="c" x="212" y="76" width="11" height="11" rx="2.5" fill="#161b22" style="animation-delay:1360ms"/>
<rect class="c" x="212" y="90" width="11" height="11" rx="2.5" fill="#161b22" style="animation-delay:1375ms"/>
<rect class="c" x="212" y="104" width="11" height="11" rx="2.5" fill="#161b22" style="animation-delay:1390ms"/>
<rect class="c" x="226" y="20" width="11" height="11" rx="2.5" fill="#161b22" style="animation-delay:1400ms"/>
<rect class="c" x="226" y="34" width="11" height="11" rx="2.5" fill="#161b22" style="animation-delay:1415ms"/>
<rect class="c" x="226" y="48" width="11" height="11" rx="2.5" fill="#161b22" style="animation-delay:1430ms"/>
<rect class="c" x="226" y="62" width="11" height="11" rx="2.5" fill="#161b22" style="animation-delay:1445ms"/>
<rect class="c" x="226" y="76" width="11" height="11" rx="2.5" fill="#161b22" style="animation-delay:1460ms"/>
<rect class="c" x="226" y="90" width="11" height="11" rx="2.5" fill="#161b22" style="animation-delay:1475ms"/>
<rect class="c" x="226" y="104" width="11" height="11" rx="2.5" fill="#161b22" style="animation-delay:1490ms"/>
<rect class="c" x="240" y="20" width="11" height="11" rx="2.5" fill="#161b22" style="animation-delay:1500ms"/>
<rect class="c" x="240" y="34" width="11" height="11" rx="2.5" fill="#161b22" style="animation-delay:1515ms"/>
<rect class="c" x="240" y="48" width="11" height="11" rx="2.5" fill="#161b22" style="animation-delay:1530ms"/>
<rect class="c" x="240" y="62" width="11" height="11" rx="2.5" fill="#161b22" style="animation-delay:1545ms"/>
<rect class="c" x="240" y="76" width="11" height="11" rx="2.5" fill="#161b22" style="animation-delay:1560ms"/>
<rect class="c" x="240" y="90" width="11" height="11" rx="2.5" fill="#161b22" style="animation-delay:1575ms"/>
<rect class="c" x="240" y="104" width="11" height="11" rx="2.5" fill="#0e4429" style="animation-delay:1590ms"/>
<rect class="c" x="254" y="20" width="11" height="11" rx="2.5" fill="#161b22" style="animation-delay:1600ms"/>
<rect class="c" x="254" y="34" width="11" height="11" rx="2.5" fill="#161b22" style="animation-delay:1615ms"/>
<rect class="c" x="254" y="48" width="11" height="11" rx="2.5" fill="#0e4429" style="animation-delay:1630ms"/>
<rect class="c" x="254" y="62" width="11" height="11" rx="2.5" fill="#161b22" style="animation-delay:1645ms"/>
<rect class="c" x="254" y="76" width="11" height="11" rx="2.5" fill="#161b22" style="animation-delay:1660ms"/>
<rect class="c" x="254" y="90" width="11" height="11" rx="2.5" fill="#161b22" style="animation-delay:1675ms"/>
<rect class="c" x="254" y="104" width="11" height="11" rx="2.5" fill="#0e4429" style="animation-delay:1690ms"/>
<rect class="c" x="268" y="20" width="11" height="11" rx="2.5" fill="#161b22" style="animation-delay:1700ms"/>
<rect class="c" x="268" y="34" width="11" height="11" rx="2.5" fill="#0e4429" style="animation-delay:1715ms"/>
<rect class="c" x="268" y="48" width="11" height="11" rx="2.5" fill="#006d32" style="animation-delay:1730ms"/>
<rect class="c" x="268" y="62" width="11" height="11" rx="2.5" fill="#0e4429" style="animation-delay:1745ms"/>
<rect class="c" x="268" y="76" width="11" height="11" rx="2.5" fill="#0e4429" style="animation-delay:1760ms"/>
<rect class="c" x="268" y="90" width="11" height="11" rx="2.5" fill="#0e4429" style="animation-delay:1775ms"/>
<rect class="c" x="268" y="104" width="11" height="11" rx="2.5" fill="#0e4429" style="animation-delay:1790ms"/>
<rect class="c" x="282" y="20" width="11" height="11" rx="2.5" fill="#161b22" style="animation-delay:1800ms"/>
<rect class="c" x="282" y="34" width="11" height="11" rx="2.5" fill="#161b22" style="animation-delay:1815ms"/>
<rect class="c" x="282" y="48" width="11" height="11" rx="2.5" fill="#161b22" style="animation-delay:1830ms"/>
<rect class="c" x="282" y="62" width="11" height="11" rx="2.5" fill="#0e4429" style="animation-delay:1845ms"/>
<rect class="c" x="282" y="76" width="11" height="11" rx="2.5" fill="#0e4429" style="animation-delay:1860ms"/>
<rect class="c" x="282" y="90" width="11" height="11" rx="2.5" fill="#0e4429" style="animation-delay:1875ms"/>
<rect class="c" x="282" y="104" width="11" height="11" rx="2.5" fill="#161b22" style="animation-delay:1890ms"/>
<rect class="c" x="296" y="20" width="11" height="11" rx="2.5" fill="#161b22" style="animation-delay:1900ms"/>
<rect class="c" x="296" y="34" width="11" height="11" rx="2.5" fill="#0e4429" style="animation-delay:1915ms"/>
<rect class="c" x="296" y="48" width="11" height="11" rx="2.5" fill="#161b22" style="animation-delay:1930ms"/>
<rect class="c" x="296" y="62" width="11" height="11" rx="2.5" fill="#0e4429" style="animation-delay:1945ms"/>
<rect class="c" x="296" y="76" width="11" height="11" rx="2.5" fill="#0e4429" style="animation-delay:1960ms"/>
<rect class="c" x="296" y="90" width="11" height="11" rx="2.5" fill="#006d32" style="animation-delay:1975ms"/>
<rect class="c" x="296" y="104" width="11" height="11" rx="2.5" fill="#161b22" style="animation-delay:1990ms"/>
<rect class="c" x="310" y="20" width="11" height="11" rx="2.5" fill="#161b22" style="animation-delay:2000ms"/>
<rect class="c" x="310" y="34" width="11" height="11" rx="2.5" fill="#161b22" style="animation-delay:2015ms"/>
<rect class="c" x="310" y="48" width="11" height="11" rx="2.5" fill="#0e4429" style="animation-delay:2030ms"/>
<rect class="c" x="310" y="62" width="11" height="11" rx="2.5" fill="#006d32" style="animation-delay:2045ms"/>
<rect class="c" x="310" y="76" width="11" height="11" rx="2.5" fill="#0e4429" style="animation-delay:2060ms"/>
<rect class="c" x="310" y="90" width="11" height="11" rx="2.5" fill="#39d353" style="animation-delay:2075ms"/>
<rect class="c" x="310" y="104" width="11" height="11" rx="2.5" fill="#161b22" style="animation-delay:2090ms"/>
<rect class="c" x="324" y="20" width="11" height="11" rx="2.5" fill="#161b22" style="animation-delay:2100ms"/>
<rect class="c" x="324" y="34" width="11" height="11" rx="2.5" fill="#26a641" style="animation-delay:2115ms"/>
<rect class="c" x="324" y="48" width="11" height="11" rx="2.5" fill="#39d353" style="animation-delay:2130ms"/>
<rect class="c" x="324" y="62" width="11" height="11" rx="2.5" fill="#26a641" style="animation-delay:2145ms"/>
<rect class="c" x="324" y="76" width="11" height="11" rx="2.5" fill="#0e4429" style="animation-delay:2160ms"/>
<rect class="c" x="324" y="90" width="11" height="11" rx="2.5" fill="#39d353" style="animation-delay:2175ms"/>
<rect class="c" x="324" y="104" width="11" height="11" rx="2.5" fill="#0e4429" style="animation-delay:2190ms"/>
<rect class="c" x="338" y="20" width="11" height="11" rx="2.5" fill="#0e4429" style="animation-delay:2200ms"/>
<rect class="c" x="338" y="34" width="11" height="11" rx="2.5" fill="#0e4429" style="animation-delay:2215ms"/>
<rect class="c" x="338" y="48" width="11" height="11" rx="2.5" fill="#39d353" style="animation-delay:2230ms"/>
<rect class="c" x="338" y="62" width="11" height="11" rx="2.5" fill="#26a641" style="animation-delay:2245ms"/>
<rect class="c" x="338" y="76" width="11" height="11" rx="2.5" fill="#006d32" style="animation-delay:2260ms"/>
<rect class="c" x="338" y="90" width="11" height="11" rx="2.5" fill="#39d353" style="animation-delay:2275ms"/>
<rect class="c" x="338" y="104" width="11" height="11" rx="2.5" fill="#0e4429" style="animation-delay:2290ms"/>
<rect class="c" x="352" y="20" width="11" height="11" rx="2.5" fill="#161b22" style="animation-delay:2300ms"/>
<rect class="c" x="352" y="34" width="11" height="11" rx="2.5" fill="#0e4429" style="animation-delay:2315ms"/>
<rect class="c" x="352" y="48" width="11" height="11" rx="2.5" fill="#39d353" style="animation-delay:2330ms"/>
<rect class="c" x="352" y="62" width="11" height="11" rx="2.5" fill="#39d353" style="animation-delay:2345ms"/>
<rect class="c" x="352" y="76" width="11" height="11" rx="2.5" fill="#006d32" style="animation-delay:2360ms"/>
<rect class="c" x="352" y="90" width="11" height="11" rx="2.5" fill="#39d353" style="animation-delay:2375ms"/>
<rect class="c" x="352" y="104" width="11" height="11" rx="2.5" fill="#0e4429" style="animation-delay:2390ms"/>
<rect class="c" x="366" y="20" width="11" height="11" rx="2.5" fill="#26a641" style="animation-delay:2400ms"/>
<rect class="c" x="366" y="34" width="11" height="11" rx="2.5" fill="#0e4429" style="animation-delay:2415ms"/>
<rect class="c" x="366" y="48" width="11" height="11" rx="2.5" fill="#0e4429" style="animation-delay:2430ms"/>
<rect class="c" x="366" y="62" width="11" height="11" rx="2.5" fill="#0e4429" style="animation-delay:2445ms"/>
<rect class="c" x="366" y="76" width="11" height="11" rx="2.5" fill="#0e4429" style="animation-delay:2460ms"/>
<rect class="c" x="366" y="90" width="11" height="11" rx="2.5" fill="#26a641" style="animation-delay:2475ms"/>
<rect class="c" x="366" y="104" width="11" height="11" rx="2.5" fill="#161b22" style="animation-delay:2490ms"/>
<rect class="c" x="380" y="20" width="11" height="11" rx="2.5" fill="#161b22" style="animation-delay:2500ms"/>
<rect class="c" x="380" y="34" width="11" height="11" rx="2.5" fill="#0e4429" style="animation-delay:2515ms"/>
<rect class="c" x="380" y="48" width="11" height="11" rx="2.5" fill="#0e4429" style="animation-delay:2530ms"/>
<rect class="c" x="380" y="62" width="11" height="11" rx="2.5" fill="#0e4429" style="animation-delay:2545ms"/>
<rect class="c" x="380" y="76" width="11" height="11" rx="2.5" fill="#0e4429" style="animation-delay:2560ms"/>
<rect class="c" x="380" y="90" width="11" height="11" rx="2.5" fill="#006d32" style="animation-delay:2575ms"/>
<rect class="c" x="380" y="104" width="11" height="11" rx="2.5" fill="#161b22" style="animation-delay:2590ms"/>
<rect class="c" x="394" y="20" width="11" height="11" rx="2.5" fill="#161b22" style="animation-delay:2600ms"/>
<rect class="c" x="394" y="34" width="11" height="11" rx="2.5" fill="#0e4429" style="animation-delay:2615ms"/>
<rect class="c" x="394" y="48" width="11" height="11" rx="2.5" fill="#0e4429" style="animation-delay:2630ms"/>
<rect class="c" x="394" y="62" width="11" height="11" rx="2.5" fill="#0e4429" style="animation-delay:2645ms"/>
<rect class="c" x="394" y="76" width="11" height="11" rx="2.5" fill="#0e4429" style="animation-delay:2660ms"/>
<rect class="c" x="394" y="90" width="11" height="11" rx="2.5" fill="#006d32" style="animation-delay:2675ms"/>
<rect class="c" x="394" y="104" width="11" height="11" rx="2.5" fill="#161b22" style="animation-delay:2690ms"/>
<rect class="c" x="408" y="20" width="11" height="11" rx="2.5" fill="#161b22" style="animation-delay:2700ms"/>
<rect class="c" x="408" y="34" width="11" height="11" rx="2.5" fill="#0e4429" style="animation-delay:2715ms"/>
<rect class="c" x="408" y="48" width="11" height="11" rx="2.5" fill="#0e4429" style="animation-delay:2730ms"/>
<rect class="c" x="408" y="62" width="11" height="11" rx="2.5" fill="#0e4429" style="animation-delay:2745ms"/>
<rect class="c" x="408" y="76" width="11" height="11" rx="2.5" fill="#006d32" style="animation-delay:2760ms"/>
<rect class="c" x="408" y="90" width="11" height="11" rx="2.5" fill="#0e4429" style="animation-delay:2775ms"/>
<rect class="c" x="408" y="104" width="11" height="11" rx="2.5" fill="#161b22" style="animation-delay:2790ms"/>
<rect class="c" x="422" y="20" width="11" height="11" rx="2.5" fill="#161b22" style="animation-delay:2800ms"/>
<rect class="c" x="422" y="34" width="11" height="11" rx="2.5" fill="#0e4429" style="animation-delay:2815ms"/>
<rect class="c" x="422" y="48" width="11" height="11" rx="2.5" fill="#0e4429" style="animation-delay:2830ms"/>
<rect class="c" x="422" y="62" width="11" height="11" rx="2.5" fill="#26a641" style="animation-delay:2845ms"/>
<rect class="c" x="422" y="76" width="11" height="11" rx="2.5" fill="#006d32" style="animation-delay:2860ms"/>
<rect class="c" x="422" y="90" width="11" height="11" rx="2.5" fill="#006d32" style="animation-delay:2875ms"/>
<rect class="c" x="422" y="104" width="11" height="11" rx="2.5" fill="#0e4429" style="animation-delay:2890ms"/>
<rect class="c" x="436" y="20" width="11" height="11" rx="2.5" fill="#0e4429" style="animation-delay:2900ms"/>
<rect class="c" x="436" y="34" width="11" height="11" rx="2.5" fill="#0e4429" style="animation-delay:2915ms"/>
<rect class="c" x="436" y="48" width="11" height="11" rx="2.5" fill="#006d32" style="animation-delay:2930ms"/>
<rect class="c" x="436" y="62" width="11" height="11" rx="2.5" fill="#39d353" style="animation-delay:2945ms"/>
<text class="t" x="30" y="132">682 contributions in 2026</text>
<text class="t" x="317" y="132">less</text>
<rect class="c" x="347" y="123" width="11" height="11" rx="2.5" fill="#161b22" style="animation-delay:3890ms"/>
<rect class="c" x="361" y="123" width="11" height="11" rx="2.5" fill="#0e4429" style="animation-delay:3890ms"/>
<rect class="c" x="375" y="123" width="11" height="11" rx="2.5" fill="#006d32" style="animation-delay:3890ms"/>
<rect class="c" x="389" y="123" width="11" height="11" rx="2.5" fill="#26a641" style="animation-delay:3890ms"/>
<rect class="c" x="403" y="123" width="11" height="11" rx="2.5" fill="#39d353" style="animation-delay:3890ms"/>
<text class="t" x="421" y="132">more</text>
</svg>
