<svg xmlns="http://www.w3.org/2000/svg" width="611" height="167" viewBox="0 0 611 167">
<style>
.c {
  opacity: 0;
  transform-box: fill-box;
  transform-origin: center;
  animation: rise .7s cubic-bezier(.22,.61,.36,1) both;
}
.t {
  opacity: 0;
  animation: fade .6s ease-out both;
  animation-delay: 3847ms;
  font-family: ui-monospace, SFMono-Regular, Menlo, monospace;
  font-size: 10px;
  fill: #8b949e;
}
.n {
  opacity: 0;
  animation: on 40ms linear;
  font-family: ui-monospace, SFMono-Regular, Menlo, monospace;
  font-size: 16px;
  font-weight: 700;
  fill: #39d353;
}
.nf {
  animation: pop .45s cubic-bezier(.22,.61,.36,1) forwards;
  transform-box: fill-box;
  transform-origin: right center;
}
.lbl {
  font-family: ui-monospace, SFMono-Regular, Menlo, monospace;
  font-size: 9px;
  fill: #8b949e;
}
@keyframes rise {
  from { opacity: 0; transform: translateY(8px) scale(.5); }
  to   { opacity: 1; transform: none; }
}
@keyframes on {
  from, to { opacity: 1; }
}
@keyframes pop {
  from { opacity: 1; transform: scale(1.15); }
  to   { opacity: 1; transform: none; }
}
@keyframes fade {
  from { opacity: 0; }
  to   { opacity: 1; }
}
@media (prefers-reduced-motion: reduce) {
  .c, .t, .nf { animation: none; opacity: 1; }
  .n:not(.nf) { display: none; }
}
</style>
<text class="lbl" x="30" y="12">jan</text>
<text class="lbl" x="100" y="12">feb</text>
<text class="lbl" x="156" y="12">mar</text>
<text class="lbl" x="226" y="12">apr</text>
<text class="lbl" x="282" y="12">may</text>
<text class="lbl" x="352" y="12">jun</text>
<text class="lbl" x="408" y="12">jul</text>
<text class="lbl" x="464" y="12">aug</text>
<text class="lbl" x="534" y="12">sep</text>
<text class="lbl" x="590" y="12">oct</text>
<text class="lbl" x="0" y="43">mon</text>
<text class="lbl" x="0" y="71">wed</text>
<text class="lbl" x="0" y="99">fri</text>
<rect class="c" x="30" y="76" width="11" height="11" rx="2.5" fill="#161b22" style="animation-delay:48ms"/>
<rect class="c" x="30" y="90" width="11" height="11" rx="2.5" fill="#161b22" style="animation-delay:60ms"/>
<rect class="c" x="30" y="104" width="11" height="11" rx="2.5" fill="#161b22" style="animation-delay:72ms"/>
<rect class="c" x="44" y="20" width="11" height="11" rx="2.5" fill="#161b22" style="animation-delay:75ms"/>
<rect class="c" x="44" y="34" width="11" height="11" rx="2.5" fill="#161b22" style="animation-delay:87ms"/>
<rect class="c" x="44" y="48" width="11" height="11" rx="2.5" fill="#161b22" style="animation-delay:99ms"/>
<rect class="c" x="44" y="62" width="11" height="11" rx="2.5" fill="#161b22" style="animation-delay:111ms"/>
<rect class="c" x="44" y="76" width="11" height="11" rx="2.5" fill="#161b22" style="animation-delay:123ms"/>
<rect class="c" x="44" y="90" width="11" height="11" rx="2.5" fill="#161b22" style="animation-delay:135ms"/>
<rect class="c" x="44" y="104" width="11" height="11" rx="2.5" fill="#161b22" style="animation-delay:147ms"/>
<rect class="c" x="58" y="20" width="11" height="11" rx="2.5" fill="#161b22" style="animation-delay:150ms"/>
<rect class="c" x="58" y="34" width="11" height="11" rx="2.5" fill="#161b22" style="animation-delay:162ms"/>
<rect class="c" x="58" y="48" width="11" height="11" rx="2.5" fill="#161b22" style="animation-delay:174ms"/>
<rect class="c" x="58" y="62" width="11" height="11" rx="2.5" fill="#161b22" style="animation-delay:186ms"/>
<rect class="c" x="58" y="76" width="11" height="11" rx="2.5" fill="#161b22" style="animation-delay:198ms"/>
<rect class="c" x="58" y="90" width="11" height="11" rx="2.5" fill="#161b22" style="animation-delay:210ms"/>
<rect class="c" x="58" y="104" width="11" height="11" rx="2.5" fill="#161b22" style="animation-delay:222ms"/>
<rect class="c" x="72" y="20" width="11" height="11" rx="2.5" fill="#161b22" style="animation-delay:225ms"/>
<rect class="c" x="72" y="34" width="11" height="11" rx="2.5" fill="#161b22" style="animation-delay:237ms"/>
<rect class="c" x="72" y="48" width="11" height="11" rx="2.5" fill="#161b22" style="animation-delay:249ms"/>
<rect class="c" x="72" y="62" width="11" height="11" rx="2.5" fill="#161b22" style="animation-delay:261ms"/>
<rect class="c" x="72" y="76" width="11" height="11" rx="2.5" fill="#161b22" style="animation-delay:273ms"/>
<rect class="c" x="72" y="90" width="11" height="11" rx="2.5" fill="#161b22" style="animation-delay:285ms"/>
<rect class="c" x="72" y="104" width="11" height="11" rx="2.5" fill="#161b22" style="animation-delay:297ms"/>
<rect class="c" x="86" y="20" width="11" height="11" rx="2.5" fill="#161b22" style="animation-delay:300ms"/>
<rect class="c" x="86" y="34" width="11" height="11" rx="2.5" fill="#161b22" style="animation-delay:312ms"/>
<rect class="c" x="86" y="48" width="11" height="11" rx="2.5" fill="#161b22" style="animation-delay:324ms"/>
<rect class="c" x="86" y="62" width="11" height="11" rx="2.5" fill="#161b22" style="animation-delay:336ms"/>
<rect class="c" x="86" y="76" width="11" height="11" rx="2.5" fill="#161b22" style="animation-delay:348ms"/>
<rect class="c" x="86" y="90" width="11" height="11" rx="2.5" fill="#161b22" style="animation-delay:360ms"/>
<rect class="c" x="86" y="104" width="11" height="11" rx="2.5" fill="#161b22" style="animation-delay:372ms"/>
<rect class="c" x="100" y="20" width="11" height="11" rx="2.5" fill="#161b22" style="animation-delay:375ms"/>
<rect class="c" x="100" y="34" width="11" height="11" rx="2.5" fill="#161b22" style="animation-delay:387ms"/>
<rect class="c" x="100" y="48" width="11" height="11" rx="2.5" fill="#161b22" style="animation-delay:399ms"/>
<rect class="c" x="100" y="62" width="11" height="11" rx="2.5" fill="#161b22" style="animation-delay:411ms"/>
<rect class="c" x="100" y="76" width="11" height="11" rx="2.5" fill="#161b22" style="animation-delay:423ms"/>
<rect class="c" x="100" y="90" width="11" height="11" rx="2.5" fill="#161b22" style="animation-delay:435ms"/>
<rect class="c" x="100" y="104" width="11" height="11" rx="2.5" fill="#161b22" style="animation-delay:447ms"/>
<rect class="c" x="114" y="20" width="11" height="11" rx="2.5" fill="#161b22" style="animation-delay:450ms"/>
<rect class="c" x="114" y="34" width="11" height="11" rx="2.5" fill="#161b22" style="animation-delay:462ms"/>
<rect class="c" x="114" y="48" width="11" height="11" rx="2.5" fill="#161b22" style="animation-delay:474ms"/>
<rect class="c" x="114" y="62" width="11" height="11" rx="2.5" fill="#161b22" style="animation-delay:486ms"/>
<rect class="c" x="114" y="76" width="11" height="11" rx="2.5" fill="#161b22" style="animation-delay:498ms"/>
<rect class="c" x="114" y="90" width="11" height="11" rx="2.5" fill="#161b22" style="animation-delay:510ms"/>
<rect class="c" x="114" y="104" width="11" height="11" rx="2.5" fill="#161b22" style="animation-delay:522ms"/>
<rect class="c" x="128" y="20" width="11" height="11" rx="2.5" fill="#161b22" style="animation-delay:525ms"/>
<rect class="c" x="128" y="34" width="11" height="11" rx="2.5" fill="#161b22" style="animation-delay:537ms"/>
<rect class="c" x="128" y="48" width="11" height="11" rx="2.5" fill="#161b22" style="animation-delay:549ms"/>
<rect class="c" x="128" y="62" width="11" height="11" rx="2.5" fill="#161b22" style="animation-delay:561ms"/>
<rect class="c" x="128" y="76" width="11" height="11" rx="2.5" fill="#161b22" style="animation-delay:573ms"/>
<rect class="c" x="128" y="90" width="11" height="11" rx="2.5" fill="#161b22" style="animation-delay:585ms"/>
<rect class="c" x="128" y="104" width="11" height="11" rx="2.5" fill="#161b22" style="animation-delay:597ms"/>
<rect class="c" x="142" y="20" width="11" height="11" rx="2.5" fill="#161b22" style="animation-delay:600ms"/>
<rect class="c" x="142" y="34" width="11" height="11" rx="2.5" fill="#161b22" style="animation-delay:612ms"/>
<rect class="c" x="142" y="48" width="11" height="11" rx="2.5" fill="#161b22" style="animation-delay:624ms"/>
<rect class="c" x="142" y="62" width="11" height="11" rx="2.5" fill="#161b22" style="animation-delay:636ms"/>
<rect class="c" x="142" y="76" width="11" height="11" rx="2.5" fill="#161b22" style="animation-delay:648ms"/>
<rect class="c" x="142" y="90" width="11" height="11" rx="2.5" fill="#161b22" style="animation-delay:660ms"/>
<rect class="c" x="142" y="104" width="11" height="11" rx="2.5" fill="#161b22" style="animation-delay:672ms"/>
<rect class="c" x="156" y="20" width="11" height="11" rx="2.5" fill="#161b22" style="animation-delay:675ms"/>
<rect class="c" x="156" y="34" width="11" height="11" rx="2.5" fill="#161b22" style="animation-delay:687ms"/>
<rect class="c" x="156" y="48" width="11" height="11" rx="2.5" fill="#161b22" style="animation-delay:699ms"/>
<rect class="c" x="156" y="62" width="11" height="11" rx="2.5" fill="#161b22" style="animation-delay:711ms"/>
<rect class="c" x="156" y="76" width="11" height="11" rx="2.5" fill="#161b22" style="animation-delay:723ms"/>
<rect class="c" x="156" y="90" width="11" height="11" rx="2.5" fill="#161b22" style="animation-delay:735ms"/>
<rect class="c" x="156" y="104" width="11" height="11" rx="2.5" fill="#161b22" style="animation-delay:747ms"/>
<rect class="c" x="170" y="20" width="11" height="11" rx="2.5" fill="#161b22" style="animation-delay:750ms"/>
<rect class="c" x="170" y="34" width="11" height="11" rx="2.5" fill="#161b22" style="animation-delay:762ms"/>
<rect class="c" x="170" y="48" width="11" height="11" rx="2.5" fill="#161b22" style="animation-delay:774ms"/>
<rect class="c" x="170" y="62" width="11" height="11" rx="2.5" fill="#161b22" style="animation-delay:786ms"/>
<rect class="c" x="170" y="76" width="11" height="11" rx="2.5" fill="#161b22" style="animation-delay:798ms"/>
<rect class="c" x="170" y="90" width="11" height="11" rx="2.5" fill="#161b22" style="animation-delay:810ms"/>
<rect class="c" x="170" y="104" width="11" height="11" rx="2.5" fill="#161b22" style="animation-delay:822ms"/>
<rect class="c" x="184" y="20" width="11" height="11" rx="2.5" fill="#161b22" style="animation-delay:825ms"/>
<rect class="c" x="184" y="34" width="11" height="11" rx="2.5" fill="#0e4429" style="animation-delay:837ms"/>
<rect class="c" x="184" y="48" width="11" height="11" rx="2.5" fill="#161b22" style="animation-delay:849ms"/>
<rect class="c" x="184" y="62" width="11" height="11" rx="2.5" fill="#161b22" style="animation-delay:861ms"/>
<rect class="c" x="184" y="76" width="11" height="11" rx="2.5" fill="#161b22" style="animation-delay:873ms"/>
<rect class="c" x="184" y="90" width="11" height="11" rx="2.5" fill="#161b22" style="animation-delay:885ms"/>
<rect class="c" x="184" y="104" width="11" height="11" rx="2.5" fill="#161b22" style="animation-delay:897ms"/>
<rect class="c" x="198" y="20" width="11" height="11" rx="2.5" fill="#161b22" style="animation-delay:900ms"/>
<rect class="c" x="198" y="34" width="11" height="11" rx="2.5" fill="#0e4429" style="animation-delay:912ms"/>
<rect class="c" x="198" y="48" width="11" height="11" rx="2.5" fill="#0e4429" style="animation-delay:924ms"/>
<rect class="c" x="198" y="62" width="11" height="11" rx="2.5" fill="#161b22" style="animation-delay:936ms"/>
<rect class="c" x="198" y="76" width="11" height="11" rx="2.5" fill="#161b22" style="animation-delay:948ms"/>
<rect class="c" x="198" y="90" width="11" height="11" rx="2.5" fill="#161b22" style="animation-delay:960ms"/>
<rect class="c" x="198" y="104" width="11" height="11" rx="2.5" fill="#161b22" style="animation-delay:972ms"/>
<rect class="c" x="212" y="20" width="11" height="11" rx="2.5" fill="#161b22" style="animation-delay:975ms"/>
<rect class="c" x="212" y="34" width="11" height="11" rx="2.5" fill="#0e4429" style="animation-delay:987ms"/>
<rect class="c" x="212" y="48" width="11" height="11" rx="2.5" fill="#161b22" style="animation-delay:999ms"/>
<rect class="c" x="212" y="62" width="11" height="11" rx="2.5" fill="#161b22" style="animation-delay:1011ms"/>
<rect class="c" x="212" y="76" width="11" height="11" rx="2.5" fill="#161b22" style="animation-delay:1023ms"/>
<rect class="c" x="212" y="90" width="11" height="11" rx="2.5" fill="#161b22" style="animation-delay:1035ms"/>
<rect class="c" x="212" y="104" width="11" height="11" rx="2.5" fill="#161b22" style="animation-delay:1047ms"/>
<rect class="c" x="226" y="20" width="11" height="11" rx="2.5" fill="#161b22" style="animation-delay:1050ms"/>
<rect class="c" x="226" y="34" width="11" height="11" rx="2.5" fill="#161b22" style="animation-delay:1062ms"/>
<rect class="c" x="226" y="48" width="11" height="11" rx="2.5" fill="#161b22" style="animation-delay:1074ms"/>
<rect class="c" x="226" y="62" width="11" height="11" rx="2.5" fill="#161b22" style="animation-delay:1086ms"/>
<rect class="c" x="226" y="76" width="11" height="11" rx="2.5" fill="#161b22" style="animation-delay:1098ms"/>
<rect class="c" x="226" y="90" width="11" height="11" rx="2.5" fill="#161b22" style="animation-delay:1110ms"/>
<rect class="c" x="226" y="104" width="11" height="11" rx="2.5" fill="#161b22" style="animation-delay:1122ms"/>
<rect class="c" x="240" y="20" width="11" height="11" rx="2.5" fill="#161b22" style="animation-delay:1125ms"/>
<rect class="c" x="240" y="34" width="11" height="11" rx="2.5" fill="#161b22" style="animation-delay:1137ms"/>
<rect class="c" x="240" y="48" width="11" height="11" rx="2.5" fill="#161b22" style="animation-delay:1149ms"/>
<rect class="c" x="240" y="62" width="11" height="11" rx="2.5" fill="#161b22" style="animation-delay:1161ms"/>
<rect class="c" x="240" y="76" width="11" height="11" rx="2.5" fill="#161b22" style="animation-delay:1173ms"/>
<rect class="c" x="240" y="90" width="11" height="11" rx="2.5" fill="#161b22" style="animation-delay:1185ms"/>
<rect class="c" x="240" y="104" width="11" height="11" rx="2.5" fill="#0e4429" style="animation-delay:1197ms"/>
<rect class="c" x="254" y="20" width="11" height="11" rx="2.5" fill="#161b22" style="animation-delay:1200ms"/>
<rect class="c" x="254" y="34" width="11" height="11" rx="2.5" fill="#161b22" style="animation-delay:1212ms"/>
<rect class="c" x="254" y="48" width="11" height="11" rx="2.5" fill="#0e4429" style="animation-delay:1224ms"/>
<rect class="c" x="254" y="62" width="11" height="11" rx="2.5" fill="#161b22" style="animation-delay:1236ms"/>
<rect class="c" x="254" y="76" width="11" height="11" rx="2.5" fill="#161b22" style="animation-delay:1248ms"/>
<rect class="c" x="254" y="90" width="11" height="11" rx="2.5" fill="#161b22" style="animation-delay:1260ms"/>
<rect class="c" x="254" y="104" width="11" height="11" rx="2.5" fill="#0e4429" style="animation-delay:1272ms"/>
<rect class="c" x="268" y="20" width="11" height="11" rx="2.5" fill="#161b22" style="animation-delay:1275ms"/>
<rect class="c" x="268" y="34" width="11" height="11" rx="2.5" fill="#0e4429" style="animation-delay:1287ms"/>
<rect class="c" x="268" y="48" width="11" height="11" rx="2.5" fill="#0e4429" style="animation-delay:1299ms"/>
<rect class="c" x="268" y="62" width="11" height="11" rx="2.5" fill="#0e4429" style="animation-delay:1311ms"/>
<rect class="c" x="268" y="76" width="11" height="11" rx="2.5" fill="#0e4429" style="animation-delay:1323ms"/>
<rect class="c" x="268" y="90" width="11" height="11" rx="2.5" fill="#0e4429" style="animation-delay:1335ms"/>
<rect class="c" x="268" y="104" width="11" height="11" rx="2.5" fill="#0e4429" style="animation-delay:1347ms"/>
<rect class="c" x="282" y="20" width="11" height="11" rx="2.5" fill="#161b22" style="animation-delay:1350ms"/>
<rect class="c" x="282" y="34" width="11" height="11" rx="2.5" fill="#161b22" style="animation-delay:1362ms"/>
<rect class="c" x="282" y="48" width="11" height="11" rx="2.5" fill="#161b22" style="animation-delay:1374ms"/>
<rect class="c" x="282" y="62" width="11" height="11" rx="2.5" fill="#0e4429" style="animation-delay:1386ms"/>
<rect class="c" x="282" y="76" width="11" height="11" rx="2.5" fill="#0e4429" style="animation-delay:1398ms"/>
<rect class="c" x="282" y="90" width="11" height="11" rx="2.5" fill="#0e4429" style="animation-delay:1410ms"/>
<rect class="c" x="282" y="104" width="11" height="11" rx="2.5" fill="#161b22" style="animation-delay:1422ms"/>
<rect class="c" x="296" y="20" width="11" height="11" rx="2.5" fill="#161b22" style="animation-delay:1425ms"/>
<rect class="c" x="296" y="34" width="11" height="11" rx="2.5" fill="#0e4429" style="animation-delay:1437ms"/>
<rect class="c" x="296" y="48" width="11" height="11" rx="2.5" fill="#161b22" style="animation-delay:1449ms"/>
<rect class="c" x="296" y="62" width="11" height="11" rx="2.5" fill="#0e4429" style="animation-delay:1461ms"/>
<rect class="c" x="296" y="76" width="11" height="11" rx="2.5" fill="#0e4429" style="animation-delay:1473ms"/>
<rect class="c" x="296" y="90" width="11" height="11" rx="2.5" fill="#0e4429" style="animation-delay:1485ms"/>
<rect class="c" x="296" y="104" width="11" height="11" rx="2.5" fill="#161b22" style="animation-delay:1497ms"/>
<rect class="c" x="310" y="20" width="11" height="11" rx="2.5" fill="#161b22" style="animation-delay:1500ms"/>
<rect class="c" x="310" y="34" width="11" height="11" rx="2.5" fill="#161b22" style="animation-delay:1512ms"/>
<rect class="c" x="310" y="48" width="11" height="11" rx="2.5" fill="#0e4429" style="animation-delay:1524ms"/>
<rect class="c" x="310" y="62" width="11" height="11" rx="2.5" fill="#0e4429" style="animation-delay:1536ms"/>
<rect class="c" x="310" y="76" width="11" height="11" rx="2.5" fill="#0e4429" style="animation-delay:1548ms"/>
<rect class="c" x="310" y="90" width="11" height="11" rx="2.5" fill="#006d32" style="animation-delay:1560ms"/>
<rect class="c" x="310" y="104" width="11" height="11" rx="2.5" fill="#161b22" style="animation-delay:1572ms"/>
<rect class="c" x="324" y="20" width="11" height="11" rx="2.5" fill="#161b22" style="animation-delay:1575ms"/>
<rect class="c" x="324" y="34" width="11" height="11" rx="2.5" fill="#006d32" style="animation-delay:1587ms"/>
<rect class="c" x="324" y="48" width="11" height="11" rx="2.5" fill="#006d32" style="animation-delay:1599ms"/>
<rect class="c" x="324" y="62" width="11" height="11" rx="2.5" fill="#006d32" style="animation-delay:1611ms"/>
<rect class="c" x="324" y="76" width="11" height="11" rx="2.5" fill="#0e4429" style="animation-delay:1623ms"/>
<rect class="c" x="324" y="90" width="11" height="11" rx="2.5" fill="#006d32" style="animation-delay:1635ms"/>
<rect class="c" x="324" y="104" width="11" height="11" rx="2.5" fill="#0e4429" style="animation-delay:1647ms"/>
<rect class="c" x="338" y="20" width="11" height="11" rx="2.5" fill="#0e4429" style="animation-delay:1650ms"/>
<rect class="c" x="338" y="34" width="11" height="11" rx="2.5" fill="#0e4429" style="animation-delay:1662ms"/>
<rect class="c" x="338" y="48" width="11" height="11" rx="2.5" fill="#006d32" style="animation-delay:1674ms"/>
<rect class="c" x="338" y="62" width="11" height="11" rx="2.5" fill="#006d32" style="animation-delay:1686ms"/>
<rect class="c" x="338" y="76" width="11" height="11" rx="2.5" fill="#0e4429" style="animation-delay:1698ms"/>
<rect class="c" x="338" y="90" width="11" height="11" rx="2.5" fill="#006d32" style="animation-delay:1710ms"/>
<rect class="c" x="338" y="104" width="11" height="11" rx="2.5" fill="#0e4429" style="animation-delay:1722ms"/>
<rect class="c" x="352" y="20" width="11" height="11" rx="2.5" fill="#161b22" style="animation-delay:1725ms"/>
<rect class="c" x="352" y="34" width="11" height="11" rx="2.5" fill="#0e4429" style="animation-delay:1737ms"/>
<rect class="c" x="352" y="48" width="11" height="11" rx="2.5" fill="#26a641" style="animation-delay:1749ms"/>
<rect class="c" x="352" y="62" width="11" height="11" rx="2.5" fill="#006d32" style="animation-delay:1761ms"/>
<rect class="c" x="352" y="76" width="11" height="11" rx="2.5" fill="#0e4429" style="animation-delay:1773ms"/>
<rect class="c" x="352" y="90" width="11" height="11" rx="2.5" fill="#006d32" style="animation-delay:1785ms"/>
<rect class="c" x="352" y="104" width="11" height="11" rx="2.5" fill="#0e4429" style="animation-delay:1797ms"/>
<rect class="c" x="366" y="20" width="11" height="11" rx="2.5" fill="#0e4429" style="animation-delay:1800ms"/>
<rect class="c" x="366" y="34" width="11" height="11" rx="2.5" fill="#0e4429" style="animation-delay:1812ms"/>
<rect class="c" x="366" y="48" width="11" height="11" rx="2.5" fill="#0e4429" style="animation-delay:1824ms"/>
<rect class="c" x="366" y="62" width="11" height="11" rx="2.5" fill="#0e4429" style="animation-delay:1836ms"/>
<rect class="c" x="366" y="76" width="11" height="11" rx="2.5" fill="#0e4429" style="animation-delay:1848ms"/>
<rect class="c" x="366" y="90" width="11" height="11" rx="2.5" fill="#006d32" style="animation-delay:1860ms"/>
<rect class="c" x="366" y="104" width="11" height="11" rx="2.5" fill="#161b22" style="animation-delay:1872ms"/>
<rect class="c" x="380" y="20" width="11" height="11" rx="2.5" fill="#161b22" style="animation-delay:1875ms"/>
<rect class="c" x="380" y="34" width="11" height="11" rx="2.5" fill="#0e4429" style="animation-delay:1887ms"/>
<rect class="c" x="380" y="48" width="11" height="11" rx="2.5" fill="#0e4429" style="animation-delay:1899ms"/>
<rect class="c" x="380" y="62" width="11" height="11" rx="2.5" fill="#0e4429" style="animation-delay:1911ms"/>
<rect class="c" x="380" y="76" width="11" height="11" rx="2.5" fill="#0e4429" style="animation-delay:1923ms"/>
<rect class="c" x="380" y="90" width="11" height="11" rx="2.5" fill="#006d32" style="animation-delay:1935ms"/>
<rect class="c" x="380" y="104" width="11" height="11" rx="2.5" fill="#161b22" style="animation-delay:1947ms"/>
<rect class="c" x="394" y="20" width="11" height="11" rx="2.5" fill="#161b22" style="animation-delay:1950ms"/>
<rect class="c" x="394" y="34" width="11" height="11" rx="2.5" fill="#0e4429" style="animation-delay:1962ms"/>
<rect class="c" x="394" y="48" width="11" height="11" rx="2.5" fill="#0e4429" style="animation-delay:1974ms"/>
<rect class="c" x="394" y="62" width="11" height="11" rx="2.5" fill="#0e4429" style="animation-delay:1986ms"/>
<rect class="c" x="394" y="76" width="11" height="11" rx="2.5" fill="#0e4429" style="animation-delay:1998ms"/>
<rect class="c" x="394" y="90" width="11" height="11" rx="2.5" fill="#0e4429" style="animation-delay:2010ms"/>
<rect class="c" x="394" y="104" width="11" height="11" rx="2.5" fill="#161b22" style="animation-delay:2022ms"/>
<rect class="c" x="408" y="20" width="11" height="11" rx="2.5" fill="#161b22" style="animation-delay:2025ms"/>
<rect class="c" x="408" y="34" width="11" height="11" rx="2.5" fill="#0e4429" style="animation-delay:2037ms"/>
<rect class="c" x="408" y="48" width="11" height="11" rx="2.5" fill="#0e4429" style="animation-delay:2049ms"/>
<rect class="c" x="408" y="62" width="11" height="11" rx="2.5" fill="#0e4429" style="animation-delay:2061ms"/>
<rect class="c" x="408" y="76" width="11" height="11" rx="2.5" fill="#0e4429" style="animation-delay:2073ms"/>
<rect class="c" x="408" y="90" width="11" height="11" rx="2.5" fill="#0e4429" style="animation-delay:2085ms"/>
<rect class="c" x="408" y="104" width="11" height="11" rx="2.5" fill="#161b22" style="animation-delay:2097ms"/>
<rect class="c" x="422" y="20" width="11" height="11" rx="2.5" fill="#161b22" style="animation-delay:2100ms"/>
<rect class="c" x="422" y="34" width="11" height="11" rx="2.5" fill="#0e4429" style="animation-delay:2112ms"/>
<rect class="c" x="422" y="48" width="11" height="11" rx="2.5" fill="#0e4429" style="animation-delay:2124ms"/>
<rect class="c" x="422" y="62" width="11" height="11" rx="2.5" fill="#006d32" style="animation-delay:2136ms"/>
<rect class="c" x="422" y="76" width="11" height="11" rx="2.5" fill="#0e4429" style="animation-delay:2148ms"/>
<rect class="c" x="422" y="90" width="11" height="11" rx="2.5" fill="#0e4429" style="animation-delay:2160ms"/>
<rect class="c" x="422" y="104" width="11" height="11" rx="2.5" fill="#0e4429" style="animation-delay:2172ms"/>
<rect class="c" x="436" y="20" width="11" height="11" rx="2.5" fill="#0e4429" style="animation-delay:2175ms"/>
<rect class="c" x="436" y="34" width="11" height="11" rx="2.5" fill="#0e4429" style="animation-delay:2187ms"/>
<rect class="c" x="436" y="48" width="11" height="11" rx="2.5" fill="#0e4429" style="animation-delay:2199ms"/>
<rect class="c" x="436" y="62" width="11" height="11" rx="2.5" fill="#39d353" style="animation-delay:2211ms"/>
<rect class="c" x="436" y="76" width="11" height="11" rx="2.5" fill="#0e4429" style="animation-delay:2223ms"/>
<rect class="c" x="436" y="90" width="11" height="11" rx="2.5" fill="#0e4429" style="animation-delay:2235ms"/>
<rect class="c" x="436" y="104" width="11" height="11" rx="2.5" fill="#161b22" style="animation-delay:2247ms"/>
<rect class="c" x="450" y="20" width="11" height="11" rx="2.5" fill="#161b22" style="animation-delay:2250ms"/>
<rect class="c" x="450" y="34" width="11" height="11" rx="2.5" fill="#0e4429" style="animation-delay:2262ms"/>
<rect class="c" x="450" y="48" width="11" height="11" rx="2.5" fill="#0e4429" style="animation-delay:2274ms"/>
<rect class="c" x="450" y="62" width="11" height="11" rx="2.5" fill="#0e4429" style="animation-delay:2286ms"/>
<rect class="c" x="450" y="76" width="11" height="11" rx="2.5" fill="#0e4429" style="animation-delay:2298ms"/>
<rect class="c" x="450" y="90" width="11" height="11" rx="2.5" fill="#0e4429" style="animation-delay:2310ms"/>
<rect class="c" x="450" y="104" width="11" height="11" rx="2.5" fill="#0e4429" style="animation-delay:2322ms"/>
<rect class="c" x="464" y="20" width="11" height="11" rx="2.5" fill="#161b22" style="animation-delay:2325ms"/>
<rect class="c" x="464" y="34" width="11" height="11" rx="2.5" fill="#161b22" style="animation-delay:2337ms"/>
<rect class="c" x="464" y="48" width="11" height="11" rx="2.5" fill="#0e4429" style="animation-delay:2349ms"/>
<rect class="c" x="464" y="62" width="11" height="11" rx="2.5" fill="#26a641" style="animation-delay:2361ms"/>
<rect class="c" x="464" y="76" width="11" height="11" rx="2.5" fill="#0e4429" style="animation-delay:2373ms"/>
<rect class="c" x="464" y="90" width="11" height="11" rx="2.5" fill="#006d32" style="animation-delay:2385ms"/>
<rect class="c" x="464" y="104" width="11" height="11" rx="2.5" fill="#006d32" style="animation-delay:2397ms"/>
<rect class="c" x="478" y="20" width="11" height="11" rx="2.5" fill="#26a641" style="animation-delay:2400ms"/>
<rect class="c" x="478" y="34" width="11" height="11" rx="2.5" fill="#0e4429" style="animation-delay:2412ms"/>
<rect class="c" x="478" y="48" width="11" height="11" rx="2.5" fill="#0e4429" style="animation-delay:2424ms"/>
<rect class="c" x="478" y="62" width="11" height="11" rx="2.5" fill="#0e4429" style="animation-delay:2436ms"/>
<rect class="c" x="478" y="76" width="11" height="11" rx="2.5" fill="#0e4429" style="animation-delay:2448ms"/>
<rect class="c" x="478" y="90" width="11" height="11" rx="2.5" fill="#006d32" style="animation-delay:2460ms"/>
<rect class="c" x="478" y="104" width="11" height="11" rx="2.5" fill="#0e4429" style="animation-delay:2472ms"/>
<rect class="c" x="492" y="20" width="11" height="11" rx="2.5" fill="#0e4429" style="animation-delay:2475ms"/>
<rect class="c" x="492" y="34" width="11" height="11" rx="2.5" fill="#0e4429" style="animation-delay:2487ms"/>
<rect class="c" x="492" y="48" width="11" height="11" rx="2.5" fill="#0e4429" style="animation-delay:2499ms"/>
<rect class="c" x="492" y="62" width="11" height="11" rx="2.5" fill="#0e4429" style="animation-delay:2511ms"/>
<rect class="c" x="492" y="76" width="11" height="11" rx="2.5" fill="#0e4429" style="animation-delay:2523ms"/>
<rect class="c" x="492" y="90" width="11" height="11" rx="2.5" fill="#0e4429" style="animation-delay:2535ms"/>
<rect class="c" x="492" y="104" width="11" height="11" rx="2.5" fill="#161b22" style="animation-delay:2547ms"/>
<rect class="c" x="506" y="20" width="11" height="11" rx="2.5" fill="#0e4429" style="animation-delay:2550ms"/>
<rect class="c" x="506" y="34" width="11" height="11" rx="2.5" fill="#0e4429" style="animation-delay:2562ms"/>
<rect class="c" x="506" y="48" width="11" height="11" rx="2.5" fill="#0e4429" style="animation-delay:2574ms"/>
<rect class="c" x="506" y="62" width="11" height="11" rx="2.5" fill="#0e4429" style="animation-delay:2586ms"/>
<rect class="c" x="506" y="76" width="11" height="11" rx="2.5" fill="#0e4429" style="animation-delay:2598ms"/>
<rect class="c" x="506" y="90" width="11" height="11" rx="2.5" fill="#0e4429" style="animation-delay:2610ms"/>
<rect class="c" x="506" y="104" width="11" height="11" rx="2.5" fill="#0e4429" style="animation-delay:2622ms"/>
<rect class="c" x="520" y="20" width="11" height="11" rx="2.5" fill="#0e4429" style="animation-delay:2625ms"/>
<rect class="c" x="520" y="34" width="11" height="11" rx="2.5" fill="#0e4429" style="animation-delay:2637ms"/>
<rect class="c" x="520" y="48" width="11" height="11" rx="2.5" fill="#0e4429" style="animation-delay:2649ms"/>
<rect class="c" x="520" y="62" width="11" height="11" rx="2.5" fill="#0e4429" style="animation-delay:2661ms"/>
<rect class="c" x="520" y="76" width="11" height="11" rx="2.5" fill="#161b22" style="animation-delay:2673ms"/>
<rect class="c" x="520" y="90" width="11" height="11" rx="2.5" fill="#161b22" style="animation-delay:2685ms"/>
<rect class="c" x="520" y="104" width="11" height="11" rx="2.5" fill="#161b22" style="animation-delay:2697ms"/>
<rect class="c" x="534" y="20" width="11" height="11" rx="2.5" fill="#161b22" style="animation-delay:2700ms"/>
<rect class="c" x="534" y="34" width="11" height="11" rx="2.5" fill="#0e4429" style="animation-delay:2712ms"/>
<rect class="c" x="534" y="48" width="11" height="11" rx="2.5" fill="#161b22" style="animation-delay:2724ms"/>
<rect class="c" x="534" y="62" width="11" height="11" rx="2.5" fill="#161b22" style="animation-delay:2736ms"/>
<rect class="c" x="534" y="76" width="11" height="11" rx="2.5" fill="#161b22" style="animation-delay:2748ms"/>
<rect class="c" x="534" y="90" width="11" height="11" rx="2.5" fill="#161b22" style="animation-delay:2760ms"/>
<rect class="c" x="534" y="104" width="11" height="11" rx="2.5" fill="#161b22" style="animation-delay:2772ms"/>
<rect class="c" x="548" y="20" width="11" height="11" rx="2.5" fill="#161b22" style="animation-delay:2775ms"/>
<rect class="c" x="548" y="34" width="11" height="11" rx="2.5" fill="#161b22" style="animation-delay:2787ms"/>
<rect class="c" x="548" y="48" width="11" height="11" rx="2.5" fill="#0e4429" style="animation-delay:2799ms"/>
<rect class="c" x="548" y="62" width="11" height="11" rx="2.5" fill="#161b22" style="animation-delay:2811ms"/>
<rect class="c" x="548" y="76" width="11" height="11" rx="2.5" fill="#161b22" style="animation-delay:2823ms"/>
<rect class="c" x="548" y="90" width="11" height="11" rx="2.5" fill="#161b22" style="animation-delay:2835ms"/>
<rect class="c" x="548" y="104" width="11" height="11" rx="2.5" fill="#0e4429" style="animation-delay:2847ms"/>
<rect class="c" x="562" y="20" width="11" height="11" rx="2.5" fill="#0e4429" style="animation-delay:2850ms"/>
<rect class="c" x="562" y="34" width="11" height="11" rx="2.5" fill="#0e4429" style="animation-delay:2862ms"/>
<rect class="c" x="562" y="48" width="11" height="11" rx="2.5" fill="#0e4429" style="animation-delay:2874ms"/>
<rect class="c" x="562" y="62" width="11" height="11" rx="2.5" fill="#0e4429" style="animation-delay:2886ms"/>
<rect class="c" x="562" y="76" width="11" height="11" rx="2.5" fill="#39d353" style="animation-delay:2898ms"/>
<rect class="c" x="562" y="90" width="11" height="11" rx="2.5" fill="#0e4429" style="animation-delay:2910ms"/>
<rect class="c" x="562" y="104" width="11" height="11" rx="2.5" fill="#161b22" style="animation-delay:2922ms"/>
<rect class="c" x="576" y="20" width="11" height="11" rx="2.5" fill="#0e4429" style="animation-delay:2925ms"/>
<rect class="c" x="576" y="34" width="11" height="11" rx="2.5" fill="#0e4429" style="animation-delay:2937ms"/>
<rect class="c" x="576" y="48" width="11" height="11" rx="2.5" fill="#26a641" style="animation-delay:2949ms"/>
<rect class="c" x="576" y="62" width="11" height="11" rx="2.5" fill="#006d32" style="animation-delay:2961ms"/>
<rect class="c" x="576" y="76" width="11" height="11" rx="2.5" fill="#0e4429" style="animation-delay:2973ms"/>
<rect class="c" x="576" y="90" width="11" height="11" rx="2.5" fill="#0e4429" style="animation-delay:2985ms"/>
<rect class="c" x="576" y="104" width="11" height="11" rx="2.5" fill="#0e4429" style="animation-delay:2997ms"/>
<rect class="c" x="590" y="20" width="11" height="11" rx="2.5" fill="#0e4429" style="animation-delay:3000ms"/>
<rect class="c" x="590" y="34" width="11" height="11" rx="2.5" fill="#39d353" style="animation-delay:3012ms"/>
<rect class="c" x="590" y="48" width="11" height="11" rx="2.5" fill="#39d353" style="animation-delay:3024ms"/>
<text class="t" x="471" y="132">less</text>
<rect class="c" x="501" y="123" width="11" height="11" rx="2.5" fill="#161b22" style="animation-delay:3847ms"/>
<rect class="c" x="515" y="123" width="11" height="11" rx="2.5" fill="#0e4429" style="animation-delay:3847ms"/>
<rect class="c" x="529" y="123" width="11" height="11" rx="2.5" fill="#006d32" style="animation-delay:3847ms"/>
<rect class="c" x="543" y="123" width="11" height="11" rx="2.5" fill="#26a641" style="animation-delay:3847ms"/>
<rect class="c" x="557" y="123" width="11" height="11" rx="2.5" fill="#39d353" style="animation-delay:3847ms"/>
<text class="t" x="575" y="132">more</text>
<text class="n" x="260.9" y="160" text-anchor="end" style="animation-delay:3847ms">141</text>
<text class="n" x="260.9" y="160" text-anchor="end" style="animation-delay:3887ms">272</text>
<text class="n" x="260.9" y="160" text-anchor="end" style="animation-delay:3927ms">395</text>
<text class="n" x="260.9" y="160" text-anchor="end" style="animation-delay:3967ms">509</text>
<text class="n" x="260.9" y="160" text-anchor="end" style="animation-delay:4007ms">614</text>
<text class="n" x="260.9" y="160" text-anchor="end" style="animation-delay:4047ms">711</text>
<text class="n" x="260.9" y="160" text-anchor="end" style="animation-delay:4087ms">800</text>
<text class="n" x="260.9" y="160" text-anchor="end" style="animation-delay:4127ms">882</text>
<text class="n" x="260.9" y="160" text-anchor="end" style="animation-delay:4167ms">957</text>
<text class="n" x="260.9" y="160" text-anchor="end" style="animation-delay:4207ms">1,025</text>
<text class="n" x="260.9" y="160" text-anchor="end" style="animation-delay:4247ms">1,087</text>
<text class="n" x="260.9" y="160" text-anchor="end" style="animation-delay:4287ms">1,142</text>
<text class="n" x="260.9" y="160" text-anchor="end" style="animation-delay:4327ms">1,192</text>
<text class="n" x="260.9" y="160" text-anchor="end" style="animation-delay:4367ms">1,236</text>
<text class="n" x="260.9" y="160" text-anchor="end" style="animation-delay:4407ms">1,275</text>
<text class="n" x="260.9" y="160" text-anchor="end" style="animation-delay:4447ms">1,309</text>
<text class="n" x="260.9" y="160" text-anchor="end" style="animation-delay:4487ms">1,338</text>
<text class="n" x="260.9" y="160" text-anchor="end" style="animation-delay:4527ms">1,364</text>
<text class="n" x="260.9" y="160" text-anchor="end" style="animation-delay:4567ms">1,385</text>
<text class="n" x="260.9" y="160" text-anchor="end" style="animation-delay:4607ms">1,403</text>
<text class="n" x="260.9" y="160" text-anchor="end" style="animation-delay:4647ms">1,418</text>
<text class="n" x="260.9" y="160" text-anchor="end" style="animation-delay:4687ms">1,429</text>
<text class="n" x="260.9" y="160" text-anchor="end" style="animation-delay:4727ms">1,438</text>
<text class="n" x="260.9" y="160" text-anchor="end" style="animation-delay:4767ms">1,445</text>
<text class="n" x="260.9" y="160" text-anchor="end" style="animation-delay:4807ms">1,450</text>
<text class="n" x="260.9" y="160" text-anchor="end" style="animation-delay:4847ms">1,454</text>
<text class="n" x="260.9" y="160" text-anchor="end" style="animation-delay:4887ms">1,456</text>
<text class="n" x="260.9" y="160" text-anchor="end" style="animation-delay:4927ms">1,457</text>
<text class="n" x="260.9" y="160" text-anchor="end" style="animation-delay:4967ms">1,457</text>
<text class="n nf" x="260.9" y="160" text-anchor="end" style="animation-delay:5007ms">1,457</text>
<text class="t" x="266.9" y="160" style="font-size:12px">contributions in 2026</text>
</svg>
