<svg xmlns="http://www.w3.org/2000/svg" width="457" height="141" viewBox="0 0 457 141">
<style>
.c {
  opacity: 0;
  transform-box: fill-box;
  transform-origin: center;
  animation: rise .9s cubic-bezier(.22,.61,.36,1) both;
}
.t {
  opacity: 0;
  animation: fade .6s ease-out both;
  animation-delay: 5208ms;
  font-family: ui-monospace, SFMono-Regular, Menlo, monospace;
  font-size: 10px;
  fill: #57606a;
}
.lbl {
  font-family: ui-monospace, SFMono-Regular, Menlo, monospace;
  font-size: 9px;
  fill: #57606a;
}
@keyframes rise {
  from { opacity: 0; transform: translateY(8px) scale(.5); }
  to   { opacity: 1; transform: none; }
}
@keyframes fade {
  from { opacity: 0; }
  to   { opacity: 1; }
}
@media (prefers-reduced-motion: reduce) {
  .c, .t { animation: none; opacity: 1; }
}
</style>
<text class="lbl" x="30" y="12">jan</text>
<text class="lbl" x="100" y="12">feb</text>
<text class="lbl" x="156" y="12">mar</text>
<text class="lbl" x="226" y="12">apr</text>
<text class="lbl" x="282" y="12">may</text>
<text class="lbl" x="352" y="12">jun</text>
<text class="lbl" x="408" y="12">jul</text>
<text class="lbl" x="0" y="43">mon</text>
<text class="lbl" x="0" y="71">wed</text>
<text class="lbl" x="0" y="99">fri</text>
<rect class="c" x="30" y="76" width="11" height="11" rx="2.5" fill="#ebedf0" style="animation-delay:72ms"/>
<rect class="c" x="30" y="90" width="11" height="11" rx="2.5" fill="#ebedf0" style="animation-delay:90ms"/>
<rect class="c" x="30" y="104" width="11" height="11" rx="2.5" fill="#ebedf0" style="animation-delay:108ms"/>
<rect class="c" x="44" y="20" width="11" height="11" rx="2.5" fill="#ebedf0" style="animation-delay:140ms"/>
<rect class="c" x="44" y="34" width="11" height="11" rx="2.5" fill="#ebedf0" style="animation-delay:158ms"/>
<rect class="c" x="44" y="48" width="11" height="11" rx="2.5" fill="#ebedf0" style="animation-delay:176ms"/>
<rect class="c" x="44" y="62" width="11" height="11" rx="2.5" fill="#ebedf0" style="animation-delay:194ms"/>
<rect class="c" x="44" y="76" width="11" height="11" rx="2.5" fill="#ebedf0" style="animation-delay:212ms"/>
<rect class="c" x="44" y="90" width="11" height="11" rx="2.5" fill="#ebedf0" style="animation-delay:230ms"/>
<rect class="c" x="44" y="104" width="11" height="11" rx="2.5" fill="#ebedf0" style="animation-delay:248ms"/>
<rect class="c" x="58" y="20" width="11" height="11" rx="2.5" fill="#ebedf0" style="animation-delay:280ms"/>
<rect class="c" x="58" y="34" width="11" height="11" rx="2.5" fill="#ebedf0" style="animation-delay:298ms"/>
<rect class="c" x="58" y="48" width="11" height="11" rx="2.5" fill="#ebedf0" style="animation-delay:316ms"/>
<rect class="c" x="58" y="62" width="11" height="11" rx="2.5" fill="#ebedf0" style="animation-delay:334ms"/>
<rect class="c" x="58" y="76" width="11" height="11" rx="2.5" fill="#ebedf0" style="animation-delay:352ms"/>
<rect class="c" x="58" y="90" width="11" height="11" rx="2.5" fill="#ebedf0" style="animation-delay:370ms"/>
<rect class="c" x="58" y="104" width="11" height="11" rx="2.5" fill="#ebedf0" style="animation-delay:388ms"/>
<rect class="c" x="72" y="20" width="11" height="11" rx="2.5" fill="#ebedf0" style="animation-delay:420ms"/>
<rect class="c" x="72" y="34" width="11" height="11" rx="2.5" fill="#ebedf0" style="animation-delay:438ms"/>
<rect class="c" x="72" y="48" width="11" height="11" rx="2.5" fill="#ebedf0" style="animation-delay:456ms"/>
<rect class="c" x="72" y="62" width="11" height="11" rx="2.5" fill="#ebedf0" style="animation-delay:474ms"/>
<rect class="c" x="72" y="76" width="11" height="11" rx="2.5" fill="#ebedf0" style="animation-delay:492ms"/>
<rect class="c" x="72" y="90" width="11" height="11" rx="2.5" fill="#ebedf0" style="animation-delay:510ms"/>
<rect class="c" x="72" y="104" width="11" height="11" rx="2.5" fill="#ebedf0" style="animation-delay:528ms"/>
<rect class="c" x="86" y="20" width="11" height="11" rx="2.5" fill="#ebedf0" style="animation-delay:560ms"/>
<rect class="c" x="86" y="34" width="11" height="11" rx="2.5" fill="#ebedf0" style="animation-delay:578ms"/>
<rect class="c" x="86" y="48" width="11" height="11" rx="2.5" fill="#ebedf0" style="animation-delay:596ms"/>
<rect class="c" x="86" y="62" width="11" height="11" rx="2.5" fill="#ebedf0" style="animation-delay:614ms"/>
<rect class="c" x="86" y="76" width="11" height="11" rx="2.5" fill="#ebedf0" style="animation-delay:632ms"/>
<rect class="c" x="86" y="90" width="11" height="11" rx="2.5" fill="#ebedf0" style="animation-delay:650ms"/>
<rect class="c" x="86" y="104" width="11" height="11" rx="2.5" fill="#ebedf0" style="animation-delay:668ms"/>
<rect class="c" x="100" y="20" width="11" height="11" rx="2.5" fill="#ebedf0" style="animation-delay:700ms"/>
<rect class="c" x="100" y="34" width="11" height="11" rx="2.5" fill="#ebedf0" style="animation-delay:718ms"/>
<rect class="c" x="100" y="48" width="11" height="11" rx="2.5" fill="#ebedf0" style="animation-delay:736ms"/>
<rect class="c" x="100" y="62" width="11" height="11" rx="2.5" fill="#ebedf0" style="animation-delay:754ms"/>
<rect class="c" x="100" y="76" width="11" height="11" rx="2.5" fill="#ebedf0" style="animation-delay:772ms"/>
<rect class="c" x="100" y="90" width="11" height="11" rx="2.5" fill="#ebedf0" style="animation-delay:790ms"/>
<rect class="c" x="100" y="104" width="11" height="11" rx="2.5" fill="#ebedf0" style="animation-delay:808ms"/>
<rect class="c" x="114" y="20" width="11" height="11" rx="2.5" fill="#ebedf0" style="animation-delay:840ms"/>
<rect class="c" x="114" y="34" width="11" height="11" rx="2.5" fill="#ebedf0" style="animation-delay:858ms"/>
<rect class="c" x="114" y="48" width="11" height="11" rx="2.5" fill="#ebedf0" style="animation-delay:876ms"/>
<rect class="c" x="114" y="62" width="11" height="11" rx="2.5" fill="#ebedf0" style="animation-delay:894ms"/>
<rect class="c" x="114" y="76" width="11" height="11" rx="2.5" fill="#ebedf0" style="animation-delay:912ms"/>
<rect class="c" x="114" y="90" width="11" height="11" rx="2.5" fill="#ebedf0" style="animation-delay:930ms"/>
<rect class="c" x="114" y="104" width="11" height="11" rx="2.5" fill="#ebedf0" style="animation-delay:948ms"/>
<rect class="c" x="128" y="20" width="11" height="11" rx="2.5" fill="#ebedf0" style="animation-delay:980ms"/>
<rect class="c" x="128" y="34" width="11" height="11" rx="2.5" fill="#ebedf0" style="animation-delay:998ms"/>
<rect class="c" x="128" y="48" width="11" height="11" rx="2.5" fill="#ebedf0" style="animation-delay:1016ms"/>
<rect class="c" x="128" y="62" width="11" height="11" rx="2.5" fill="#ebedf0" style="animation-delay:1034ms"/>
<rect class="c" x="128" y="76" width="11" height="11" rx="2.5" fill="#ebedf0" style="animation-delay:1052ms"/>
<rect class="c" x="128" y="90" width="11" height="11" rx="2.5" fill="#ebedf0" style="animation-delay:1070ms"/>
<rect class="c" x="128" y="104" width="11" height="11" rx="2.5" fill="#ebedf0" style="animation-delay:1088ms"/>
<rect class="c" x="142" y="20" width="11" height="11" rx="2.5" fill="#ebedf0" style="animation-delay:1120ms"/>
<rect class="c" x="142" y="34" width="11" height="11" rx="2.5" fill="#ebedf0" style="animation-delay:1138ms"/>
<rect class="c" x="142" y="48" width="11" height="11" rx="2.5" fill="#ebedf0" style="animation-delay:1156ms"/>
<rect class="c" x="142" y="62" width="11" height="11" rx="2.5" fill="#ebedf0" style="animation-delay:1174ms"/>
<rect class="c" x="142" y="76" width="11" height="11" rx="2.5" fill="#ebedf0" style="animation-delay:1192ms"/>
<rect class="c" x="142" y="90" width="11" height="11" rx="2.5" fill="#ebedf0" style="animation-delay:1210ms"/>
<rect class="c" x="142" y="104" width="11" height="11" rx="2.5" fill="#ebedf0" style="animation-delay:1228ms"/>
<rect class="c" x="156" y="20" width="11" height="11" rx="2.5" fill="#ebedf0" style="animation-delay:1260ms"/>
<rect class="c" x="156" y="34" width="11" height="11" rx="2.5" fill="#ebedf0" style="animation-delay:1278ms"/>
<rect class="c" x="156" y="48" width="11" height="11" rx="2.5" fill="#ebedf0" style="animation-delay:1296ms"/>
<rect class="c" x="156" y="62" width="11" height="11" rx="2.5" fill="#ebedf0" style="animation-delay:1314ms"/>
<rect class="c" x="156" y="76" width="11" height="11" rx="2.5" fill="#ebedf0" style="animation-delay:1332ms"/>
<rect class="c" x="156" y="90" width="11" height="11" rx="2.5" fill="#ebedf0" style="animation-delay:1350ms"/>
<rect class="c" x="156" y="104" width="11" height="11" rx="2.5" fill="#ebedf0" style="animation-delay:1368ms"/>
<rect class="c" x="170" y="20" width="11" height="11" rx="2.5" fill="#ebedf0" style="animation-delay:1400ms"/>
<rect class="c" x="170" y="34" width="11" height="11" rx="2.5" fill="#ebedf0" style="animation-delay:1418ms"/>
<rect class="c" x="170" y="48" width="11" height="11" rx="2.5" fill="#ebedf0" style="animation-delay:1436ms"/>
<rect class="c" x="170" y="62" width="11" height="11" rx="2.5" fill="#ebedf0" style="animation-delay:1454ms"/>
<rect class="c" x="170" y="76" width="11" height="11" rx="2.5" fill="#ebedf0" style="animation-delay:1472ms"/>
<rect class="c" x="170" y="90" width="11" height="11" rx="2.5" fill="#ebedf0" style="animation-delay:1490ms"/>
<rect class="c" x="170" y="104" width="11" height="11" rx="2.5" fill="#ebedf0" style="animation-delay:1508ms"/>
<rect class="c" x="184" y="20" width="11" height="11" rx="2.5" fill="#ebedf0" style="animation-delay:1540ms"/>
<rect class="c" x="184" y="34" width="11" height="11" rx="2.5" fill="#40c463" style="animation-delay:1558ms"/>
<rect class="c" x="184" y="48" width="11" height="11" rx="2.5" fill="#ebedf0" style="animation-delay:1576ms"/>
<rect class="c" x="184" y="62" width="11" height="11" rx="2.5" fill="#ebedf0" style="animation-delay:1594ms"/>
<rect class="c" x="184" y="76" width="11" height="11" rx="2.5" fill="#ebedf0" style="animation-delay:1612ms"/>
<rect class="c" x="184" y="90" width="11" height="11" rx="2.5" fill="#ebedf0" style="animation-delay:1630ms"/>
<rect class="c" x="184" y="104" width="11" height="11" rx="2.5" fill="#ebedf0" style="animation-delay:1648ms"/>
<rect class="c" x="198" y="20" width="11" height="11" rx="2.5" fill="#ebedf0" style="animation-delay:1680ms"/>
<rect class="c" x="198" y="34" width="11" height="11" rx="2.5" fill="#40c463" style="animation-delay:1698ms"/>
<rect class="c" x="198" y="48" width="11" height="11" rx="2.5" fill="#9be9a8" style="animation-delay:1716ms"/>
<rect class="c" x="198" y="62" width="11" height="11" rx="2.5" fill="#ebedf0" style="animation-delay:1734ms"/>
<rect class="c" x="198" y="76" width="11" height="11" rx="2.5" fill="#ebedf0" style="animation-delay:1752ms"/>
<rect class="c" x="198" y="90" width="11" height="11" rx="2.5" fill="#ebedf0" style="animation-delay:1770ms"/>
<rect class="c" x="198" y="104" width="11" height="11" rx="2.5" fill="#ebedf0" style="animation-delay:1788ms"/>
<rect class="c" x="212" y="20" width="11" height="11" rx="2.5" fill="#ebedf0" style="animation-delay:1820ms"/>
<rect class="c" x="212" y="34" width="11" height="11" rx="2.5" fill="#9be9a8" style="animation-delay:1838ms"/>
<rect class="c" x="212" y="48" width="11" height="11" rx="2.5" fill="#ebedf0" style="animation-delay:1856ms"/>
<rect class="c" x="212" y="62" width="11" height="11" rx="2.5" fill="#ebedf0" style="animation-delay:1874ms"/>
<rect class="c" x="212" y="76" width="11" height="11" rx="2.5" fill="#ebedf0" style="animation-delay:1892ms"/>
<rect class="c" x="212" y="90" width="11" height="11" rx="2.5" fill="#ebedf0" style="animation-delay:1910ms"/>
<rect class="c" x="212" y="104" width="11" height="11" rx="2.5" fill="#ebedf0" style="animation-delay:1928ms"/>
<rect class="c" x="226" y="20" width="11" height="11" rx="2.5" fill="#ebedf0" style="animation-delay:1960ms"/>
<rect class="c" x="226" y="34" width="11" height="11" rx="2.5" fill="#ebedf0" style="animation-delay:1978ms"/>
<rect class="c" x="226" y="48" width="11" height="11" rx="2.5" fill="#ebedf0" style="animation-delay:1996ms"/>
<rect class="c" x="226" y="62" width="11" height="11" rx="2.5" fill="#ebedf0" style="animation-delay:2014ms"/>
<rect class="c" x="226" y="76" width="11" height="11" rx="2.5" fill="#ebedf0" style="animation-delay:2032ms"/>
<rect class="c" x="226" y="90" width="11" height="11" rx="2.5" fill="#ebedf0" style="animation-delay:2050ms"/>
<rect class="c" x="226" y="104" width="11" height="11" rx="2.5" fill="#ebedf0" style="animation-delay:2068ms"/>
<rect class="c" x="240" y="20" width="11" height="11" rx="2.5" fill="#ebedf0" style="animation-delay:2100ms"/>
<rect class="c" x="240" y="34" width="11" height="11" rx="2.5" fill="#ebedf0" style="animation-delay:2118ms"/>
<rect class="c" x="240" y="48" width="11" height="11" rx="2.5" fill="#ebedf0" style="animation-delay:2136ms"/>
<rect class="c" x="240" y="62" width="11" height="11" rx="2.5" fill="#ebedf0" style="animation-delay:2154ms"/>
<rect class="c" x="240" y="76" width="11" height="11" rx="2.5" fill="#ebedf0" style="animation-delay:2172ms"/>
<rect class="c" x="240" y="90" width="11" height="11" rx="2.5" fill="#ebedf0" style="animation-delay:2190ms"/>
<rect class="c" x="240" y="104" width="11" height="11" rx="2.5" fill="#9be9a8" style="animation-delay:2208ms"/>
<rect class="c" x="254" y="20" width="11" height="11" rx="2.5" fill="#ebedf0" style="animation-delay:2240ms"/>
<rect class="c" x="254" y="34" width="11" height="11" rx="2.5" fill="#ebedf0" style="animation-delay:2258ms"/>
<rect class="c" x="254" y="48" width="11" height="11" rx="2.5" fill="#9be9a8" style="animation-delay:2276ms"/>
<rect class="c" x="254" y="62" width="11" height="11" rx="2.5" fill="#ebedf0" style="animation-delay:2294ms"/>
<rect class="c" x="254" y="76" width="11" height="11" rx="2.5" fill="#ebedf0" style="animation-delay:2312ms"/>
<rect class="c" x="254" y="90" width="11" height="11" rx="2.5" fill="#ebedf0" style="animation-delay:2330ms"/>
<rect class="c" x="254" y="104" width="11" height="11" rx="2.5" fill="#9be9a8" style="animation-delay:2348ms"/>
<rect class="c" x="268" y="20" width="11" height="11" rx="2.5" fill="#ebedf0" style="animation-delay:2380ms"/>
<rect class="c" x="268" y="34" width="11" height="11" rx="2.5" fill="#9be9a8" style="animation-delay:2398ms"/>
<rect class="c" x="268" y="48" width="11" height="11" rx="2.5" fill="#40c463" style="animation-delay:2416ms"/>
<rect class="c" x="268" y="62" width="11" height="11" rx="2.5" fill="#9be9a8" style="animation-delay:2434ms"/>
<rect class="c" x="268" y="76" width="11" height="11" rx="2.5" fill="#9be9a8" style="animation-delay:2452ms"/>
<rect class="c" x="268" y="90" width="11" height="11" rx="2.5" fill="#9be9a8" style="animation-delay:2470ms"/>
<rect class="c" x="268" y="104" width="11" height="11" rx="2.5" fill="#9be9a8" style="animation-delay:2488ms"/>
<rect class="c" x="282" y="20" width="11" height="11" rx="2.5" fill="#ebedf0" style="animation-delay:2520ms"/>
<rect class="c" x="282" y="34" width="11" height="11" rx="2.5" fill="#ebedf0" style="animation-delay:2538ms"/>
<rect class="c" x="282" y="48" width="11" height="11" rx="2.5" fill="#ebedf0" style="animation-delay:2556ms"/>
<rect class="c" x="282" y="62" width="11" height="11" rx="2.5" fill="#9be9a8" style="animation-delay:2574ms"/>
<rect class="c" x="282" y="76" width="11" height="11" rx="2.5" fill="#9be9a8" style="animation-delay:2592ms"/>
<rect class="c" x="282" y="90" width="11" height="11" rx="2.5" fill="#9be9a8" style="animation-delay:2610ms"/>
<rect class="c" x="282" y="104" width="11" height="11" rx="2.5" fill="#ebedf0" style="animation-delay:2628ms"/>
<rect class="c" x="296" y="20" width="11" height="11" rx="2.5" fill="#ebedf0" style="animation-delay:2660ms"/>
<rect class="c" x="296" y="34" width="11" height="11" rx="2.5" fill="#9be9a8" style="animation-delay:2678ms"/>
<rect class="c" x="296" y="48" width="11" height="11" rx="2.5" fill="#ebedf0" style="animation-delay:2696ms"/>
<rect class="c" x="296" y="62" width="11" height="11" rx="2.5" fill="#9be9a8" style="animation-delay:2714ms"/>
<rect class="c" x="296" y="76" width="11" height="11" rx="2.5" fill="#9be9a8" style="animation-delay:2732ms"/>
<rect class="c" x="296" y="90" width="11" height="11" rx="2.5" fill="#40c463" style="animation-delay:2750ms"/>
<rect class="c" x="296" y="104" width="11" height="11" rx="2.5" fill="#ebedf0" style="animation-delay:2768ms"/>
<rect class="c" x="310" y="20" width="11" height="11" rx="2.5" fill="#ebedf0" style="animation-delay:2800ms"/>
<rect class="c" x="310" y="34" width="11" height="11" rx="2.5" fill="#ebedf0" style="animation-delay:2818ms"/>
<rect class="c" x="310" y="48" width="11" height="11" rx="2.5" fill="#9be9a8" style="animation-delay:2836ms"/>
<rect class="c" x="310" y="62" width="11" height="11" rx="2.5" fill="#40c463" style="animation-delay:2854ms"/>
<rect class="c" x="310" y="76" width="11" height="11" rx="2.5" fill="#9be9a8" style="animation-delay:2872ms"/>
<rect class="c" x="310" y="90" width="11" height="11" rx="2.5" fill="#216e39" style="animation-delay:2890ms"/>
<rect class="c" x="310" y="104" width="11" height="11" rx="2.5" fill="#ebedf0" style="animation-delay:2908ms"/>
<rect class="c" x="324" y="20" width="11" height="11" rx="2.5" fill="#ebedf0" style="animation-delay:2940ms"/>
<rect class="c" x="324" y="34" width="11" height="11" rx="2.5" fill="#30a14e" style="animation-delay:2958ms"/>
<rect class="c" x="324" y="48" width="11" height="11" rx="2.5" fill="#216e39" style="animation-delay:2976ms"/>
<rect class="c" x="324" y="62" width="11" height="11" rx="2.5" fill="#30a14e" style="animation-delay:2994ms"/>
<rect class="c" x="324" y="76" width="11" height="11" rx="2.5" fill="#9be9a8" style="animation-delay:3012ms"/>
<rect class="c" x="324" y="90" width="11" height="11" rx="2.5" fill="#216e39" style="animation-delay:3030ms"/>
<rect class="c" x="324" y="104" width="11" height="11" rx="2.5" fill="#9be9a8" style="animation-delay:3048ms"/>
<rect class="c" x="338" y="20" width="11" height="11" rx="2.5" fill="#9be9a8" style="animation-delay:3080ms"/>
<rect class="c" x="338" y="34" width="11" height="11" rx="2.5" fill="#9be9a8" style="animation-delay:3098ms"/>
<rect class="c" x="338" y="48" width="11" height="11" rx="2.5" fill="#216e39" style="animation-delay:3116ms"/>
<rect class="c" x="338" y="62" width="11" height="11" rx="2.5" fill="#30a14e" style="animation-delay:3134ms"/>
<rect class="c" x="338" y="76" width="11" height="11" rx="2.5" fill="#40c463" style="animation-delay:3152ms"/>
<rect class="c" x="338" y="90" width="11" height="11" rx="2.5" fill="#216e39" style="animation-delay:3170ms"/>
<rect class="c" x="338" y="104" width="11" height="11" rx="2.5" fill="#9be9a8" style="animation-delay:3188ms"/>
<rect class="c" x="352" y="20" width="11" height="11" rx="2.5" fill="#ebedf0" style="animation-delay:3220ms"/>
<rect class="c" x="352" y="34" width="11" height="11" rx="2.5" fill="#9be9a8" style="animation-delay:3238ms"/>
<rect class="c" x="352" y="48" width="11" height="11" rx="2.5" fill="#216e39" style="animation-delay:3256ms"/>
<rect class="c" x="352" y="62" width="11" height="11" rx="2.5" fill="#216e39" style="animation-delay:3274ms"/>
<rect class="c" x="352" y="76" width="11" height="11" rx="2.5" fill="#40c463" style="animation-delay:3292ms"/>
<rect class="c" x="352" y="90" width="11" height="11" rx="2.5" fill="#216e39" style="animation-delay:3310ms"/>
<rect class="c" x="352" y="104" width="11" height="11" rx="2.5" fill="#9be9a8" style="animation-delay:3328ms"/>
<rect class="c" x="366" y="20" width="11" height="11" rx="2.5" fill="#30a14e" style="animation-delay:3360ms"/>
<rect class="c" x="366" y="34" width="11" height="11" rx="2.5" fill="#9be9a8" style="animation-delay:3378ms"/>
<rect class="c" x="366" y="48" width="11" height="11" rx="2.5" fill="#9be9a8" style="animation-delay:3396ms"/>
<rect class="c" x="366" y="62" width="11" height="11" rx="2.5" fill="#9be9a8" style="animation-delay:3414ms"/>
<rect class="c" x="366" y="76" width="11" height="11" rx="2.5" fill="#9be9a8" style="animation-delay:3432ms"/>
<rect class="c" x="366" y="90" width="11" height="11" rx="2.5" fill="#30a14e" style="animation-delay:3450ms"/>
<rect class="c" x="366" y="104" width="11" height="11" rx="2.5" fill="#ebedf0" style="animation-delay:3468ms"/>
<rect class="c" x="380" y="20" width="11" height="11" rx="2.5" fill="#ebedf0" style="animation-delay:3500ms"/>
<rect class="c" x="380" y="34" width="11" height="11" rx="2.5" fill="#9be9a8" style="animation-delay:3518ms"/>
<rect class="c" x="380" y="48" width="11" height="11" rx="2.5" fill="#9be9a8" style="animation-delay:3536ms"/>
<rect class="c" x="380" y="62" width="11" height="11" rx="2.5" fill="#9be9a8" style="animation-delay:3554ms"/>
<rect class="c" x="380" y="76" width="11" height="11" rx="2.5" fill="#9be9a8" style="animation-delay:3572ms"/>
<rect class="c" x="380" y="90" width="11" height="11" rx="2.5" fill="#40c463" style="animation-delay:3590ms"/>
<rect class="c" x="380" y="104" width="11" height="11" rx="2.5" fill="#ebedf0" style="animation-delay:3608ms"/>
<rect class="c" x="394" y="20" width="11" height="11" rx="2.5" fill="#ebedf0" style="animation-delay:3640ms"/>
<rect class="c" x="394" y="34" width="11" height="11" rx="2.5" fill="#9be9a8" style="animation-delay:3658ms"/>
<rect class="c" x="394" y="48" width="11" height="11" rx="2.5" fill="#9be9a8" style="animation-delay:3676ms"/>
<rect class="c" x="394" y="62" width="11" height="11" rx="2.5" fill="#9be9a8" style="animation-delay:3694ms"/>
<rect class="c" x="394" y="76" width="11" height="11" rx="2.5" fill="#9be9a8" style="animation-delay:3712ms"/>
<rect class="c" x="394" y="90" width="11" height="11" rx="2.5" fill="#40c463" style="animation-delay:3730ms"/>
<rect class="c" x="394" y="104" width="11" height="11" rx="2.5" fill="#ebedf0" style="animation-delay:3748ms"/>
<rect class="c" x="408" y="20" width="11" height="11" rx="2.5" fill="#ebedf0" style="animation-delay:3780ms"/>
<rect class="c" x="408" y="34" width="11" height="11" rx="2.5" fill="#9be9a8" style="animation-delay:3798ms"/>
<rect class="c" x="408" y="48" width="11" height="11" rx="2.5" fill="#9be9a8" style="animation-delay:3816ms"/>
<rect class="c" x="408" y="62" width="11" height="11" rx="2.5" fill="#9be9a8" style="animation-delay:3834ms"/>
<rect class="c" x="408" y="76" width="11" height="11" rx="2.5" fill="#40c463" style="animation-delay:3852ms"/>
<rect class="c" x="408" y="90" width="11" height="11" rx="2.5" fill="#9be9a8" style="animation-delay:3870ms"/>
<rect class="c" x="408" y="104" width="11" height="11" rx="2.5" fill="#ebedf0" style="animation-delay:3888ms"/>
<rect class="c" x="422" y="20" width="11" height="11" rx="2.5" fill="#ebedf0" style="animation-delay:3920ms"/>
<rect class="c" x="422" y="34" width="11" height="11" rx="2.5" fill="#9be9a8" style="animation-delay:3938ms"/>
<rect class="c" x="422" y="48" width="11" height="11" rx="2.5" fill="#9be9a8" style="animation-delay:3956ms"/>
<rect class="c" x="422" y="62" width="11" height="11" rx="2.5" fill="#30a14e" style="animation-delay:3974ms"/>
<rect class="c" x="422" y="76" width="11" height="11" rx="2.5" fill="#40c463" style="animation-delay:3992ms"/>
<rect class="c" x="422" y="90" width="11" height="11" rx="2.5" fill="#40c463" style="animation-delay:4010ms"/>
<rect class="c" x="422" y="104" width="11" height="11" rx="2.5" fill="#9be9a8" style="animation-delay:4028ms"/>
<rect class="c" x="436" y="20" width="11" height="11" rx="2.5" fill="#9be9a8" style="animation-delay:4060ms"/>
<rect class="c" x="436" y="34" width="11" height="11" rx="2.5" fill="#9be9a8" style="animation-delay:4078ms"/>
<rect class="c" x="436" y="48" width="11" height="11" rx="2.5" fill="#40c463" style="animation-delay:4096ms"/>
<rect class="c" x="436" y="62" width="11" height="11" rx="2.5" fill="#216e39" style="animation-delay:4114ms"/>
<text class="t" x="30" y="132">677 contributions in 2026</text>
<text class="t" x="317" y="132">less</text>
<rect class="c" x="347" y="123" width="11" height="11" rx="2.5" fill="#ebedf0" style="animation-delay:5208ms"/>
<rect class="c" x="361" y="123" width="11" height="11" rx="2.5" fill="#9be9a8" style="animation-delay:5208ms"/>
<rect class="c" x="375" y="123" width="11" height="11" rx="2.5" fill="#40c463" style="animation-delay:5208ms"/>
<rect class="c" x="389" y="123" width="11" height="11" rx="2.5" fill="#30a14e" style="animation-delay:5208ms"/>
<rect class="c" x="403" y="123" width="11" height="11" rx="2.5" fill="#216e39" style="animation-delay:5208ms"/>
<text class="t" x="421" y="132">more</text>
</svg>
